<svg width="440" height="841" viewBox="0 0 440 841" fill="none" xmlns="http://www.w3.org/2000/svg">
<path d="M91.0662 0.5C114.73 0.5 139.768 10.7752 165.488 29.2021C191.205 47.6267 217.565 74.1744 243.863 106.65C296.458 171.602 348.754 260.206 395.108 354.782C441.46 449.355 481.862 549.88 510.675 638.662C539.492 727.461 556.699 804.461 556.699 852.004C556.699 863.891 555.226 872.127 552.481 877.187C551.115 879.706 549.443 881.418 547.499 882.415C545.555 883.412 543.294 883.718 540.706 883.35C535.503 882.608 529.054 879.148 521.475 873.264C513.911 867.39 505.277 859.146 495.71 848.921C457.431 808.01 404.399 735.6 345.38 657.188C286.374 578.794 221.399 494.422 159.264 429.647C128.197 397.261 97.8261 369.758 69.2537 350.349C40.6906 330.946 13.8692 319.593 -10.0872 319.593C-105.52 319.593 -166.578 373.556 -203.683 403.569C-212.971 411.082 -220.723 417.066 -227.137 420.354C-233.562 423.649 -238.446 424.143 -242.186 421.045C-244.086 419.471 -245.748 416.929 -247.164 413.214C-248.579 409.501 -249.736 404.65 -250.647 398.498C-252.469 386.192 -253.301 368.751 -253.301 344.943C-253.301 154.713 -99.1225 0.500033 91.0662 0.5Z" fill="url(#paint0_linear_1139_4766)" stroke="url(#paint1_linear_1139_4766)"/>
<defs>
<linearGradient id="paint0_linear_1139_4766" x1="-262.997" y1="-16.8639" x2="418.473" y2="742.629" gradientUnits="userSpaceOnUse">
<stop stop-color="white" stop-opacity="0.1"/>
<stop offset="1" stop-color="white" stop-opacity="0.03"/>
</linearGradient>
<linearGradient id="paint1_linear_1139_4766" x1="91.0661" y1="0" x2="91.0661" y2="689.886" gradientUnits="userSpaceOnUse">
<stop stop-color="white" stop-opacity="0.1"/>
<stop offset="1" stop-color="white" stop-opacity="0"/>
</linearGradient>
</defs>
</svg>
