<svg width="440" height="682" viewBox="0 0 440 682" fill="none" xmlns="http://www.w3.org/2000/svg">
<path d="M407.199 0.5C508.432 0.500099 590.5 82.8159 590.5 184.36C590.5 285.905 508.432 368.22 407.199 368.22C400.792 368.22 391.294 369.789 379.145 372.684C366.985 375.581 352.136 379.815 335.014 385.165C300.769 395.865 257.406 411.035 208.234 428.917C109.906 464.677 -11.7297 511.313 -130.139 554.748C-248.57 598.191 -363.81 638.444 -449.437 661.474C-492.256 672.99 -527.635 680.19 -552.295 681.338C-564.633 681.912 -574.227 680.968 -580.717 678.335C-583.955 677.021 -586.395 675.296 -588.026 673.154C-589.653 671.018 -590.5 668.434 -590.5 665.351C-590.5 659.145 -587.072 651.083 -580.491 641.379C-573.923 631.694 -564.263 620.444 -551.915 607.878C-527.22 582.747 -491.816 552.397 -448.998 518.828C-363.364 451.692 -248.119 371.713 -129.695 294.912C-11.2723 218.112 110.32 144.495 208.647 90.0801C257.812 62.8722 301.153 40.4685 335.37 24.8682C352.479 17.0679 367.3 10.9721 379.422 6.82715C391.559 2.67713 400.943 0.5 407.199 0.5Z" fill="url(#paint0_linear_1139_4765)" stroke="url(#paint1_linear_1139_4765)"/>
<defs>
<linearGradient id="paint0_linear_1139_4765" x1="209.696" y1="-1.29304" x2="574.027" y2="403.609" gradientUnits="userSpaceOnUse">
<stop stop-color="white" stop-opacity="0.1"/>
<stop offset="1" stop-color="white" stop-opacity="0.03"/>
</linearGradient>
<linearGradient id="paint1_linear_1139_4765" x1="398.398" y1="7.71973" x2="398.398" y2="376.44" gradientUnits="userSpaceOnUse">
<stop stop-color="white" stop-opacity="0.1"/>
<stop offset="1" stop-color="white" stop-opacity="0"/>
</linearGradient>
</defs>
</svg>
