<svg width="218" height="24" viewBox="0 0 218 24" fill="none" xmlns="http://www.w3.org/2000/svg">
<path d="M2.11199 13.32C2.47999 13.96 2.87199 14.528 3.28799 15.024C3.71999 15.504 4.19199 15.88 4.70399 16.152C5.21599 16.408 5.79199 16.536 6.43199 16.536C7.19999 16.536 7.82399 16.328 8.30399 15.912C8.78399 15.496 9.02399 14.96 9.02399 14.304C9.02399 13.68 8.87199 13.184 8.56799 12.816C8.26399 12.432 7.83999 12.112 7.29599 11.856C6.76799 11.584 6.15199 11.32 5.44799 11.064C5.03199 10.92 4.56799 10.728 4.05599 10.488C3.54399 10.232 3.05599 9.91997 2.59199 9.55197C2.12799 9.16797 1.74399 8.70397 1.43999 8.15997C1.13599 7.59997 0.983986 6.92797 0.983986 6.14397C0.983986 5.24797 1.21599 4.46397 1.67999 3.79197C2.14399 3.10397 2.76799 2.57597 3.55199 2.20797C4.35199 1.82397 5.25599 1.63197 6.26399 1.63197C7.25599 1.63197 8.11999 1.80797 8.85599 2.15997C9.59199 2.51197 10.208 2.95997 10.704 3.50397C11.216 4.04797 11.616 4.61597 11.904 5.20797L9.59999 6.50397C9.39199 6.08797 9.12799 5.70397 8.80799 5.35197C8.48799 4.98397 8.11199 4.69597 7.67999 4.48797C7.26399 4.26397 6.77599 4.15197 6.21599 4.15197C5.43199 4.15197 4.85599 4.33597 4.48799 4.70397C4.11999 5.05597 3.93599 5.47197 3.93599 5.95197C3.93599 6.38397 4.06399 6.77597 4.31999 7.12797C4.59199 7.46397 5.00799 7.78397 5.56799 8.08797C6.12799 8.39197 6.85599 8.70397 7.75199 9.02397C8.24799 9.19997 8.74399 9.42397 9.23999 9.69597C9.75199 9.96797 10.216 10.312 10.632 10.728C11.048 11.128 11.376 11.6 11.616 12.144C11.872 12.688 12 13.328 12 14.064C12 14.848 11.848 15.552 11.544 16.176C11.24 16.8 10.824 17.328 10.296 17.76C9.76799 18.176 9.16799 18.496 8.49599 18.72C7.83999 18.96 7.15199 19.08 6.43199 19.08C5.43999 19.08 4.51999 18.888 3.67199 18.504C2.83999 18.104 2.11199 17.576 1.48799 16.92C0.863986 16.264 0.367986 15.552 -1.36197e-05 14.784L2.11199 13.32ZM17.2824 -3.00407e-05V18.72H14.6904V-3.00407e-05H17.2824ZM21.7944 12C21.7944 11.184 21.6264 10.568 21.2904 10.152C20.9704 9.73597 20.4504 9.52797 19.7304 9.52797C19.2504 9.52797 18.8264 9.63197 18.4584 9.83997C18.0904 10.048 17.8024 10.336 17.5944 10.704C17.3864 11.072 17.2824 11.504 17.2824 12H16.6584C16.6584 11.12 16.8184 10.336 17.1384 9.64797C17.4584 8.95997 17.9064 8.40797 18.4824 7.99197C19.0744 7.57597 19.7864 7.36797 20.6184 7.36797C21.4344 7.36797 22.1224 7.52797 22.6824 7.84797C23.2584 8.16797 23.6904 8.64797 23.9784 9.28797C24.2664 9.91197 24.4104 10.696 24.4104 11.64V18.72H21.7944V12ZM26.8582 13.2C26.8582 12.064 27.1142 11.064 27.6262 10.2C28.1542 9.33597 28.8662 8.66397 29.7622 8.18397C30.6582 7.68797 31.6742 7.43997 32.8102 7.43997C33.9462 7.43997 34.9542 7.68797 35.8342 8.18397C36.7302 8.66397 37.4422 9.33597 37.9702 10.2C38.4982 11.064 38.7622 12.064 38.7622 13.2C38.7622 14.32 38.4982 15.32 37.9702 16.2C37.4422 17.064 36.7302 17.744 35.8342 18.24C34.9542 18.72 33.9462 18.96 32.8102 18.96C31.6742 18.96 30.6582 18.72 29.7622 18.24C28.8662 17.744 28.1542 17.064 27.6262 16.2C27.1142 15.32 26.8582 14.32 26.8582 13.2ZM29.5222 13.2C29.5222 13.888 29.6662 14.496 29.9542 15.024C30.2422 15.536 30.6342 15.944 31.1302 16.248C31.6262 16.536 32.1862 16.68 32.8102 16.68C33.4182 16.68 33.9702 16.536 34.4662 16.248C34.9782 15.944 35.3782 15.536 35.6662 15.024C35.9542 14.496 36.0982 13.888 36.0982 13.2C36.0982 12.512 35.9542 11.904 35.6662 11.376C35.3782 10.848 34.9782 10.44 34.4662 10.152C33.9702 9.86397 33.4182 9.71997 32.8102 9.71997C32.1862 9.71997 31.6262 9.86397 31.1302 10.152C30.6342 10.44 30.2422 10.848 29.9542 11.376C29.6662 11.904 29.5222 12.512 29.5222 13.2ZM43.7417 24H41.1257V7.67997H43.7417V24ZM52.8857 13.2C52.8857 14.416 52.6377 15.464 52.1417 16.344C51.6457 17.208 50.9897 17.872 50.1737 18.336C49.3577 18.784 48.4697 19.008 47.5097 19.008C46.5657 19.008 45.7417 18.776 45.0377 18.312C44.3497 17.832 43.8137 17.16 43.4297 16.296C43.0617 15.416 42.8777 14.384 42.8777 13.2C42.8777 12 43.0617 10.968 43.4297 10.104C43.8137 9.23997 44.3497 8.57597 45.0377 8.11197C45.7417 7.63197 46.5657 7.39197 47.5097 7.39197C48.4697 7.39197 49.3577 7.62397 50.1737 8.08797C50.9897 8.53597 51.6457 9.19197 52.1417 10.056C52.6377 10.92 52.8857 11.968 52.8857 13.2ZM50.1977 13.2C50.1977 12.464 50.0457 11.84 49.7417 11.328C49.4377 10.8 49.0297 10.408 48.5177 10.152C48.0217 9.87997 47.4697 9.74397 46.8617 9.74397C46.3657 9.74397 45.8777 9.87997 45.3977 10.152C44.9177 10.408 44.5177 10.792 44.1977 11.304C43.8937 11.816 43.7417 12.448 43.7417 13.2C43.7417 13.952 43.8937 14.584 44.1977 15.096C44.5177 15.608 44.9177 16 45.3977 16.272C45.8777 16.528 46.3657 16.656 46.8617 16.656C47.4697 16.656 48.0217 16.528 48.5177 16.272C49.0297 16 49.4377 15.608 49.7417 15.096C50.0457 14.568 50.1977 13.936 50.1977 13.2ZM77.9578 13.176L81.8938 1.91997H85.1818L78.3178 19.608L73.1338 7.72797L67.9498 19.608L61.0858 1.91997H64.3738L68.3578 13.176L73.1338 1.07997L77.9578 13.176ZM89.6105 -3.00407e-05V18.72H87.0185V-3.00407e-05H89.6105ZM94.1225 12C94.1225 11.184 93.9545 10.568 93.6185 10.152C93.2985 9.73597 92.7785 9.52797 92.0585 9.52797C91.5785 9.52797 91.1545 9.63197 90.7865 9.83997C90.4185 10.048 90.1305 10.336 89.9225 10.704C89.7145 11.072 89.6105 11.504 89.6105 12H88.9865C88.9865 11.12 89.1465 10.336 89.4665 9.64797C89.7865 8.95997 90.2345 8.40797 90.8105 7.99197C91.4025 7.57597 92.1145 7.36797 92.9465 7.36797C93.7625 7.36797 94.4505 7.52797 95.0105 7.84797C95.5865 8.16797 96.0185 8.64797 96.3065 9.28797C96.5945 9.91197 96.7385 10.696 96.7385 11.64V18.72H94.1225V12ZM101.658 15.288C101.658 15.656 101.746 15.976 101.922 16.248C102.098 16.504 102.338 16.696 102.642 16.824C102.962 16.952 103.322 17.016 103.722 17.016C104.234 17.016 104.698 16.912 105.114 16.704C105.546 16.496 105.89 16.192 106.146 15.792C106.418 15.376 106.554 14.896 106.554 14.352L106.938 15.792C106.938 16.496 106.73 17.088 106.314 17.568C105.914 18.032 105.402 18.384 104.778 18.624C104.17 18.848 103.546 18.96 102.906 18.96C102.218 18.96 101.578 18.824 100.986 18.552C100.394 18.28 99.9224 17.88 99.5704 17.352C99.2184 16.824 99.0424 16.184 99.0424 15.432C99.0424 14.36 99.4184 13.512 100.17 12.888C100.922 12.248 101.986 11.928 103.362 11.928C104.098 11.928 104.73 12.008 105.258 12.168C105.802 12.328 106.25 12.52 106.602 12.744C106.954 12.952 107.202 13.144 107.346 13.32V14.64C106.85 14.288 106.322 14.032 105.762 13.872C105.202 13.712 104.61 13.632 103.986 13.632C103.442 13.632 103.002 13.704 102.666 13.848C102.33 13.976 102.074 14.16 101.898 14.4C101.738 14.64 101.658 14.936 101.658 15.288ZM100.842 10.56L99.7864 8.73597C100.282 8.43197 100.922 8.13597 101.706 7.84797C102.506 7.55997 103.418 7.41597 104.442 7.41597C105.354 7.41597 106.154 7.55197 106.842 7.82397C107.546 8.09597 108.098 8.48797 108.498 8.99997C108.898 9.49597 109.098 10.112 109.098 10.848V18.72H106.554V11.352C106.554 11 106.49 10.712 106.362 10.488C106.25 10.264 106.09 10.08 105.882 9.93597C105.674 9.79197 105.426 9.68797 105.138 9.62397C104.85 9.55997 104.538 9.52797 104.202 9.52797C103.69 9.52797 103.202 9.59197 102.738 9.71997C102.29 9.83197 101.898 9.97597 101.562 10.152C101.242 10.312 101.002 10.448 100.842 10.56ZM110.584 7.67997H116.848V9.95997H110.584V7.67997ZM112.432 3.83997H115V18.72H112.432V3.83997ZM135.287 1.91997H138.527L132.815 11.64V18.72H129.935V11.664L124.247 1.91997H127.463L131.375 9.11997L135.287 1.91997ZM137.014 13.2C137.014 12.064 137.27 11.064 137.782 10.2C138.31 9.33597 139.022 8.66397 139.918 8.18397C140.814 7.68797 141.83 7.43997 142.966 7.43997C144.102 7.43997 145.11 7.68797 145.99 8.18397C146.886 8.66397 147.598 9.33597 148.126 10.2C148.654 11.064 148.918 12.064 148.918 13.2C148.918 14.32 148.654 15.32 148.126 16.2C147.598 17.064 146.886 17.744 145.99 18.24C145.11 18.72 144.102 18.96 142.966 18.96C141.83 18.96 140.814 18.72 139.918 18.24C139.022 17.744 138.31 17.064 137.782 16.2C137.27 15.32 137.014 14.32 137.014 13.2ZM139.678 13.2C139.678 13.888 139.822 14.496 140.11 15.024C140.398 15.536 140.79 15.944 141.286 16.248C141.782 16.536 142.342 16.68 142.966 16.68C143.574 16.68 144.126 16.536 144.622 16.248C145.134 15.944 145.534 15.536 145.822 15.024C146.11 14.496 146.254 13.888 146.254 13.2C146.254 12.512 146.11 11.904 145.822 11.376C145.534 10.848 145.134 10.44 144.622 10.152C144.126 9.86397 143.574 9.71997 142.966 9.71997C142.342 9.71997 141.782 9.86397 141.286 10.152C140.79 10.44 140.398 10.848 140.11 11.376C139.822 11.904 139.678 12.512 139.678 13.2ZM154.042 14.4C154.042 15.184 154.21 15.792 154.546 16.224C154.882 16.656 155.394 16.872 156.082 16.872C156.578 16.872 157.01 16.776 157.378 16.584C157.746 16.376 158.034 16.088 158.242 15.72C158.45 15.336 158.554 14.896 158.554 14.4V7.67997H161.146V18.72H158.554V17.016C158.202 17.656 157.746 18.144 157.186 18.48C156.642 18.8 155.986 18.96 155.218 18.96C153.986 18.96 153.034 18.576 152.362 17.808C151.706 17.04 151.378 16 151.378 14.688V7.67997H154.042V14.4ZM171.867 1.91997H174.699V16.176H181.371V18.72H171.867V1.91997ZM182.366 13.2C182.366 12.064 182.622 11.064 183.134 10.2C183.662 9.33597 184.374 8.66397 185.27 8.18397C186.166 7.68797 187.182 7.43997 188.318 7.43997C189.454 7.43997 190.462 7.68797 191.342 8.18397C192.238 8.66397 192.95 9.33597 193.478 10.2C194.006 11.064 194.27 12.064 194.27 13.2C194.27 14.32 194.006 15.32 193.478 16.2C192.95 17.064 192.238 17.744 191.342 18.24C190.462 18.72 189.454 18.96 188.318 18.96C187.182 18.96 186.166 18.72 185.27 18.24C184.374 17.744 183.662 17.064 183.134 16.2C182.622 15.32 182.366 14.32 182.366 13.2ZM185.03 13.2C185.03 13.888 185.174 14.496 185.462 15.024C185.75 15.536 186.142 15.944 186.638 16.248C187.134 16.536 187.694 16.68 188.318 16.68C188.926 16.68 189.478 16.536 189.974 16.248C190.486 15.944 190.886 15.536 191.174 15.024C191.462 14.496 191.606 13.888 191.606 13.2C191.606 12.512 191.462 11.904 191.174 11.376C190.886 10.848 190.486 10.44 189.974 10.152C189.478 9.86397 188.926 9.71997 188.318 9.71997C187.694 9.71997 187.134 9.86397 186.638 10.152C186.142 10.44 185.75 10.848 185.462 11.376C185.174 11.904 185.03 12.512 185.03 13.2ZM194.698 7.67997H197.53L200.41 14.808L203.29 7.67997H206.146L200.41 19.728L194.698 7.67997ZM212.217 18.96C211.097 18.96 210.105 18.72 209.241 18.24C208.393 17.76 207.737 17.088 207.273 16.224C206.809 15.36 206.577 14.352 206.577 13.2C206.577 12.032 206.809 11.016 207.273 10.152C207.753 9.28797 208.425 8.62397 209.289 8.15997C210.153 7.67997 211.169 7.43997 212.337 7.43997C213.505 7.43997 214.497 7.66397 215.313 8.11197C216.129 8.55997 216.753 9.20797 217.185 10.056C217.633 10.888 217.857 11.896 217.857 13.08C217.857 13.208 217.849 13.344 217.833 13.488C217.833 13.632 217.825 13.736 217.809 13.8H208.113V12.024H215.601L214.809 13.128C214.857 13.032 214.905 12.904 214.953 12.744C215.017 12.568 215.049 12.424 215.049 12.312C215.049 11.72 214.929 11.208 214.689 10.776C214.465 10.344 214.145 10.008 213.729 9.76797C213.329 9.52797 212.857 9.40797 212.313 9.40797C211.657 9.40797 211.097 9.55197 210.633 9.83997C210.169 10.128 209.817 10.544 209.577 11.088C209.337 11.632 209.209 12.304 209.193 13.104C209.193 13.904 209.313 14.584 209.553 15.144C209.793 15.688 210.145 16.104 210.609 16.392C211.089 16.68 211.665 16.824 212.337 16.824C213.041 16.824 213.657 16.68 214.185 16.392C214.713 16.104 215.153 15.664 215.505 15.072L217.737 15.984C217.161 16.976 216.417 17.72 215.505 18.216C214.593 18.712 213.497 18.96 212.217 18.96Z" fill="#363636"/>
</svg>
