<svg width="274" height="75" viewBox="0 0 274 75" fill="none" xmlns="http://www.w3.org/2000/svg">
<g filter="url(#filter0_d_12_773)">
<path d="M19.9328 49.652C16.9888 49.652 14.3435 49.14 11.9968 48.116C9.69284 47.0493 7.87951 45.5987 6.55684 43.764C5.23417 41.8867 4.55151 39.732 4.50884 37.3H10.7168C10.9302 39.3907 11.7835 41.1613 13.2768 42.612C14.8128 44.02 17.0315 44.724 19.9328 44.724C22.7062 44.724 24.8822 44.0413 26.4608 42.676C28.0822 41.268 28.8928 39.476 28.8928 37.3C28.8928 35.5933 28.4235 34.2067 27.4848 33.14C26.5462 32.0733 25.3728 31.2627 23.9648 30.708C22.5568 30.1533 20.6582 29.556 18.2688 28.916C15.3248 28.148 12.9568 27.38 11.1648 26.612C9.41551 25.844 7.90084 24.6493 6.62084 23.028C5.38351 21.364 4.76484 19.1453 4.76484 16.372C4.76484 13.94 5.38351 11.7853 6.62084 9.90801C7.85817 8.03067 9.58617 6.58001 11.8048 5.55601C14.0662 4.53201 16.6475 4.02001 19.5488 4.02001C23.7302 4.02001 27.1435 5.06534 29.7888 7.15601C32.4768 9.24667 33.9915 12.02 34.3328 15.476H27.9328C27.7195 13.7693 26.8235 12.276 25.2448 10.996C23.6662 9.67334 21.5755 9.01201 18.9728 9.01201C16.5408 9.01201 14.5568 9.65201 13.0208 10.932C11.4848 12.1693 10.7168 13.9187 10.7168 16.18C10.7168 17.8013 11.1648 19.124 12.0608 20.148C12.9995 21.172 14.1302 21.9613 15.4528 22.516C16.8182 23.028 18.7168 23.6253 21.1488 24.308C24.0928 25.1187 26.4608 25.9293 28.2528 26.74C30.0448 27.508 31.5808 28.724 32.8608 30.388C34.1408 32.0093 34.7808 34.228 34.7808 37.044C34.7808 39.22 34.2048 41.268 33.0528 43.188C31.9008 45.108 30.1942 46.6653 27.9328 47.86C25.6715 49.0547 23.0048 49.652 19.9328 49.652ZM60.7593 13.492C63.4047 13.492 65.794 14.068 67.9273 15.22C70.0607 16.3293 71.7247 18.0147 72.9193 20.276C74.1567 22.5373 74.7753 25.2893 74.7753 28.532V49.204H69.0153V29.364C69.0153 25.8653 68.1407 23.1987 66.3913 21.364C64.642 19.4867 62.2527 18.548 59.2233 18.548C56.1513 18.548 53.698 19.508 51.8633 21.428C50.0713 23.348 49.1753 26.1427 49.1753 29.812V49.204H43.3513V1.84401H49.1753V19.124C50.3273 17.332 51.906 15.9453 53.9113 14.964C55.9593 13.9827 58.242 13.492 60.7593 13.492ZM99.5848 49.78C96.2995 49.78 93.3128 49.0333 90.6248 47.54C87.9795 46.0467 85.8888 43.9347 84.3528 41.204C82.8595 38.4307 82.1128 35.2307 82.1128 31.604C82.1128 28.02 82.8808 24.8627 84.4168 22.132C85.9955 19.3587 88.1288 17.2467 90.8168 15.796C93.5048 14.3027 96.5128 13.556 99.8408 13.556C103.169 13.556 106.177 14.3027 108.865 15.796C111.553 17.2467 113.665 19.3373 115.201 22.068C116.78 24.7987 117.569 27.9773 117.569 31.604C117.569 35.2307 116.758 38.4307 115.137 41.204C113.558 43.9347 111.404 46.0467 108.673 47.54C105.942 49.0333 102.913 49.78 99.5848 49.78ZM99.5848 44.66C101.676 44.66 103.638 44.1693 105.473 43.188C107.308 42.2067 108.78 40.7347 109.889 38.772C111.041 36.8093 111.617 34.42 111.617 31.604C111.617 28.788 111.062 26.3987 109.953 24.436C108.844 22.4733 107.393 21.0227 105.601 20.084C103.809 19.1027 101.868 18.612 99.7768 18.612C97.6435 18.612 95.6808 19.1027 93.8888 20.084C92.1395 21.0227 90.7315 22.4733 89.6648 24.436C88.5982 26.3987 88.0648 28.788 88.0648 31.604C88.0648 34.4627 88.5768 36.8733 89.6008 38.836C90.6675 40.7987 92.0755 42.2707 93.8248 43.252C95.5742 44.1907 97.4942 44.66 99.5848 44.66ZM131.05 20.596C132.202 18.5907 133.909 16.9267 136.17 15.604C138.474 14.2387 141.141 13.556 144.17 13.556C147.285 13.556 150.101 14.3027 152.618 15.796C155.178 17.2893 157.184 19.4013 158.634 22.132C160.085 24.82 160.81 27.956 160.81 31.54C160.81 35.0813 160.085 38.2387 158.634 41.012C157.184 43.7853 155.178 45.94 152.618 47.476C150.101 49.012 147.285 49.78 144.17 49.78C141.184 49.78 138.538 49.1187 136.234 47.796C133.973 46.4307 132.245 44.7453 131.05 42.74V65.844H125.226V14.132H131.05V20.596ZM154.858 31.54C154.858 28.8947 154.325 26.5907 153.258 24.628C152.192 22.6653 150.741 21.172 148.906 20.148C147.114 19.124 145.13 18.612 142.954 18.612C140.821 18.612 138.837 19.1453 137.002 20.212C135.21 21.236 133.76 22.7507 132.65 24.756C131.584 26.7187 131.05 29.0013 131.05 31.604C131.05 34.2493 131.584 36.5747 132.65 38.58C133.76 40.5427 135.21 42.0573 137.002 43.124C138.837 44.148 140.821 44.66 142.954 44.66C145.13 44.66 147.114 44.148 148.906 43.124C150.741 42.0573 152.192 40.5427 153.258 38.58C154.325 36.5747 154.858 34.228 154.858 31.54ZM171.484 8.43601C170.375 8.43601 169.436 8.05201 168.668 7.28401C167.9 6.51601 167.516 5.57734 167.516 4.46801C167.516 3.35867 167.9 2.42001 168.668 1.65201C169.436 0.884008 170.375 0.500008 171.484 0.500008C172.551 0.500008 173.447 0.884008 174.172 1.65201C174.94 2.42001 175.324 3.35867 175.324 4.46801C175.324 5.57734 174.94 6.51601 174.172 7.28401C173.447 8.05201 172.551 8.43601 171.484 8.43601ZM174.3 14.132V49.204H168.476V14.132H174.3ZM197.282 43.828L208.162 14.132H214.37L200.61 49.204H193.826L180.066 14.132H186.338L197.282 43.828ZM223.109 8.43601C222 8.43601 221.061 8.05201 220.293 7.28401C219.525 6.51601 219.141 5.57734 219.141 4.46801C219.141 3.35867 219.525 2.42001 220.293 1.65201C221.061 0.884008 222 0.500008 223.109 0.500008C224.176 0.500008 225.072 0.884008 225.797 1.65201C226.565 2.42001 226.949 3.35867 226.949 4.46801C226.949 5.57734 226.565 6.51601 225.797 7.28401C225.072 8.05201 224.176 8.43601 223.109 8.43601ZM225.925 14.132V49.204H220.101V14.132H225.925ZM233.675 31.54C233.675 27.956 234.401 24.82 235.851 22.132C237.302 19.4013 239.286 17.2893 241.803 15.796C244.363 14.3027 247.201 13.556 250.315 13.556C253.387 13.556 256.054 14.2173 258.315 15.54C260.577 16.8627 262.262 18.5267 263.371 20.532V14.132H269.259V49.204H263.371V42.676C262.219 44.724 260.491 46.4307 258.187 47.796C255.926 49.1187 253.281 49.78 250.251 49.78C247.137 49.78 244.321 49.012 241.803 47.476C239.286 45.94 237.302 43.7853 235.851 41.012C234.401 38.2387 233.675 35.0813 233.675 31.54ZM263.371 31.604C263.371 28.9587 262.838 26.6547 261.771 24.692C260.705 22.7293 259.254 21.236 257.419 20.212C255.627 19.1453 253.643 18.612 251.467 18.612C249.291 18.612 247.307 19.124 245.515 20.148C243.723 21.172 242.294 22.6653 241.227 24.628C240.161 26.5907 239.627 28.8947 239.627 31.54C239.627 34.228 240.161 36.5747 241.227 38.58C242.294 40.5427 243.723 42.0573 245.515 43.124C247.307 44.148 249.291 44.66 251.467 44.66C253.643 44.66 255.627 44.148 257.419 43.124C259.254 42.0573 260.705 40.5427 261.771 38.58C262.838 36.5747 263.371 34.2493 263.371 31.604Z" fill="#FFFEFE"/>
<path d="M11.9968 48.116L11.7867 48.5699L11.7969 48.5743L11.9968 48.116ZM6.55684 43.764L6.14807 44.052L6.15125 44.0564L6.55684 43.764ZM4.50884 37.3V36.8H3.99999L4.00892 37.3088L4.50884 37.3ZM10.7168 37.3L11.2143 37.2493L11.1684 36.8H10.7168V37.3ZM13.2768 42.612L12.9284 42.9706L12.9336 42.9757L12.939 42.9806L13.2768 42.612ZM26.4608 42.676L26.7879 43.0542L26.7887 43.0535L26.4608 42.676ZM27.4848 33.14L27.1095 33.4703V33.4703L27.4848 33.14ZM23.9648 30.708L23.7816 31.1732V31.1732L23.9648 30.708ZM18.2688 28.916L18.3982 28.433L18.3951 28.4322L18.2688 28.916ZM11.1648 26.612L10.9638 27.0698L10.9679 27.0716L11.1648 26.612ZM6.62084 23.028L6.21961 23.3264L6.22392 23.3322L6.2284 23.3378L6.62084 23.028ZM6.62084 9.90801L7.03832 10.1832V10.1832L6.62084 9.90801ZM11.8048 5.55601L11.5986 5.10052L11.5953 5.10203L11.8048 5.55601ZM29.7888 7.15601L29.4788 7.5483L29.4819 7.55069L29.7888 7.15601ZM34.3328 15.476V15.976H34.8847L34.8304 15.4269L34.3328 15.476ZM27.9328 15.476L27.4367 15.538L27.4914 15.976H27.9328V15.476ZM25.2448 10.996L24.9237 11.3793L24.9299 11.3844L25.2448 10.996ZM13.0208 10.932L13.3345 11.3214L13.3409 11.3161L13.0208 10.932ZM12.0608 20.148L11.6845 20.4773L11.6923 20.4859L12.0608 20.148ZM15.4528 22.516L15.2595 22.9771L15.2683 22.9808L15.2773 22.9842L15.4528 22.516ZM21.1488 24.308L21.0137 24.7894L21.0161 24.7901L21.1488 24.308ZM28.2528 26.74L28.0467 27.1957L28.0559 27.1996L28.2528 26.74ZM32.8608 30.388L32.4645 30.6929L32.4684 30.6978L32.8608 30.388ZM33.0528 43.188L33.4816 43.4453V43.4453L33.0528 43.188ZM27.9328 47.86L27.6993 47.4179L27.9328 47.86ZM19.9328 49.652V49.152C17.0474 49.152 14.4716 48.6504 12.1968 47.6577L11.9968 48.116L11.7969 48.5743C14.2154 49.6296 16.9303 50.152 19.9328 50.152V49.652ZM11.9968 48.116L12.2069 47.6623C9.97112 46.6272 8.22894 45.2284 6.96243 43.4716L6.55684 43.764L6.15125 44.0564C7.53008 45.969 9.41456 47.4715 11.7868 48.5697L11.9968 48.116ZM6.55684 43.764L6.96558 43.476C5.70407 41.6855 5.04978 39.6294 5.00876 37.2912L4.50884 37.3L4.00892 37.3088C4.05323 39.8346 4.76428 42.0878 6.1481 44.052L6.55684 43.764ZM4.50884 37.3V37.8H10.7168V37.3V36.8H4.50884V37.3ZM10.7168 37.3L10.2194 37.3508C10.4446 39.5572 11.3499 41.4372 12.9284 42.9706L13.2768 42.612L13.6252 42.2534C12.2171 40.8855 11.4158 39.2242 11.2143 37.2493L10.7168 37.3ZM13.2768 42.612L12.939 42.9806C14.598 44.5014 16.9557 45.224 19.9328 45.224V44.724V44.224C17.1073 44.224 15.0277 43.5387 13.6147 42.2434L13.2768 42.612ZM19.9328 44.724V45.224C22.7863 45.224 25.0921 44.5208 26.7879 43.0542L26.4608 42.676L26.1338 42.2978C24.6722 43.5619 22.626 44.224 19.9328 44.224V44.724ZM26.4608 42.676L26.7887 43.0535C28.521 41.5491 29.3928 39.6186 29.3928 37.3H28.8928H28.3928C28.3928 39.3334 27.6433 40.9869 26.133 42.2985L26.4608 42.676ZM28.8928 37.3H29.3928C29.3928 35.4974 28.8947 33.9852 27.8602 32.8097L27.4848 33.14L27.1095 33.4703C27.9523 34.4281 28.3928 35.6893 28.3928 37.3H28.8928ZM27.4848 33.14L27.8602 32.8097C26.8657 31.6796 25.625 30.8246 24.1481 30.2428L23.9648 30.708L23.7816 31.1732C25.1207 31.7007 26.2266 32.4671 27.1095 33.4703L27.4848 33.14ZM23.9648 30.708L24.1481 30.2428C22.715 29.6783 20.7959 29.0753 18.3982 28.433L18.2688 28.916L18.1395 29.399C20.5204 30.0367 22.3987 30.6284 23.7816 31.1732L23.9648 30.708ZM18.2688 28.916L18.3951 28.4322C15.4634 27.6674 13.1219 26.9068 11.3618 26.1524L11.1648 26.612L10.9679 27.0716C12.7918 27.8533 15.1863 28.6286 18.1426 29.3998L18.2688 28.916ZM11.1648 26.612L11.3658 26.1542C9.69748 25.4217 8.24677 24.2806 7.01328 22.7182L6.62084 23.028L6.2284 23.3378C7.55491 25.0181 9.13354 26.2663 10.9638 27.0698L11.1648 26.612ZM6.62084 23.028L7.02207 22.7297C5.86743 21.1769 5.26484 19.0738 5.26484 16.372H4.76484H4.26484C4.26484 19.2169 4.89958 21.5512 6.21961 23.3264L6.62084 23.028ZM4.76484 16.372H5.26484C5.26484 14.0295 5.85923 11.9721 7.03832 10.1832L6.62084 9.90801L6.20336 9.63285C4.90778 11.5986 4.26484 13.8505 4.26484 16.372H4.76484ZM6.62084 9.90801L7.03832 10.1832C8.21993 8.39038 9.87271 6.99844 12.0144 6.00999L11.8048 5.55601L11.5953 5.10203C9.29964 6.16157 7.49642 7.67097 6.20336 9.63285L6.62084 9.90801ZM11.8048 5.55601L12.0111 6.01149C14.1976 5.02137 16.7067 4.52001 19.5488 4.52001V4.02001V3.52001C16.5883 3.52001 13.9348 4.04264 11.5986 5.10053L11.8048 5.55601ZM19.5488 4.02001V4.52001C23.6453 4.52001 26.9413 5.5428 29.4788 7.54829L29.7888 7.15601L30.0989 6.76373C27.3458 4.58788 23.815 3.52001 19.5488 3.52001V4.02001ZM29.7888 7.15601L29.4819 7.55069C32.0592 9.55531 33.5071 12.2025 33.8353 15.5252L34.3328 15.476L34.8304 15.4269C34.4759 11.8375 32.8944 8.93804 30.0958 6.76133L29.7888 7.15601ZM34.3328 15.476V14.976H27.9328V15.476V15.976H34.3328V15.476ZM27.9328 15.476L28.429 15.414C28.1968 13.5563 27.2192 11.9532 25.5597 10.6076L25.2448 10.996L24.9299 11.3844C26.4278 12.5989 27.2422 13.9823 27.4367 15.538L27.9328 15.476ZM25.2448 10.996L25.566 10.6128C23.8756 9.19651 21.6612 8.51201 18.9728 8.51201V9.01201V9.51201C21.4898 9.51201 23.4567 10.1502 24.9237 11.3793L25.2448 10.996ZM18.9728 9.01201V8.51201C16.4501 8.51201 14.3449 9.17776 12.7007 10.5479L13.0208 10.932L13.3409 11.3161C14.7688 10.1263 16.6315 9.51201 18.9728 9.51201V9.01201ZM13.0208 10.932L12.7072 10.5426C11.0352 11.8895 10.2168 13.7923 10.2168 16.18H10.7168H11.2168C11.2168 14.045 11.9345 12.4492 13.3345 11.3214L13.0208 10.932ZM10.7168 16.18H10.2168C10.2168 17.8981 10.6941 19.3453 11.6846 20.4773L12.0608 20.148L12.4371 19.8188C11.6356 18.9027 11.2168 17.7046 11.2168 16.18H10.7168ZM12.0608 20.148L11.6923 20.4859C12.6813 21.5649 13.8724 22.3954 15.2595 22.9771L15.4528 22.516L15.6462 22.0549C14.3879 21.5273 13.3177 20.7791 12.4294 19.8101L12.0608 20.148ZM15.4528 22.516L15.2773 22.9842C16.6621 23.5035 18.5764 24.1052 21.0137 24.7894L21.1488 24.308L21.284 23.8266C18.8573 23.1454 16.9743 22.5525 15.6284 22.0478L15.4528 22.516ZM21.1488 24.308L21.0161 24.7901C23.9471 25.5972 26.2877 26.3998 28.0468 27.1956L28.2528 26.74L28.4589 26.2845C26.634 25.4589 24.2386 24.6402 21.2816 23.826L21.1488 24.308ZM28.2528 26.74L28.0559 27.1996C29.7633 27.9313 31.2325 29.0913 32.4645 30.6929L32.8608 30.388L33.2572 30.0832C31.9291 28.3568 30.3264 27.0847 28.4498 26.2804L28.2528 26.74ZM32.8608 30.388L32.4684 30.6978C33.6572 32.2037 34.2808 34.2999 34.2808 37.044H34.7808H35.2808C35.2808 34.1561 34.6245 31.815 33.2533 30.0782L32.8608 30.388ZM34.7808 37.044H34.2808C34.2808 39.1267 33.7309 41.0861 32.6241 42.9308L33.0528 43.188L33.4816 43.4453C34.6788 41.4499 35.2808 39.3134 35.2808 37.044H34.7808ZM33.0528 43.188L32.6241 42.9308C31.5254 44.7619 29.8916 46.2597 27.6993 47.4179L27.9328 47.86L28.1664 48.3021C30.4967 47.071 32.2762 45.4542 33.4816 43.4453L33.0528 43.188ZM27.9328 47.86L27.6993 47.4179C25.5231 48.5676 22.9397 49.152 19.9328 49.152V49.652V50.152C23.07 50.152 25.82 49.5417 28.1664 48.3021L27.9328 47.86ZM67.9273 15.22L67.6897 15.66L67.6967 15.6636L67.9273 15.22ZM72.9193 20.276L72.4772 20.5096L72.4807 20.516L72.9193 20.276ZM74.7753 49.204V49.704H75.2753V49.204H74.7753ZM69.0153 49.204H68.5153V49.704H69.0153V49.204ZM66.3913 21.364L66.0255 21.7049L66.0295 21.709L66.3913 21.364ZM51.8633 21.428L51.5018 21.0826L51.4978 21.0868L51.8633 21.428ZM49.1753 49.204V49.704H49.6753V49.204H49.1753ZM43.3513 49.204H42.8513V49.704H43.3513V49.204ZM43.3513 1.84401V1.34401H42.8513V1.84401H43.3513ZM49.1753 1.84401H49.6753V1.34401H49.1753V1.84401ZM49.1753 19.124H48.6753V20.8264L49.5959 19.3944L49.1753 19.124ZM53.9113 14.964L53.6953 14.5131L53.6916 14.5149L53.9113 14.964ZM60.7593 13.492V13.992C63.3295 13.992 65.6359 14.5509 67.6898 15.66L67.9273 15.22L68.1649 14.7801C65.9521 13.5851 63.4799 12.992 60.7593 12.992V13.492ZM67.9273 15.22L67.6967 15.6636C69.7339 16.723 71.3269 18.3321 72.4772 20.5096L72.9193 20.276L73.3614 20.0424C72.1225 17.6973 70.3874 15.9357 68.158 14.7764L67.9273 15.22ZM72.9193 20.276L72.4807 20.516C73.6687 22.6871 74.2753 25.352 74.2753 28.532H74.7753H75.2753C75.2753 25.2267 74.6447 22.3875 73.358 20.036L72.9193 20.276ZM74.7753 28.532H74.2753V49.204H74.7753H75.2753V28.532H74.7753ZM74.7753 49.204V48.704H69.0153V49.204V49.704H74.7753V49.204ZM69.0153 49.204H69.5153V29.364H69.0153H68.5153V49.204H69.0153ZM69.0153 29.364H69.5153C69.5153 25.7863 68.6203 22.9771 66.7532 21.019L66.3913 21.364L66.0295 21.709C67.661 23.4202 68.5153 25.9444 68.5153 29.364H69.0153ZM66.3913 21.364L66.7571 21.0231C64.8961 19.026 62.3642 18.048 59.2233 18.048V18.548V19.048C62.1412 19.048 64.3879 19.9474 66.0255 21.7049L66.3913 21.364ZM59.2233 18.548V18.048C56.0381 18.048 53.4458 19.0482 51.5018 21.0826L51.8633 21.428L52.2248 21.7734C53.9502 19.9679 56.2645 19.048 59.2233 19.048V18.548ZM51.8633 21.428L51.4978 21.0868C49.5902 23.1307 48.6753 26.0666 48.6753 29.812H49.1753H49.6753C49.6753 26.2188 50.5525 23.5653 52.2289 21.7692L51.8633 21.428ZM49.1753 29.812H48.6753V49.204H49.1753H49.6753V29.812H49.1753ZM49.1753 49.204V48.704H43.3513V49.204V49.704H49.1753V49.204ZM43.3513 49.204H43.8513V1.84401H43.3513H42.8513V49.204H43.3513ZM43.3513 1.84401V2.34401H49.1753V1.84401V1.34401H43.3513V1.84401ZM49.1753 1.84401H48.6753V19.124H49.1753H49.6753V1.84401H49.1753ZM49.1753 19.124L49.5959 19.3944C50.6961 17.6829 52.2037 16.3563 54.1311 15.4131L53.9113 14.964L53.6916 14.5149C51.6083 15.5343 49.9585 16.9811 48.7548 18.8536L49.1753 19.124ZM53.9113 14.964L54.1274 15.4149C56.1009 14.4693 58.3086 13.992 60.7593 13.992V13.492V12.992C58.1754 12.992 55.8177 13.4961 53.6953 14.5131L53.9113 14.964ZM90.6248 47.54L90.379 47.9754L90.382 47.9771L90.6248 47.54ZM84.3528 41.204L83.9125 41.4411L83.9171 41.4491L84.3528 41.204ZM84.4168 22.132L83.9823 21.8847L83.981 21.8869L84.4168 22.132ZM90.8168 15.796L91.0543 16.2361L91.0597 16.2331L90.8168 15.796ZM108.865 15.796L108.622 16.2331L108.627 16.236L108.865 15.796ZM115.201 22.068L114.765 22.3132L114.768 22.3183L115.201 22.068ZM115.137 41.204L114.705 40.9517L114.704 40.9538L115.137 41.204ZM108.673 47.54L108.913 47.9787V47.9787L108.673 47.54ZM109.889 38.772L109.458 38.5189L109.454 38.526L109.889 38.772ZM105.601 20.084L105.361 20.5226L105.369 20.5269L105.601 20.084ZM93.8888 20.084L94.1253 20.5246L94.129 20.5226L93.8888 20.084ZM89.6648 24.436L90.1042 24.6748V24.6748L89.6648 24.436ZM89.6008 38.836L89.1575 39.0673L89.1615 39.0748L89.6008 38.836ZM93.8248 43.252L93.5802 43.6882L93.5884 43.6926L93.8248 43.252ZM99.5848 49.78V49.28C96.3785 49.28 93.4763 48.5522 90.8677 47.1029L90.6248 47.54L90.382 47.9771C93.1494 49.5145 96.2205 50.28 99.5848 50.28V49.78ZM90.6248 47.54L90.8706 47.1046C88.3074 45.6576 86.2813 43.6126 84.7886 40.9589L84.3528 41.204L83.9171 41.4491C85.4963 44.2568 87.6516 46.4357 90.379 47.9754L90.6248 47.54ZM84.3528 41.204L84.7931 40.967C83.3446 38.2768 82.6128 35.1606 82.6128 31.604H82.1128H81.6128C81.6128 35.3008 82.3745 38.5845 83.9126 41.4411L84.3528 41.204ZM82.1128 31.604H82.6128C82.6128 28.0934 83.3645 25.0228 84.8526 22.3771L84.4168 22.132L83.981 21.8869C82.3972 24.7026 81.6128 27.9467 81.6128 31.604H82.1128ZM84.4168 22.132L84.8514 22.3794C86.3859 19.6836 88.4525 17.6402 91.0543 16.236L90.8168 15.796L90.5794 15.356C87.8051 16.8532 85.6051 19.0337 83.9823 21.8847L84.4168 22.132ZM90.8168 15.796L91.0597 16.2331C93.6673 14.7844 96.5906 14.056 99.8408 14.056V13.556V13.056C96.4351 13.056 93.3423 13.821 90.574 15.3589L90.8168 15.796ZM99.8408 13.556V14.056C103.091 14.056 106.014 14.7844 108.622 16.2331L108.865 15.796L109.108 15.3589C106.339 13.821 103.247 13.056 99.8408 13.056V13.556ZM108.865 15.796L108.627 16.236C111.23 17.6406 113.274 19.6626 114.765 22.3131L115.201 22.068L115.637 21.8229C114.056 19.012 111.876 16.8528 109.102 15.356L108.865 15.796ZM115.201 22.068L114.768 22.3183C116.296 24.9621 117.069 28.0519 117.069 31.604H117.569H118.069C118.069 27.9028 117.263 24.6353 115.634 21.8178L115.201 22.068ZM117.569 31.604H117.069C117.069 35.1537 116.276 38.2644 114.705 40.9517L115.137 41.204L115.568 41.4564C117.24 38.597 118.069 35.3077 118.069 31.604H117.569ZM115.137 41.204L114.704 40.9538C113.171 43.6062 111.082 45.6526 108.433 47.1013L108.673 47.54L108.913 47.9787C111.725 46.4408 113.946 44.2631 115.57 41.4543L115.137 41.204ZM108.673 47.54L108.433 47.1013C105.781 48.5517 102.835 49.28 99.5848 49.28V49.78V50.28C102.991 50.28 106.103 49.515 108.913 47.9787L108.673 47.54ZM99.5848 44.66V45.16C101.757 45.16 103.801 44.6492 105.709 43.6289L105.473 43.188L105.237 42.7471C103.475 43.6895 101.594 44.16 99.5848 44.16V44.66ZM105.473 43.188L105.709 43.6289C107.634 42.5991 109.172 41.0561 110.324 39.018L109.889 38.772L109.454 38.526C108.387 40.4133 106.981 41.8142 105.237 42.7471L105.473 43.188ZM109.889 38.772L110.32 39.0251C111.527 36.9694 112.117 34.488 112.117 31.604H111.617H111.117C111.117 34.352 110.555 36.6492 109.458 38.5189L109.889 38.772ZM111.617 31.604H112.117C112.117 28.723 111.549 26.2442 110.388 24.19L109.953 24.436L109.518 24.682C110.575 26.5531 111.117 28.853 111.117 31.604H111.617ZM109.953 24.436L110.388 24.19C109.237 22.1534 107.72 20.6295 105.833 19.6411L105.601 20.084L105.369 20.5269C107.066 21.4159 108.45 22.7933 109.518 24.682L109.953 24.436ZM105.601 20.084L105.841 19.6455C103.974 18.6228 101.949 18.112 99.7768 18.112V18.612V19.112C101.786 19.112 103.644 19.5825 105.361 20.5226L105.601 20.084ZM99.7768 18.612V18.112C97.5634 18.112 95.5176 18.622 93.6487 19.6455L93.8888 20.084L94.129 20.5226C95.8441 19.5834 97.7236 19.112 99.7768 19.112V18.612ZM93.8888 20.084L93.6524 19.6434C91.8068 20.6338 90.3327 22.16 89.2255 24.1973L89.6648 24.436L90.1042 24.6748C91.1303 22.7866 92.4722 21.4116 94.1253 20.5246L93.8888 20.084ZM89.6648 24.436L89.2255 24.1973C88.11 26.2499 87.5648 28.7259 87.5648 31.604H88.0648H88.5648C88.5648 28.8501 89.0864 26.5475 90.1042 24.6748L89.6648 24.436ZM88.0648 31.604H87.5648C87.5648 34.5205 88.087 37.0155 89.1575 39.0673L89.6008 38.836L90.0441 38.6047C89.0667 36.7312 88.5648 34.4049 88.5648 31.604H88.0648ZM89.6008 38.836L89.1615 39.0748C90.2679 41.1105 91.7395 42.6555 93.5802 43.6881L93.8248 43.252L94.0695 42.8159C92.4115 41.8858 91.0671 40.4868 90.0402 38.5973L89.6008 38.836ZM93.8248 43.252L93.5884 43.6926C95.4143 44.6723 97.4162 45.16 99.5848 45.16V44.66V44.16C97.5721 44.16 95.734 43.709 94.0612 42.8114L93.8248 43.252ZM131.05 20.596H130.55V22.4701L131.484 20.8451L131.05 20.596ZM136.17 15.604L136.423 16.0356L136.425 16.0342L136.17 15.604ZM152.618 15.796L152.363 16.226L152.366 16.2279L152.618 15.796ZM158.634 22.132L158.193 22.3666L158.194 22.3695L158.634 22.132ZM158.634 41.012L159.077 41.2438V41.2438L158.634 41.012ZM152.618 47.476L152.361 47.0472L152.358 47.0492L152.618 47.476ZM136.234 47.796L135.976 48.2241L135.985 48.2296L136.234 47.796ZM131.05 42.74L131.48 42.4841L130.55 40.9238V42.74H131.05ZM131.05 65.844V66.344H131.55V65.844H131.05ZM125.226 65.844H124.726V66.344H125.226V65.844ZM125.226 14.132V13.632H124.726V14.132H125.226ZM131.05 14.132H131.55V13.632H131.05V14.132ZM153.258 24.628L153.698 24.3893V24.3893L153.258 24.628ZM148.906 20.148L148.658 20.5822L148.663 20.5846L148.906 20.148ZM137.002 20.212L137.25 20.6461L137.254 20.6443L137.002 20.212ZM132.65 24.756L132.213 24.514L132.211 24.5173L132.65 24.756ZM132.65 38.58L132.209 38.8149L132.215 38.826L132.65 38.58ZM137.002 43.124L136.747 43.5538L136.759 43.5606L137.002 43.124ZM148.906 43.124L149.154 43.5581L149.158 43.5563L148.906 43.124ZM153.258 38.58L153.698 38.8188L153.7 38.8148L153.258 38.58ZM131.05 20.596L131.484 20.8451C132.587 18.9249 134.227 17.3202 136.423 16.0356L136.17 15.604L135.918 15.1724C133.591 16.5331 131.818 18.2564 130.617 20.3469L131.05 20.596ZM136.17 15.604L136.425 16.0342C138.642 14.7203 141.219 14.056 144.17 14.056V13.556V13.056C141.063 13.056 138.306 13.757 135.915 15.1739L136.17 15.604ZM144.17 13.556V14.056C147.201 14.056 149.928 14.7815 152.363 16.226L152.618 15.796L152.873 15.366C150.274 13.8239 147.369 13.056 144.17 13.056V13.556ZM152.618 15.796L152.366 16.2279C154.842 17.6723 156.784 19.7143 158.193 22.3666L158.634 22.132L159.076 21.8974C157.584 19.0884 155.514 16.9064 152.87 15.3641L152.618 15.796ZM158.634 22.132L158.194 22.3695C159.599 24.9728 160.31 28.0245 160.31 31.54H160.81H161.31C161.31 27.8875 160.571 24.6672 159.074 21.8945L158.634 22.132ZM160.81 31.54H160.31C160.31 35.0114 159.6 38.0874 158.191 40.7803L158.634 41.012L159.077 41.2438C160.57 38.39 161.31 35.1513 161.31 31.54H160.81ZM158.634 41.012L158.191 40.7803C156.781 43.4762 154.838 45.5609 152.361 47.0473L152.618 47.476L152.876 47.9048C155.518 46.3191 157.586 44.0945 159.077 41.2438L158.634 41.012ZM152.618 47.476L152.358 47.0492C149.923 48.5346 147.199 49.28 144.17 49.28V49.78V50.28C147.372 50.28 150.279 49.4894 152.879 47.9028L152.618 47.476ZM144.17 49.78V49.28C141.26 49.28 138.702 48.6364 136.483 47.3624L136.234 47.796L135.985 48.2296C138.374 49.601 141.107 50.28 144.17 50.28V49.78ZM136.234 47.796L136.493 47.368C134.292 46.0394 132.627 44.41 131.48 42.4841L131.05 42.74L130.621 42.9959C131.863 45.0806 133.654 46.8219 135.976 48.224L136.234 47.796ZM131.05 42.74H130.55V65.844H131.05H131.55V42.74H131.05ZM131.05 65.844V65.344H125.226V65.844V66.344H131.05V65.844ZM125.226 65.844H125.726V14.132H125.226H124.726V65.844H125.226ZM125.226 14.132V14.632H131.05V14.132V13.632H125.226V14.132ZM131.05 14.132H130.55V20.596H131.05H131.55V14.132H131.05ZM154.858 31.54H155.358C155.358 28.8266 154.811 26.4376 153.698 24.3893L153.258 24.628L152.819 24.8668C153.839 26.7437 154.358 28.9627 154.358 31.54H154.858ZM153.258 24.628L153.698 24.3893C152.589 22.3489 151.073 20.7845 149.15 19.7114L148.906 20.148L148.663 20.5846C150.409 21.5595 151.795 22.9817 152.819 24.8668L153.258 24.628ZM148.906 20.148L149.154 19.7139C147.283 18.6443 145.212 18.112 142.954 18.112V18.612V19.112C145.048 19.112 146.946 19.6037 148.658 20.5821L148.906 20.148ZM142.954 18.612V18.112C140.733 18.112 138.662 18.6685 136.751 19.7798L137.002 20.212L137.254 20.6443C139.012 19.6222 140.909 19.112 142.954 19.112V18.612ZM137.002 20.212L136.754 19.7779C134.874 20.8522 133.361 22.4376 132.213 24.514L132.65 24.756L133.088 24.998C134.158 23.0638 135.547 21.6198 137.25 20.6461L137.002 20.212ZM132.65 24.756L132.211 24.5173C131.098 26.5645 130.55 28.9318 130.55 31.604H131.05H131.55C131.55 29.0709 132.069 26.8729 133.09 24.9948L132.65 24.756ZM131.05 31.604H130.55C130.55 34.3177 131.098 36.7261 132.209 38.8148L132.65 38.58L133.092 38.3452C132.069 36.4232 131.55 34.181 131.55 31.604H131.05ZM132.65 38.58L132.215 38.826C133.364 40.8582 134.874 42.4389 136.747 43.5537L137.002 43.124L137.258 42.6944C135.547 41.6758 134.156 40.2272 133.086 38.334L132.65 38.58ZM137.002 43.124L136.759 43.5606C138.669 44.6268 140.737 45.16 142.954 45.16V44.66V44.16C140.905 44.16 139.005 43.6692 137.246 42.6874L137.002 43.124ZM142.954 44.66V45.16C145.212 45.16 147.283 44.6277 149.154 43.5581L148.906 43.124L148.658 42.6899C146.946 43.6684 145.048 44.16 142.954 44.16V44.66ZM148.906 43.124L149.158 43.5563C151.076 42.4411 152.59 40.8575 153.698 38.8188L153.258 38.58L152.819 38.3413C151.794 40.2278 150.406 41.6736 148.655 42.6918L148.906 43.124ZM153.258 38.58L153.7 38.8148C154.811 36.725 155.358 34.2949 155.358 31.54H154.858H154.358C154.358 34.1611 153.839 36.4243 152.817 38.3452L153.258 38.58ZM168.668 7.28401L169.022 6.93045V6.93045L168.668 7.28401ZM168.668 1.65201L169.022 2.00556V2.00556L168.668 1.65201ZM174.172 1.65201L173.809 1.99532L173.814 2.00051L173.819 2.00556L174.172 1.65201ZM174.172 7.28401L173.819 6.93045L173.814 6.9355L173.809 6.9407L174.172 7.28401ZM174.3 14.132H174.8V13.632H174.3V14.132ZM174.3 49.204V49.704H174.8V49.204H174.3ZM168.476 49.204H167.976V49.704H168.476V49.204ZM168.476 14.132V13.632H167.976V14.132H168.476ZM171.484 8.43601V7.93601C170.504 7.93601 169.694 7.60246 169.022 6.93045L168.668 7.28401L168.315 7.63756C169.179 8.50155 170.246 8.93601 171.484 8.93601V8.43601ZM168.668 7.28401L169.022 6.93045C168.35 6.25845 168.016 5.44791 168.016 4.46801H167.516H167.016C167.016 5.70677 167.451 6.77357 168.315 7.63756L168.668 7.28401ZM167.516 4.46801H168.016C168.016 3.48811 168.35 2.67757 169.022 2.00556L168.668 1.65201L168.315 1.29845C167.451 2.16245 167.016 3.22924 167.016 4.46801H167.516ZM168.668 1.65201L169.022 2.00556C169.694 1.33355 170.504 1.00001 171.484 1.00001V0.500008V7.62939e-06C170.246 7.62939e-06 169.179 0.434464 168.315 1.29845L168.668 1.65201ZM171.484 0.500008V1.00001C172.415 1.00001 173.179 1.32843 173.809 1.99532L174.172 1.65201L174.536 1.3087C173.715 0.439587 172.687 7.62939e-06 171.484 7.62939e-06V0.500008ZM174.172 1.65201L173.819 2.00556C174.491 2.67757 174.824 3.48811 174.824 4.46801H175.324H175.824C175.824 3.22924 175.39 2.16245 174.526 1.29845L174.172 1.65201ZM175.324 4.46801H174.824C174.824 5.44791 174.491 6.25845 173.819 6.93045L174.172 7.28401L174.526 7.63756C175.39 6.77357 175.824 5.70677 175.824 4.46801H175.324ZM174.172 7.28401L173.809 6.9407C173.179 7.60759 172.415 7.93601 171.484 7.93601V8.43601V8.93601C172.687 8.93601 173.715 8.49643 174.536 7.62732L174.172 7.28401ZM174.3 14.132H173.8V49.204H174.3H174.8V14.132H174.3ZM174.3 49.204V48.704H168.476V49.204V49.704H174.3V49.204ZM168.476 49.204H168.976V14.132H168.476H167.976V49.204H168.476ZM168.476 14.132V14.632H174.3V14.132V13.632H168.476V14.132ZM197.282 43.828L196.813 44.0009L197.284 45.2777L197.752 44L197.282 43.828ZM208.162 14.132V13.632H207.813L207.693 13.96L208.162 14.132ZM214.37 14.132L214.836 14.3146L215.104 13.632H214.37V14.132ZM200.61 49.204V49.704H200.951L201.076 49.3866L200.61 49.204ZM193.826 49.204L193.361 49.3866L193.485 49.704H193.826V49.204ZM180.066 14.132V13.632H179.333L179.601 14.3146L180.066 14.132ZM186.338 14.132L186.807 13.9591L186.687 13.632H186.338V14.132ZM197.282 43.828L197.752 44L208.632 14.304L208.162 14.132L207.693 13.96L196.813 43.656L197.282 43.828ZM208.162 14.132V14.632H214.37V14.132V13.632H208.162V14.132ZM214.37 14.132L213.905 13.9494L200.145 49.0214L200.61 49.204L201.076 49.3866L214.836 14.3146L214.37 14.132ZM200.61 49.204V48.704H193.826V49.204V49.704H200.61V49.204ZM193.826 49.204L194.292 49.0214L180.532 13.9494L180.066 14.132L179.601 14.3146L193.361 49.3866L193.826 49.204ZM180.066 14.132V14.632H186.338V14.132V13.632H180.066V14.132ZM186.338 14.132L185.869 14.3049L196.813 44.0009L197.282 43.828L197.751 43.6551L186.807 13.9591L186.338 14.132ZM220.293 7.28401L220.647 6.93045V6.93045L220.293 7.28401ZM220.293 1.65201L220.647 2.00556V2.00556L220.293 1.65201ZM225.797 1.65201L225.434 1.99532L225.439 2.00051L225.444 2.00556L225.797 1.65201ZM225.797 7.28401L225.444 6.93045L225.439 6.9355L225.434 6.9407L225.797 7.28401ZM225.925 14.132H226.425V13.632H225.925V14.132ZM225.925 49.204V49.704H226.425V49.204H225.925ZM220.101 49.204H219.601V49.704H220.101V49.204ZM220.101 14.132V13.632H219.601V14.132H220.101ZM223.109 8.43601V7.93601C222.129 7.93601 221.319 7.60246 220.647 6.93045L220.293 7.28401L219.94 7.63756C220.804 8.50155 221.871 8.93601 223.109 8.93601V8.43601ZM220.293 7.28401L220.647 6.93045C219.975 6.25845 219.641 5.44791 219.641 4.46801H219.141H218.641C218.641 5.70677 219.076 6.77357 219.94 7.63756L220.293 7.28401ZM219.141 4.46801H219.641C219.641 3.48811 219.975 2.67757 220.647 2.00556L220.293 1.65201L219.94 1.29845C219.076 2.16245 218.641 3.22924 218.641 4.46801H219.141ZM220.293 1.65201L220.647 2.00556C221.319 1.33355 222.129 1.00001 223.109 1.00001V0.500008V7.62939e-06C221.871 7.62939e-06 220.804 0.434464 219.94 1.29845L220.293 1.65201ZM223.109 0.500008V1.00001C224.04 1.00001 224.804 1.32843 225.434 1.99532L225.797 1.65201L226.161 1.3087C225.34 0.439587 224.312 7.62939e-06 223.109 7.62939e-06V0.500008ZM225.797 1.65201L225.444 2.00556C226.116 2.67757 226.449 3.48811 226.449 4.46801H226.949H227.449C227.449 3.22924 227.015 2.16245 226.151 1.29845L225.797 1.65201ZM226.949 4.46801H226.449C226.449 5.44791 226.116 6.25845 225.444 6.93045L225.797 7.28401L226.151 7.63756C227.015 6.77357 227.449 5.70677 227.449 4.46801H226.949ZM225.797 7.28401L225.434 6.9407C224.804 7.60759 224.04 7.93601 223.109 7.93601V8.43601V8.93601C224.312 8.93601 225.34 8.49643 226.161 7.62732L225.797 7.28401ZM225.925 14.132H225.425V49.204H225.925H226.425V14.132H225.925ZM225.925 49.204V48.704H220.101V49.204V49.704H225.925V49.204ZM220.101 49.204H220.601V14.132H220.101H219.601V49.204H220.101ZM220.101 14.132V14.632H225.925V14.132V13.632H220.101V14.132ZM235.851 22.132L236.291 22.3695L236.293 22.3666L235.851 22.132ZM241.803 15.796L241.551 15.3641L241.548 15.366L241.803 15.796ZM258.315 15.54L258.063 15.9716V15.9716L258.315 15.54ZM263.371 20.532L262.934 20.774L263.871 20.532H263.371ZM263.371 14.132V13.632H262.871V14.132H263.371ZM269.259 14.132H269.759V13.632H269.259V14.132ZM269.259 49.204V49.704H269.759V49.204H269.259ZM263.371 49.204H262.871V49.704H263.371V49.204ZM263.371 42.676H263.871V40.7673L262.936 42.4309L263.371 42.676ZM258.187 47.796L258.44 48.2276L258.442 48.2262L258.187 47.796ZM241.803 47.476L241.543 47.9028V47.9028L241.803 47.476ZM235.851 41.012L236.294 40.7803V40.7803L235.851 41.012ZM257.419 20.212L257.164 20.6418L257.176 20.6486L257.419 20.212ZM245.515 20.148L245.267 19.7139V19.7139L245.515 20.148ZM241.227 24.628L241.667 24.8668V24.8668L241.227 24.628ZM241.227 38.58L240.786 38.8148L240.788 38.8188L241.227 38.58ZM245.515 43.124L245.26 43.5537L245.267 43.5581L245.515 43.124ZM257.419 43.124L257.667 43.5581L257.671 43.5563L257.419 43.124ZM261.771 38.58L262.211 38.8188L262.213 38.8148L261.771 38.58ZM233.675 31.54H234.175C234.175 28.0245 234.886 24.9728 236.291 22.3695L235.851 22.132L235.411 21.8945C233.915 24.6672 233.175 27.8875 233.175 31.54H233.675ZM235.851 22.132L236.293 22.3666C237.703 19.7122 239.625 17.6699 242.058 16.226L241.803 15.796L241.548 15.366C238.947 16.9088 236.901 19.0905 235.41 21.8974L235.851 22.132ZM241.803 15.796L242.055 16.2279C244.535 14.7815 247.285 14.056 250.315 14.056V13.556V13.056C247.117 13.056 244.192 13.8239 241.551 15.3641L241.803 15.796ZM250.315 13.556V14.056C253.314 14.056 255.89 14.7009 258.063 15.9716L258.315 15.54L258.568 15.1084C256.218 13.7337 253.461 13.056 250.315 13.056V13.556ZM258.315 15.54L258.063 15.9716C260.258 17.2555 261.874 18.8581 262.934 20.774L263.371 20.532L263.809 20.29C262.65 18.1952 260.895 16.4699 258.568 15.1084L258.315 15.54ZM263.371 20.532H263.871V14.132H263.371H262.871V20.532H263.371ZM263.371 14.132V14.632H269.259V14.132V13.632H263.371V14.132ZM269.259 14.132H268.759V49.204H269.259H269.759V14.132H269.259ZM269.259 49.204V48.704H263.371V49.204V49.704H269.259V49.204ZM263.371 49.204H263.871V42.676H263.371H262.871V49.204H263.371ZM263.371 42.676L262.936 42.4309C261.832 44.3922 260.172 46.0389 257.932 47.3659L258.187 47.796L258.442 48.2262C260.811 46.8224 262.606 45.0558 263.807 42.9211L263.371 42.676ZM258.187 47.796L257.935 47.3644C255.761 48.6357 253.206 49.28 250.251 49.28V49.78V50.28C253.355 50.28 256.091 49.6017 258.44 48.2276L258.187 47.796ZM250.251 49.78V49.28C247.223 49.28 244.498 48.5346 242.064 47.0492L241.803 47.476L241.543 47.9028C244.143 49.4894 247.05 50.28 250.251 50.28V49.78ZM241.803 47.476L242.064 47.0492C239.629 45.5634 237.706 43.4783 236.294 40.7803L235.851 41.012L235.408 41.2438C236.898 44.0923 238.943 46.3167 241.543 47.9028L241.803 47.476ZM235.851 41.012L236.294 40.7803C234.886 38.0874 234.175 35.0114 234.175 31.54H233.675H233.175C233.175 35.1513 233.916 38.39 235.408 41.2438L235.851 41.012ZM263.371 31.604H263.871C263.871 28.8906 263.324 26.5016 262.211 24.4533L261.771 24.692L261.332 24.9308C262.352 26.8077 262.871 29.0267 262.871 31.604H263.371ZM261.771 24.692L262.211 24.4533C261.102 22.4129 259.586 20.8485 257.663 19.7754L257.419 20.212L257.176 20.6486C258.922 21.6235 260.308 23.0457 261.332 24.9308L261.771 24.692ZM257.419 20.212L257.675 19.7824C255.802 18.6676 253.729 18.112 251.467 18.112V18.612V19.112C253.557 19.112 255.452 19.6231 257.164 20.6417L257.419 20.212ZM251.467 18.612V18.112C249.209 18.112 247.139 18.6443 245.267 19.7139L245.515 20.148L245.763 20.5821C247.476 19.6037 249.373 19.112 251.467 19.112V18.612ZM245.515 20.148L245.267 19.7139C243.388 20.7878 241.895 22.3519 240.788 24.3893L241.227 24.628L241.667 24.8668C242.693 22.9787 244.059 21.5563 245.763 20.5821L245.515 20.148ZM241.227 24.628L240.788 24.3893C239.675 26.4376 239.127 28.8266 239.127 31.54H239.627H240.127C240.127 28.9627 240.647 26.7437 241.667 24.8668L241.227 24.628ZM239.627 31.54H239.127C239.127 34.2949 239.674 36.725 240.786 38.8148L241.227 38.58L241.669 38.3452C240.647 36.4243 240.127 34.1611 240.127 31.54H239.627ZM241.227 38.58L240.788 38.8188C241.894 40.8546 243.385 42.4377 245.26 43.5537L245.515 43.124L245.771 42.6944C244.062 41.6769 242.694 40.2308 241.667 38.3413L241.227 38.58ZM245.515 43.124L245.267 43.5581C247.139 44.6277 249.209 45.16 251.467 45.16V44.66V44.16C249.373 44.16 247.476 43.6684 245.763 42.6899L245.515 43.124ZM251.467 44.66V45.16C253.725 45.16 255.796 44.6277 257.667 43.5581L257.419 43.124L257.171 42.6899C255.459 43.6684 253.561 44.16 251.467 44.16V44.66ZM257.419 43.124L257.671 43.5563C259.589 42.4411 261.103 40.8575 262.211 38.8188L261.771 38.58L261.332 38.3413C260.307 40.2278 258.919 41.6736 257.168 42.6918L257.419 43.124ZM261.771 38.58L262.213 38.8148C263.324 36.7261 263.871 34.3177 263.871 31.604H263.371H262.871C262.871 34.181 262.352 36.4232 261.33 38.3452L261.771 38.58Z" fill="white"/>
<path d="M11.9968 48.116L11.7867 48.5699L11.7969 48.5743L11.9968 48.116ZM6.55684 43.764L6.14807 44.052L6.15125 44.0564L6.55684 43.764ZM4.50884 37.3V36.8H3.99999L4.00892 37.3088L4.50884 37.3ZM10.7168 37.3L11.2143 37.2493L11.1684 36.8H10.7168V37.3ZM13.2768 42.612L12.9284 42.9706L12.9336 42.9757L12.939 42.9806L13.2768 42.612ZM26.4608 42.676L26.7879 43.0542L26.7887 43.0535L26.4608 42.676ZM27.4848 33.14L27.1095 33.4703V33.4703L27.4848 33.14ZM23.9648 30.708L23.7816 31.1732V31.1732L23.9648 30.708ZM18.2688 28.916L18.3982 28.433L18.3951 28.4322L18.2688 28.916ZM11.1648 26.612L10.9638 27.0698L10.9679 27.0716L11.1648 26.612ZM6.62084 23.028L6.21961 23.3264L6.22392 23.3322L6.2284 23.3378L6.62084 23.028ZM6.62084 9.90801L7.03832 10.1832V10.1832L6.62084 9.90801ZM11.8048 5.55601L11.5986 5.10052L11.5953 5.10203L11.8048 5.55601ZM29.7888 7.15601L29.4788 7.5483L29.4819 7.55069L29.7888 7.15601ZM34.3328 15.476V15.976H34.8847L34.8304 15.4269L34.3328 15.476ZM27.9328 15.476L27.4367 15.538L27.4914 15.976H27.9328V15.476ZM25.2448 10.996L24.9237 11.3793L24.9299 11.3844L25.2448 10.996ZM13.0208 10.932L13.3345 11.3214L13.3409 11.3161L13.0208 10.932ZM12.0608 20.148L11.6845 20.4773L11.6923 20.4859L12.0608 20.148ZM15.4528 22.516L15.2595 22.9771L15.2683 22.9808L15.2773 22.9842L15.4528 22.516ZM21.1488 24.308L21.0137 24.7894L21.0161 24.7901L21.1488 24.308ZM28.2528 26.74L28.0467 27.1957L28.0559 27.1996L28.2528 26.74ZM32.8608 30.388L32.4645 30.6929L32.4684 30.6978L32.8608 30.388ZM33.0528 43.188L33.4816 43.4453V43.4453L33.0528 43.188ZM27.9328 47.86L27.6993 47.4179L27.9328 47.86ZM19.9328 49.652V49.152C17.0474 49.152 14.4716 48.6504 12.1968 47.6577L11.9968 48.116L11.7969 48.5743C14.2154 49.6296 16.9303 50.152 19.9328 50.152V49.652ZM11.9968 48.116L12.2069 47.6623C9.97112 46.6272 8.22894 45.2284 6.96243 43.4716L6.55684 43.764L6.15125 44.0564C7.53008 45.969 9.41456 47.4715 11.7868 48.5697L11.9968 48.116ZM6.55684 43.764L6.96558 43.476C5.70407 41.6855 5.04978 39.6294 5.00876 37.2912L4.50884 37.3L4.00892 37.3088C4.05323 39.8346 4.76428 42.0878 6.1481 44.052L6.55684 43.764ZM4.50884 37.3V37.8H10.7168V37.3V36.8H4.50884V37.3ZM10.7168 37.3L10.2194 37.3508C10.4446 39.5572 11.3499 41.4372 12.9284 42.9706L13.2768 42.612L13.6252 42.2534C12.2171 40.8855 11.4158 39.2242 11.2143 37.2493L10.7168 37.3ZM13.2768 42.612L12.939 42.9806C14.598 44.5014 16.9557 45.224 19.9328 45.224V44.724V44.224C17.1073 44.224 15.0277 43.5387 13.6147 42.2434L13.2768 42.612ZM19.9328 44.724V45.224C22.7863 45.224 25.0921 44.5208 26.7879 43.0542L26.4608 42.676L26.1338 42.2978C24.6722 43.5619 22.626 44.224 19.9328 44.224V44.724ZM26.4608 42.676L26.7887 43.0535C28.521 41.5491 29.3928 39.6186 29.3928 37.3H28.8928H28.3928C28.3928 39.3334 27.6433 40.9869 26.133 42.2985L26.4608 42.676ZM28.8928 37.3H29.3928C29.3928 35.4974 28.8947 33.9852 27.8602 32.8097L27.4848 33.14L27.1095 33.4703C27.9523 34.4281 28.3928 35.6893 28.3928 37.3H28.8928ZM27.4848 33.14L27.8602 32.8097C26.8657 31.6796 25.625 30.8246 24.1481 30.2428L23.9648 30.708L23.7816 31.1732C25.1207 31.7007 26.2266 32.4671 27.1095 33.4703L27.4848 33.14ZM23.9648 30.708L24.1481 30.2428C22.715 29.6783 20.7959 29.0753 18.3982 28.433L18.2688 28.916L18.1395 29.399C20.5204 30.0367 22.3987 30.6284 23.7816 31.1732L23.9648 30.708ZM18.2688 28.916L18.3951 28.4322C15.4634 27.6674 13.1219 26.9068 11.3618 26.1524L11.1648 26.612L10.9679 27.0716C12.7918 27.8533 15.1863 28.6286 18.1426 29.3998L18.2688 28.916ZM11.1648 26.612L11.3658 26.1542C9.69748 25.4217 8.24677 24.2806 7.01328 22.7182L6.62084 23.028L6.2284 23.3378C7.55491 25.0181 9.13354 26.2663 10.9638 27.0698L11.1648 26.612ZM6.62084 23.028L7.02207 22.7297C5.86743 21.1769 5.26484 19.0738 5.26484 16.372H4.76484H4.26484C4.26484 19.2169 4.89958 21.5512 6.21961 23.3264L6.62084 23.028ZM4.76484 16.372H5.26484C5.26484 14.0295 5.85923 11.9721 7.03832 10.1832L6.62084 9.90801L6.20336 9.63285C4.90778 11.5986 4.26484 13.8505 4.26484 16.372H4.76484ZM6.62084 9.90801L7.03832 10.1832C8.21993 8.39038 9.87271 6.99844 12.0144 6.00999L11.8048 5.55601L11.5953 5.10203C9.29964 6.16157 7.49642 7.67097 6.20336 9.63285L6.62084 9.90801ZM11.8048 5.55601L12.0111 6.01149C14.1976 5.02137 16.7067 4.52001 19.5488 4.52001V4.02001V3.52001C16.5883 3.52001 13.9348 4.04264 11.5986 5.10053L11.8048 5.55601ZM19.5488 4.02001V4.52001C23.6453 4.52001 26.9413 5.5428 29.4788 7.54829L29.7888 7.15601L30.0989 6.76373C27.3458 4.58788 23.815 3.52001 19.5488 3.52001V4.02001ZM29.7888 7.15601L29.4819 7.55069C32.0592 9.55531 33.5071 12.2025 33.8353 15.5252L34.3328 15.476L34.8304 15.4269C34.4759 11.8375 32.8944 8.93804 30.0958 6.76133L29.7888 7.15601ZM34.3328 15.476V14.976H27.9328V15.476V15.976H34.3328V15.476ZM27.9328 15.476L28.429 15.414C28.1968 13.5563 27.2192 11.9532 25.5597 10.6076L25.2448 10.996L24.9299 11.3844C26.4278 12.5989 27.2422 13.9823 27.4367 15.538L27.9328 15.476ZM25.2448 10.996L25.566 10.6128C23.8756 9.19651 21.6612 8.51201 18.9728 8.51201V9.01201V9.51201C21.4898 9.51201 23.4567 10.1502 24.9237 11.3793L25.2448 10.996ZM18.9728 9.01201V8.51201C16.4501 8.51201 14.3449 9.17776 12.7007 10.5479L13.0208 10.932L13.3409 11.3161C14.7688 10.1263 16.6315 9.51201 18.9728 9.51201V9.01201ZM13.0208 10.932L12.7072 10.5426C11.0352 11.8895 10.2168 13.7923 10.2168 16.18H10.7168H11.2168C11.2168 14.045 11.9345 12.4492 13.3345 11.3214L13.0208 10.932ZM10.7168 16.18H10.2168C10.2168 17.8981 10.6941 19.3453 11.6846 20.4773L12.0608 20.148L12.4371 19.8188C11.6356 18.9027 11.2168 17.7046 11.2168 16.18H10.7168ZM12.0608 20.148L11.6923 20.4859C12.6813 21.5649 13.8724 22.3954 15.2595 22.9771L15.4528 22.516L15.6462 22.0549C14.3879 21.5273 13.3177 20.7791 12.4294 19.8101L12.0608 20.148ZM15.4528 22.516L15.2773 22.9842C16.6621 23.5035 18.5764 24.1052 21.0137 24.7894L21.1488 24.308L21.284 23.8266C18.8573 23.1454 16.9743 22.5525 15.6284 22.0478L15.4528 22.516ZM21.1488 24.308L21.0161 24.7901C23.9471 25.5972 26.2877 26.3998 28.0468 27.1956L28.2528 26.74L28.4589 26.2845C26.634 25.4589 24.2386 24.6402 21.2816 23.826L21.1488 24.308ZM28.2528 26.74L28.0559 27.1996C29.7633 27.9313 31.2325 29.0913 32.4645 30.6929L32.8608 30.388L33.2572 30.0832C31.9291 28.3568 30.3264 27.0847 28.4498 26.2804L28.2528 26.74ZM32.8608 30.388L32.4684 30.6978C33.6572 32.2037 34.2808 34.2999 34.2808 37.044H34.7808H35.2808C35.2808 34.1561 34.6245 31.815 33.2533 30.0782L32.8608 30.388ZM34.7808 37.044H34.2808C34.2808 39.1267 33.7309 41.0861 32.6241 42.9308L33.0528 43.188L33.4816 43.4453C34.6788 41.4499 35.2808 39.3134 35.2808 37.044H34.7808ZM33.0528 43.188L32.6241 42.9308C31.5254 44.7619 29.8916 46.2597 27.6993 47.4179L27.9328 47.86L28.1664 48.3021C30.4967 47.071 32.2762 45.4542 33.4816 43.4453L33.0528 43.188ZM27.9328 47.86L27.6993 47.4179C25.5231 48.5676 22.9397 49.152 19.9328 49.152V49.652V50.152C23.07 50.152 25.82 49.5417 28.1664 48.3021L27.9328 47.86ZM67.9273 15.22L67.6897 15.66L67.6967 15.6636L67.9273 15.22ZM72.9193 20.276L72.4772 20.5096L72.4807 20.516L72.9193 20.276ZM74.7753 49.204V49.704H75.2753V49.204H74.7753ZM69.0153 49.204H68.5153V49.704H69.0153V49.204ZM66.3913 21.364L66.0255 21.7049L66.0295 21.709L66.3913 21.364ZM51.8633 21.428L51.5018 21.0826L51.4978 21.0868L51.8633 21.428ZM49.1753 49.204V49.704H49.6753V49.204H49.1753ZM43.3513 49.204H42.8513V49.704H43.3513V49.204ZM43.3513 1.84401V1.34401H42.8513V1.84401H43.3513ZM49.1753 1.84401H49.6753V1.34401H49.1753V1.84401ZM49.1753 19.124H48.6753V20.8264L49.5959 19.3944L49.1753 19.124ZM53.9113 14.964L53.6953 14.5131L53.6916 14.5149L53.9113 14.964ZM60.7593 13.492V13.992C63.3295 13.992 65.6359 14.5509 67.6898 15.66L67.9273 15.22L68.1649 14.7801C65.9521 13.5851 63.4799 12.992 60.7593 12.992V13.492ZM67.9273 15.22L67.6967 15.6636C69.7339 16.723 71.3269 18.3321 72.4772 20.5096L72.9193 20.276L73.3614 20.0424C72.1225 17.6973 70.3874 15.9357 68.158 14.7764L67.9273 15.22ZM72.9193 20.276L72.4807 20.516C73.6687 22.6871 74.2753 25.352 74.2753 28.532H74.7753H75.2753C75.2753 25.2267 74.6447 22.3875 73.358 20.036L72.9193 20.276ZM74.7753 28.532H74.2753V49.204H74.7753H75.2753V28.532H74.7753ZM74.7753 49.204V48.704H69.0153V49.204V49.704H74.7753V49.204ZM69.0153 49.204H69.5153V29.364H69.0153H68.5153V49.204H69.0153ZM69.0153 29.364H69.5153C69.5153 25.7863 68.6203 22.9771 66.7532 21.019L66.3913 21.364L66.0295 21.709C67.661 23.4202 68.5153 25.9444 68.5153 29.364H69.0153ZM66.3913 21.364L66.7571 21.0231C64.8961 19.026 62.3642 18.048 59.2233 18.048V18.548V19.048C62.1412 19.048 64.3879 19.9474 66.0255 21.7049L66.3913 21.364ZM59.2233 18.548V18.048C56.0381 18.048 53.4458 19.0482 51.5018 21.0826L51.8633 21.428L52.2248 21.7734C53.9502 19.9679 56.2645 19.048 59.2233 19.048V18.548ZM51.8633 21.428L51.4978 21.0868C49.5902 23.1307 48.6753 26.0666 48.6753 29.812H49.1753H49.6753C49.6753 26.2188 50.5525 23.5653 52.2289 21.7692L51.8633 21.428ZM49.1753 29.812H48.6753V49.204H49.1753H49.6753V29.812H49.1753ZM49.1753 49.204V48.704H43.3513V49.204V49.704H49.1753V49.204ZM43.3513 49.204H43.8513V1.84401H43.3513H42.8513V49.204H43.3513ZM43.3513 1.84401V2.34401H49.1753V1.84401V1.34401H43.3513V1.84401ZM49.1753 1.84401H48.6753V19.124H49.1753H49.6753V1.84401H49.1753ZM49.1753 19.124L49.5959 19.3944C50.6961 17.6829 52.2037 16.3563 54.1311 15.4131L53.9113 14.964L53.6916 14.5149C51.6083 15.5343 49.9585 16.9811 48.7548 18.8536L49.1753 19.124ZM53.9113 14.964L54.1274 15.4149C56.1009 14.4693 58.3086 13.992 60.7593 13.992V13.492V12.992C58.1754 12.992 55.8177 13.4961 53.6953 14.5131L53.9113 14.964ZM90.6248 47.54L90.379 47.9754L90.382 47.9771L90.6248 47.54ZM84.3528 41.204L83.9125 41.4411L83.9171 41.4491L84.3528 41.204ZM84.4168 22.132L83.9823 21.8847L83.981 21.8869L84.4168 22.132ZM90.8168 15.796L91.0543 16.2361L91.0597 16.2331L90.8168 15.796ZM108.865 15.796L108.622 16.2331L108.627 16.236L108.865 15.796ZM115.201 22.068L114.765 22.3132L114.768 22.3183L115.201 22.068ZM115.137 41.204L114.705 40.9517L114.704 40.9538L115.137 41.204ZM108.673 47.54L108.913 47.9787V47.9787L108.673 47.54ZM109.889 38.772L109.458 38.5189L109.454 38.526L109.889 38.772ZM105.601 20.084L105.361 20.5226L105.369 20.5269L105.601 20.084ZM93.8888 20.084L94.1253 20.5246L94.129 20.5226L93.8888 20.084ZM89.6648 24.436L90.1042 24.6748V24.6748L89.6648 24.436ZM89.6008 38.836L89.1575 39.0673L89.1615 39.0748L89.6008 38.836ZM93.8248 43.252L93.5802 43.6882L93.5884 43.6926L93.8248 43.252ZM99.5848 49.78V49.28C96.3785 49.28 93.4763 48.5522 90.8677 47.1029L90.6248 47.54L90.382 47.9771C93.1494 49.5145 96.2205 50.28 99.5848 50.28V49.78ZM90.6248 47.54L90.8706 47.1046C88.3074 45.6576 86.2813 43.6126 84.7886 40.9589L84.3528 41.204L83.9171 41.4491C85.4963 44.2568 87.6516 46.4357 90.379 47.9754L90.6248 47.54ZM84.3528 41.204L84.7931 40.967C83.3446 38.2768 82.6128 35.1606 82.6128 31.604H82.1128H81.6128C81.6128 35.3008 82.3745 38.5845 83.9126 41.4411L84.3528 41.204ZM82.1128 31.604H82.6128C82.6128 28.0934 83.3645 25.0228 84.8526 22.3771L84.4168 22.132L83.981 21.8869C82.3972 24.7026 81.6128 27.9467 81.6128 31.604H82.1128ZM84.4168 22.132L84.8514 22.3794C86.3859 19.6836 88.4525 17.6402 91.0543 16.236L90.8168 15.796L90.5794 15.356C87.8051 16.8532 85.6051 19.0337 83.9823 21.8847L84.4168 22.132ZM90.8168 15.796L91.0597 16.2331C93.6673 14.7844 96.5906 14.056 99.8408 14.056V13.556V13.056C96.4351 13.056 93.3423 13.821 90.574 15.3589L90.8168 15.796ZM99.8408 13.556V14.056C103.091 14.056 106.014 14.7844 108.622 16.2331L108.865 15.796L109.108 15.3589C106.339 13.821 103.247 13.056 99.8408 13.056V13.556ZM108.865 15.796L108.627 16.236C111.23 17.6406 113.274 19.6626 114.765 22.3131L115.201 22.068L115.637 21.8229C114.056 19.012 111.876 16.8528 109.102 15.356L108.865 15.796ZM115.201 22.068L114.768 22.3183C116.296 24.9621 117.069 28.0519 117.069 31.604H117.569H118.069C118.069 27.9028 117.263 24.6353 115.634 21.8178L115.201 22.068ZM117.569 31.604H117.069C117.069 35.1537 116.276 38.2644 114.705 40.9517L115.137 41.204L115.568 41.4564C117.24 38.597 118.069 35.3077 118.069 31.604H117.569ZM115.137 41.204L114.704 40.9538C113.171 43.6062 111.082 45.6526 108.433 47.1013L108.673 47.54L108.913 47.9787C111.725 46.4408 113.946 44.2631 115.57 41.4543L115.137 41.204ZM108.673 47.54L108.433 47.1013C105.781 48.5517 102.835 49.28 99.5848 49.28V49.78V50.28C102.991 50.28 106.103 49.515 108.913 47.9787L108.673 47.54ZM99.5848 44.66V45.16C101.757 45.16 103.801 44.6492 105.709 43.6289L105.473 43.188L105.237 42.7471C103.475 43.6895 101.594 44.16 99.5848 44.16V44.66ZM105.473 43.188L105.709 43.6289C107.634 42.5991 109.172 41.0561 110.324 39.018L109.889 38.772L109.454 38.526C108.387 40.4133 106.981 41.8142 105.237 42.7471L105.473 43.188ZM109.889 38.772L110.32 39.0251C111.527 36.9694 112.117 34.488 112.117 31.604H111.617H111.117C111.117 34.352 110.555 36.6492 109.458 38.5189L109.889 38.772ZM111.617 31.604H112.117C112.117 28.723 111.549 26.2442 110.388 24.19L109.953 24.436L109.518 24.682C110.575 26.5531 111.117 28.853 111.117 31.604H111.617ZM109.953 24.436L110.388 24.19C109.237 22.1534 107.72 20.6295 105.833 19.6411L105.601 20.084L105.369 20.5269C107.066 21.4159 108.45 22.7933 109.518 24.682L109.953 24.436ZM105.601 20.084L105.841 19.6455C103.974 18.6228 101.949 18.112 99.7768 18.112V18.612V19.112C101.786 19.112 103.644 19.5825 105.361 20.5226L105.601 20.084ZM99.7768 18.612V18.112C97.5634 18.112 95.5176 18.622 93.6487 19.6455L93.8888 20.084L94.129 20.5226C95.8441 19.5834 97.7236 19.112 99.7768 19.112V18.612ZM93.8888 20.084L93.6524 19.6434C91.8068 20.6338 90.3327 22.16 89.2255 24.1973L89.6648 24.436L90.1042 24.6748C91.1303 22.7866 92.4722 21.4116 94.1253 20.5246L93.8888 20.084ZM89.6648 24.436L89.2255 24.1973C88.11 26.2499 87.5648 28.7259 87.5648 31.604H88.0648H88.5648C88.5648 28.8501 89.0864 26.5475 90.1042 24.6748L89.6648 24.436ZM88.0648 31.604H87.5648C87.5648 34.5205 88.087 37.0155 89.1575 39.0673L89.6008 38.836L90.0441 38.6047C89.0667 36.7312 88.5648 34.4049 88.5648 31.604H88.0648ZM89.6008 38.836L89.1615 39.0748C90.2679 41.1105 91.7395 42.6555 93.5802 43.6881L93.8248 43.252L94.0695 42.8159C92.4115 41.8858 91.0671 40.4868 90.0402 38.5973L89.6008 38.836ZM93.8248 43.252L93.5884 43.6926C95.4143 44.6723 97.4162 45.16 99.5848 45.16V44.66V44.16C97.5721 44.16 95.734 43.709 94.0612 42.8114L93.8248 43.252ZM131.05 20.596H130.55V22.4701L131.484 20.8451L131.05 20.596ZM136.17 15.604L136.423 16.0356L136.425 16.0342L136.17 15.604ZM152.618 15.796L152.363 16.226L152.366 16.2279L152.618 15.796ZM158.634 22.132L158.193 22.3666L158.194 22.3695L158.634 22.132ZM158.634 41.012L159.077 41.2438V41.2438L158.634 41.012ZM152.618 47.476L152.361 47.0472L152.358 47.0492L152.618 47.476ZM136.234 47.796L135.976 48.2241L135.985 48.2296L136.234 47.796ZM131.05 42.74L131.48 42.4841L130.55 40.9238V42.74H131.05ZM131.05 65.844V66.344H131.55V65.844H131.05ZM125.226 65.844H124.726V66.344H125.226V65.844ZM125.226 14.132V13.632H124.726V14.132H125.226ZM131.05 14.132H131.55V13.632H131.05V14.132ZM153.258 24.628L153.698 24.3893V24.3893L153.258 24.628ZM148.906 20.148L148.658 20.5822L148.663 20.5846L148.906 20.148ZM137.002 20.212L137.25 20.6461L137.254 20.6443L137.002 20.212ZM132.65 24.756L132.213 24.514L132.211 24.5173L132.65 24.756ZM132.65 38.58L132.209 38.8149L132.215 38.826L132.65 38.58ZM137.002 43.124L136.747 43.5538L136.759 43.5606L137.002 43.124ZM148.906 43.124L149.154 43.5581L149.158 43.5563L148.906 43.124ZM153.258 38.58L153.698 38.8188L153.7 38.8148L153.258 38.58ZM131.05 20.596L131.484 20.8451C132.587 18.9249 134.227 17.3202 136.423 16.0356L136.17 15.604L135.918 15.1724C133.591 16.5331 131.818 18.2564 130.617 20.3469L131.05 20.596ZM136.17 15.604L136.425 16.0342C138.642 14.7203 141.219 14.056 144.17 14.056V13.556V13.056C141.063 13.056 138.306 13.757 135.915 15.1739L136.17 15.604ZM144.17 13.556V14.056C147.201 14.056 149.928 14.7815 152.363 16.226L152.618 15.796L152.873 15.366C150.274 13.8239 147.369 13.056 144.17 13.056V13.556ZM152.618 15.796L152.366 16.2279C154.842 17.6723 156.784 19.7143 158.193 22.3666L158.634 22.132L159.076 21.8974C157.584 19.0884 155.514 16.9064 152.87 15.3641L152.618 15.796ZM158.634 22.132L158.194 22.3695C159.599 24.9728 160.31 28.0245 160.31 31.54H160.81H161.31C161.31 27.8875 160.571 24.6672 159.074 21.8945L158.634 22.132ZM160.81 31.54H160.31C160.31 35.0114 159.6 38.0874 158.191 40.7803L158.634 41.012L159.077 41.2438C160.57 38.39 161.31 35.1513 161.31 31.54H160.81ZM158.634 41.012L158.191 40.7803C156.781 43.4762 154.838 45.5609 152.361 47.0473L152.618 47.476L152.876 47.9048C155.518 46.3191 157.586 44.0945 159.077 41.2438L158.634 41.012ZM152.618 47.476L152.358 47.0492C149.923 48.5346 147.199 49.28 144.17 49.28V49.78V50.28C147.372 50.28 150.279 49.4894 152.879 47.9028L152.618 47.476ZM144.17 49.78V49.28C141.26 49.28 138.702 48.6364 136.483 47.3624L136.234 47.796L135.985 48.2296C138.374 49.601 141.107 50.28 144.17 50.28V49.78ZM136.234 47.796L136.493 47.368C134.292 46.0394 132.627 44.41 131.48 42.4841L131.05 42.74L130.621 42.9959C131.863 45.0806 133.654 46.8219 135.976 48.224L136.234 47.796ZM131.05 42.74H130.55V65.844H131.05H131.55V42.74H131.05ZM131.05 65.844V65.344H125.226V65.844V66.344H131.05V65.844ZM125.226 65.844H125.726V14.132H125.226H124.726V65.844H125.226ZM125.226 14.132V14.632H131.05V14.132V13.632H125.226V14.132ZM131.05 14.132H130.55V20.596H131.05H131.55V14.132H131.05ZM154.858 31.54H155.358C155.358 28.8266 154.811 26.4376 153.698 24.3893L153.258 24.628L152.819 24.8668C153.839 26.7437 154.358 28.9627 154.358 31.54H154.858ZM153.258 24.628L153.698 24.3893C152.589 22.3489 151.073 20.7845 149.15 19.7114L148.906 20.148L148.663 20.5846C150.409 21.5595 151.795 22.9817 152.819 24.8668L153.258 24.628ZM148.906 20.148L149.154 19.7139C147.283 18.6443 145.212 18.112 142.954 18.112V18.612V19.112C145.048 19.112 146.946 19.6037 148.658 20.5821L148.906 20.148ZM142.954 18.612V18.112C140.733 18.112 138.662 18.6685 136.751 19.7798L137.002 20.212L137.254 20.6443C139.012 19.6222 140.909 19.112 142.954 19.112V18.612ZM137.002 20.212L136.754 19.7779C134.874 20.8522 133.361 22.4376 132.213 24.514L132.65 24.756L133.088 24.998C134.158 23.0638 135.547 21.6198 137.25 20.6461L137.002 20.212ZM132.65 24.756L132.211 24.5173C131.098 26.5645 130.55 28.9318 130.55 31.604H131.05H131.55C131.55 29.0709 132.069 26.8729 133.09 24.9948L132.65 24.756ZM131.05 31.604H130.55C130.55 34.3177 131.098 36.7261 132.209 38.8148L132.65 38.58L133.092 38.3452C132.069 36.4232 131.55 34.181 131.55 31.604H131.05ZM132.65 38.58L132.215 38.826C133.364 40.8582 134.874 42.4389 136.747 43.5537L137.002 43.124L137.258 42.6944C135.547 41.6758 134.156 40.2272 133.086 38.334L132.65 38.58ZM137.002 43.124L136.759 43.5606C138.669 44.6268 140.737 45.16 142.954 45.16V44.66V44.16C140.905 44.16 139.005 43.6692 137.246 42.6874L137.002 43.124ZM142.954 44.66V45.16C145.212 45.16 147.283 44.6277 149.154 43.5581L148.906 43.124L148.658 42.6899C146.946 43.6684 145.048 44.16 142.954 44.16V44.66ZM148.906 43.124L149.158 43.5563C151.076 42.4411 152.59 40.8575 153.698 38.8188L153.258 38.58L152.819 38.3413C151.794 40.2278 150.406 41.6736 148.655 42.6918L148.906 43.124ZM153.258 38.58L153.7 38.8148C154.811 36.725 155.358 34.2949 155.358 31.54H154.858H154.358C154.358 34.1611 153.839 36.4243 152.817 38.3452L153.258 38.58ZM168.668 7.28401L169.022 6.93045V6.93045L168.668 7.28401ZM168.668 1.65201L169.022 2.00556V2.00556L168.668 1.65201ZM174.172 1.65201L173.809 1.99532L173.814 2.00051L173.819 2.00556L174.172 1.65201ZM174.172 7.28401L173.819 6.93045L173.814 6.9355L173.809 6.9407L174.172 7.28401ZM174.3 14.132H174.8V13.632H174.3V14.132ZM174.3 49.204V49.704H174.8V49.204H174.3ZM168.476 49.204H167.976V49.704H168.476V49.204ZM168.476 14.132V13.632H167.976V14.132H168.476ZM171.484 8.43601V7.93601C170.504 7.93601 169.694 7.60246 169.022 6.93045L168.668 7.28401L168.315 7.63756C169.179 8.50155 170.246 8.93601 171.484 8.93601V8.43601ZM168.668 7.28401L169.022 6.93045C168.35 6.25845 168.016 5.44791 168.016 4.46801H167.516H167.016C167.016 5.70677 167.451 6.77357 168.315 7.63756L168.668 7.28401ZM167.516 4.46801H168.016C168.016 3.48811 168.35 2.67757 169.022 2.00556L168.668 1.65201L168.315 1.29845C167.451 2.16245 167.016 3.22924 167.016 4.46801H167.516ZM168.668 1.65201L169.022 2.00556C169.694 1.33355 170.504 1.00001 171.484 1.00001V0.500008V7.62939e-06C170.246 7.62939e-06 169.179 0.434464 168.315 1.29845L168.668 1.65201ZM171.484 0.500008V1.00001C172.415 1.00001 173.179 1.32843 173.809 1.99532L174.172 1.65201L174.536 1.3087C173.715 0.439587 172.687 7.62939e-06 171.484 7.62939e-06V0.500008ZM174.172 1.65201L173.819 2.00556C174.491 2.67757 174.824 3.48811 174.824 4.46801H175.324H175.824C175.824 3.22924 175.39 2.16245 174.526 1.29845L174.172 1.65201ZM175.324 4.46801H174.824C174.824 5.44791 174.491 6.25845 173.819 6.93045L174.172 7.28401L174.526 7.63756C175.39 6.77357 175.824 5.70677 175.824 4.46801H175.324ZM174.172 7.28401L173.809 6.9407C173.179 7.60759 172.415 7.93601 171.484 7.93601V8.43601V8.93601C172.687 8.93601 173.715 8.49643 174.536 7.62732L174.172 7.28401ZM174.3 14.132H173.8V49.204H174.3H174.8V14.132H174.3ZM174.3 49.204V48.704H168.476V49.204V49.704H174.3V49.204ZM168.476 49.204H168.976V14.132H168.476H167.976V49.204H168.476ZM168.476 14.132V14.632H174.3V14.132V13.632H168.476V14.132ZM197.282 43.828L196.813 44.0009L197.284 45.2777L197.752 44L197.282 43.828ZM208.162 14.132V13.632H207.813L207.693 13.96L208.162 14.132ZM214.37 14.132L214.836 14.3146L215.104 13.632H214.37V14.132ZM200.61 49.204V49.704H200.951L201.076 49.3866L200.61 49.204ZM193.826 49.204L193.361 49.3866L193.485 49.704H193.826V49.204ZM180.066 14.132V13.632H179.333L179.601 14.3146L180.066 14.132ZM186.338 14.132L186.807 13.9591L186.687 13.632H186.338V14.132ZM197.282 43.828L197.752 44L208.632 14.304L208.162 14.132L207.693 13.96L196.813 43.656L197.282 43.828ZM208.162 14.132V14.632H214.37V14.132V13.632H208.162V14.132ZM214.37 14.132L213.905 13.9494L200.145 49.0214L200.61 49.204L201.076 49.3866L214.836 14.3146L214.37 14.132ZM200.61 49.204V48.704H193.826V49.204V49.704H200.61V49.204ZM193.826 49.204L194.292 49.0214L180.532 13.9494L180.066 14.132L179.601 14.3146L193.361 49.3866L193.826 49.204ZM180.066 14.132V14.632H186.338V14.132V13.632H180.066V14.132ZM186.338 14.132L185.869 14.3049L196.813 44.0009L197.282 43.828L197.751 43.6551L186.807 13.9591L186.338 14.132ZM220.293 7.28401L220.647 6.93045V6.93045L220.293 7.28401ZM220.293 1.65201L220.647 2.00556V2.00556L220.293 1.65201ZM225.797 1.65201L225.434 1.99532L225.439 2.00051L225.444 2.00556L225.797 1.65201ZM225.797 7.28401L225.444 6.93045L225.439 6.9355L225.434 6.9407L225.797 7.28401ZM225.925 14.132H226.425V13.632H225.925V14.132ZM225.925 49.204V49.704H226.425V49.204H225.925ZM220.101 49.204H219.601V49.704H220.101V49.204ZM220.101 14.132V13.632H219.601V14.132H220.101ZM223.109 8.43601V7.93601C222.129 7.93601 221.319 7.60246 220.647 6.93045L220.293 7.28401L219.94 7.63756C220.804 8.50155 221.871 8.93601 223.109 8.93601V8.43601ZM220.293 7.28401L220.647 6.93045C219.975 6.25845 219.641 5.44791 219.641 4.46801H219.141H218.641C218.641 5.70677 219.076 6.77357 219.94 7.63756L220.293 7.28401ZM219.141 4.46801H219.641C219.641 3.48811 219.975 2.67757 220.647 2.00556L220.293 1.65201L219.94 1.29845C219.076 2.16245 218.641 3.22924 218.641 4.46801H219.141ZM220.293 1.65201L220.647 2.00556C221.319 1.33355 222.129 1.00001 223.109 1.00001V0.500008V7.62939e-06C221.871 7.62939e-06 220.804 0.434464 219.94 1.29845L220.293 1.65201ZM223.109 0.500008V1.00001C224.04 1.00001 224.804 1.32843 225.434 1.99532L225.797 1.65201L226.161 1.3087C225.34 0.439587 224.312 7.62939e-06 223.109 7.62939e-06V0.500008ZM225.797 1.65201L225.444 2.00556C226.116 2.67757 226.449 3.48811 226.449 4.46801H226.949H227.449C227.449 3.22924 227.015 2.16245 226.151 1.29845L225.797 1.65201ZM226.949 4.46801H226.449C226.449 5.44791 226.116 6.25845 225.444 6.93045L225.797 7.28401L226.151 7.63756C227.015 6.77357 227.449 5.70677 227.449 4.46801H226.949ZM225.797 7.28401L225.434 6.9407C224.804 7.60759 224.04 7.93601 223.109 7.93601V8.43601V8.93601C224.312 8.93601 225.34 8.49643 226.161 7.62732L225.797 7.28401ZM225.925 14.132H225.425V49.204H225.925H226.425V14.132H225.925ZM225.925 49.204V48.704H220.101V49.204V49.704H225.925V49.204ZM220.101 49.204H220.601V14.132H220.101H219.601V49.204H220.101ZM220.101 14.132V14.632H225.925V14.132V13.632H220.101V14.132ZM235.851 22.132L236.291 22.3695L236.293 22.3666L235.851 22.132ZM241.803 15.796L241.551 15.3641L241.548 15.366L241.803 15.796ZM258.315 15.54L258.063 15.9716V15.9716L258.315 15.54ZM263.371 20.532L262.934 20.774L263.871 20.532H263.371ZM263.371 14.132V13.632H262.871V14.132H263.371ZM269.259 14.132H269.759V13.632H269.259V14.132ZM269.259 49.204V49.704H269.759V49.204H269.259ZM263.371 49.204H262.871V49.704H263.371V49.204ZM263.371 42.676H263.871V40.7673L262.936 42.4309L263.371 42.676ZM258.187 47.796L258.44 48.2276L258.442 48.2262L258.187 47.796ZM241.803 47.476L241.543 47.9028V47.9028L241.803 47.476ZM235.851 41.012L236.294 40.7803V40.7803L235.851 41.012ZM257.419 20.212L257.164 20.6418L257.176 20.6486L257.419 20.212ZM245.515 20.148L245.267 19.7139V19.7139L245.515 20.148ZM241.227 24.628L241.667 24.8668V24.8668L241.227 24.628ZM241.227 38.58L240.786 38.8148L240.788 38.8188L241.227 38.58ZM245.515 43.124L245.26 43.5537L245.267 43.5581L245.515 43.124ZM257.419 43.124L257.667 43.5581L257.671 43.5563L257.419 43.124ZM261.771 38.58L262.211 38.8188L262.213 38.8148L261.771 38.58ZM233.675 31.54H234.175C234.175 28.0245 234.886 24.9728 236.291 22.3695L235.851 22.132L235.411 21.8945C233.915 24.6672 233.175 27.8875 233.175 31.54H233.675ZM235.851 22.132L236.293 22.3666C237.703 19.7122 239.625 17.6699 242.058 16.226L241.803 15.796L241.548 15.366C238.947 16.9088 236.901 19.0905 235.41 21.8974L235.851 22.132ZM241.803 15.796L242.055 16.2279C244.535 14.7815 247.285 14.056 250.315 14.056V13.556V13.056C247.117 13.056 244.192 13.8239 241.551 15.3641L241.803 15.796ZM250.315 13.556V14.056C253.314 14.056 255.89 14.7009 258.063 15.9716L258.315 15.54L258.568 15.1084C256.218 13.7337 253.461 13.056 250.315 13.056V13.556ZM258.315 15.54L258.063 15.9716C260.258 17.2555 261.874 18.8581 262.934 20.774L263.371 20.532L263.809 20.29C262.65 18.1952 260.895 16.4699 258.568 15.1084L258.315 15.54ZM263.371 20.532H263.871V14.132H263.371H262.871V20.532H263.371ZM263.371 14.132V14.632H269.259V14.132V13.632H263.371V14.132ZM269.259 14.132H268.759V49.204H269.259H269.759V14.132H269.259ZM269.259 49.204V48.704H263.371V49.204V49.704H269.259V49.204ZM263.371 49.204H263.871V42.676H263.371H262.871V49.204H263.371ZM263.371 42.676L262.936 42.4309C261.832 44.3922 260.172 46.0389 257.932 47.3659L258.187 47.796L258.442 48.2262C260.811 46.8224 262.606 45.0558 263.807 42.9211L263.371 42.676ZM258.187 47.796L257.935 47.3644C255.761 48.6357 253.206 49.28 250.251 49.28V49.78V50.28C253.355 50.28 256.091 49.6017 258.44 48.2276L258.187 47.796ZM250.251 49.78V49.28C247.223 49.28 244.498 48.5346 242.064 47.0492L241.803 47.476L241.543 47.9028C244.143 49.4894 247.05 50.28 250.251 50.28V49.78ZM241.803 47.476L242.064 47.0492C239.629 45.5634 237.706 43.4783 236.294 40.7803L235.851 41.012L235.408 41.2438C236.898 44.0923 238.943 46.3167 241.543 47.9028L241.803 47.476ZM235.851 41.012L236.294 40.7803C234.886 38.0874 234.175 35.0114 234.175 31.54H233.675H233.175C233.175 35.1513 233.916 38.39 235.408 41.2438L235.851 41.012ZM263.371 31.604H263.871C263.871 28.8906 263.324 26.5016 262.211 24.4533L261.771 24.692L261.332 24.9308C262.352 26.8077 262.871 29.0267 262.871 31.604H263.371ZM261.771 24.692L262.211 24.4533C261.102 22.4129 259.586 20.8485 257.663 19.7754L257.419 20.212L257.176 20.6486C258.922 21.6235 260.308 23.0457 261.332 24.9308L261.771 24.692ZM257.419 20.212L257.675 19.7824C255.802 18.6676 253.729 18.112 251.467 18.112V18.612V19.112C253.557 19.112 255.452 19.6231 257.164 20.6417L257.419 20.212ZM251.467 18.612V18.112C249.209 18.112 247.139 18.6443 245.267 19.7139L245.515 20.148L245.763 20.5821C247.476 19.6037 249.373 19.112 251.467 19.112V18.612ZM245.515 20.148L245.267 19.7139C243.388 20.7878 241.895 22.3519 240.788 24.3893L241.227 24.628L241.667 24.8668C242.693 22.9787 244.059 21.5563 245.763 20.5821L245.515 20.148ZM241.227 24.628L240.788 24.3893C239.675 26.4376 239.127 28.8266 239.127 31.54H239.627H240.127C240.127 28.9627 240.647 26.7437 241.667 24.8668L241.227 24.628ZM239.627 31.54H239.127C239.127 34.2949 239.674 36.725 240.786 38.8148L241.227 38.58L241.669 38.3452C240.647 36.4243 240.127 34.1611 240.127 31.54H239.627ZM241.227 38.58L240.788 38.8188C241.894 40.8546 243.385 42.4377 245.26 43.5537L245.515 43.124L245.771 42.6944C244.062 41.6769 242.694 40.2308 241.667 38.3413L241.227 38.58ZM245.515 43.124L245.267 43.5581C247.139 44.6277 249.209 45.16 251.467 45.16V44.66V44.16C249.373 44.16 247.476 43.6684 245.763 42.6899L245.515 43.124ZM251.467 44.66V45.16C253.725 45.16 255.796 44.6277 257.667 43.5581L257.419 43.124L257.171 42.6899C255.459 43.6684 253.561 44.16 251.467 44.16V44.66ZM257.419 43.124L257.671 43.5563C259.589 42.4411 261.103 40.8575 262.211 38.8188L261.771 38.58L261.332 38.3413C260.307 40.2278 258.919 41.6736 257.168 42.6918L257.419 43.124ZM261.771 38.58L262.213 38.8148C263.324 36.7261 263.871 34.3177 263.871 31.604H263.371H262.871C262.871 34.181 262.352 36.4232 261.33 38.3452L261.771 38.58Z" fill="#FFFBFB" fill-opacity="0.2"/>
</g>
<defs>
<filter id="filter0_d_12_773" x="0" y="0" width="273.759" height="74.344" filterUnits="userSpaceOnUse" color-interpolation-filters="sRGB">
<feFlood flood-opacity="0" result="BackgroundImageFix"/>
<feColorMatrix in="SourceAlpha" type="matrix" values="0 0 0 0 0 0 0 0 0 0 0 0 0 0 0 0 0 0 127 0" result="hardAlpha"/>
<feOffset dy="4"/>
<feGaussianBlur stdDeviation="2"/>
<feComposite in2="hardAlpha" operator="out"/>
<feColorMatrix type="matrix" values="0 0 0 0 0 0 0 0 0 0 0 0 0 0 0 0 0 0 0.25 0"/>
<feBlend mode="normal" in2="BackgroundImageFix" result="effect1_dropShadow_12_773"/>
<feBlend mode="normal" in="SourceGraphic" in2="effect1_dropShadow_12_773" result="shape"/>
</filter>
</defs>
</svg>
