<svg width="197" height="56" viewBox="0 0 197 56" fill="none" xmlns="http://www.w3.org/2000/svg">
<path d="M1.76003 11.1C2.0667 11.6333 2.39336 12.1066 2.74003 12.52C3.10003 12.92 3.49336 13.2333 3.92003 13.46C4.3467 13.6733 4.8267 13.78 5.36003 13.78C6.00003 13.78 6.52003 13.6066 6.92003 13.26C7.32003 12.9133 7.52003 12.4666 7.52003 11.92C7.52003 11.4 7.39336 10.9866 7.14003 10.68C6.8867 10.36 6.53336 10.0933 6.08003 9.87998C5.64003 9.65331 5.1267 9.43331 4.54003 9.21998C4.19336 9.09998 3.8067 8.93998 3.38003 8.73998C2.95336 8.52664 2.5467 8.26664 2.16003 7.95998C1.77336 7.63998 1.45336 7.25331 1.20003 6.79998C0.946696 6.33331 0.820029 5.77331 0.820029 5.11997C0.820029 4.37331 1.01336 3.71997 1.40003 3.15997C1.7867 2.58664 2.3067 2.14664 2.96003 1.83998C3.6267 1.51998 4.38003 1.35998 5.22003 1.35998C6.0467 1.35998 6.7667 1.50664 7.38003 1.79997C7.99336 2.09331 8.5067 2.46664 8.92003 2.91998C9.3467 3.37331 9.68003 3.84664 9.92003 4.33998L8.00003 5.41998C7.8267 5.07331 7.6067 4.75331 7.34003 4.45997C7.07336 4.15331 6.76003 3.91331 6.40003 3.73997C6.05336 3.55331 5.6467 3.45997 5.18003 3.45997C4.5267 3.45997 4.0467 3.61331 3.74003 3.91997C3.43336 4.21331 3.28003 4.55998 3.28003 4.95998C3.28003 5.31998 3.3867 5.64664 3.60003 5.93998C3.8267 6.21998 4.17336 6.48664 4.64003 6.73998C5.1067 6.99331 5.71336 7.25331 6.46003 7.51998C6.87336 7.66664 7.2867 7.85331 7.70003 8.07998C8.1267 8.30664 8.51336 8.59331 8.86003 8.93998C9.2067 9.27331 9.48003 9.66664 9.68003 10.12C9.89336 10.5733 10 11.1066 10 11.72C10 12.3733 9.87336 12.96 9.62003 13.48C9.3667 14 9.02003 14.44 8.58003 14.8C8.14003 15.1466 7.64003 15.4133 7.08003 15.6C6.53336 15.8 5.96003 15.9 5.36003 15.9C4.53336 15.9 3.7667 15.74 3.06003 15.42C2.3667 15.0866 1.76003 14.6466 1.24003 14.1C0.720029 13.5533 0.306696 12.96 2.93404e-05 12.32L1.76003 11.1ZM10.9621 6.39998H16.1821V8.29998H10.9621V6.39998ZM12.5021 3.19998H14.6421V15.6H12.5021V3.19998ZM19.0317 12.74C19.0317 13.0466 19.1051 13.3133 19.2517 13.54C19.3984 13.7533 19.5984 13.9133 19.8517 14.02C20.1184 14.1266 20.4184 14.18 20.7517 14.18C21.1784 14.18 21.5651 14.0933 21.9117 13.92C22.2717 13.7466 22.5584 13.4933 22.7717 13.16C22.9984 12.8133 23.1117 12.4133 23.1117 11.96L23.4317 13.16C23.4317 13.7466 23.2584 14.24 22.9117 14.64C22.5784 15.0266 22.1517 15.32 21.6317 15.52C21.1251 15.7066 20.6051 15.8 20.0717 15.8C19.4984 15.8 18.9651 15.6866 18.4717 15.46C17.9784 15.2333 17.5851 14.9 17.2917 14.46C16.9984 14.02 16.8517 13.4866 16.8517 12.86C16.8517 11.9666 17.1651 11.26 17.7917 10.74C18.4184 10.2066 19.3051 9.93998 20.4517 9.93998C21.0651 9.93998 21.5917 10.0066 22.0317 10.14C22.4851 10.2733 22.8584 10.4333 23.1517 10.62C23.4451 10.7933 23.6517 10.9533 23.7717 11.1V12.2C23.3584 11.9066 22.9184 11.6933 22.4517 11.56C21.9851 11.4266 21.4917 11.36 20.9717 11.36C20.5184 11.36 20.1517 11.42 19.8717 11.54C19.5917 11.6466 19.3784 11.8 19.2317 12C19.0984 12.2 19.0317 12.4466 19.0317 12.74ZM18.3517 8.79998L17.4717 7.27998C17.8851 7.02664 18.4184 6.77998 19.0717 6.53998C19.7384 6.29998 20.4984 6.17998 21.3517 6.17998C22.1117 6.17998 22.7784 6.29331 23.3517 6.51998C23.9384 6.74664 24.3984 7.07331 24.7317 7.49997C25.0651 7.91331 25.2317 8.42664 25.2317 9.03998V15.6H23.1117V9.45998C23.1117 9.16664 23.0584 8.92664 22.9517 8.73998C22.8584 8.55331 22.7251 8.39998 22.5517 8.27998C22.3784 8.15998 22.1717 8.07331 21.9317 8.01998C21.6917 7.96664 21.4317 7.93998 21.1517 7.93998C20.7251 7.93998 20.3184 7.99331 19.9317 8.09997C19.5584 8.19331 19.2317 8.31331 18.9517 8.45998C18.6851 8.59331 18.4851 8.70664 18.3517 8.79998ZM35.7922 6.39998L29.7922 20H27.4922L29.8922 14.52L26.1922 6.39998H28.6722L31.6122 13.68L30.5922 13.62L33.4722 6.39998H35.7922ZM43.2619 1.59997H45.6419V15.6H43.2619V1.59997ZM54.5097 9.99998C54.5097 9.31998 54.3697 8.80664 54.0897 8.45998C53.8097 8.11331 53.3764 7.93998 52.7897 7.93998C52.3897 7.93998 52.0364 8.02664 51.7297 8.19998C51.4231 8.35998 51.1831 8.59998 51.0097 8.91998C50.8364 9.22664 50.7497 9.58664 50.7497 9.99998V15.6H48.5897V6.39998H50.7497V7.81998C51.0431 7.27331 51.4164 6.86664 51.8697 6.59998C52.3364 6.33331 52.8897 6.19998 53.5297 6.19998C54.5697 6.19998 55.3631 6.51998 55.9097 7.15998C56.4564 7.78664 56.7297 8.65331 56.7297 9.75998V15.6H54.5097V9.99998ZM64.2642 3.77998V1.59997H74.0242V3.77998H70.3242V15.6H67.9442V3.77998H64.2642ZM77.7224 -2.5034e-05V15.6H75.5624V-2.5034e-05H77.7224ZM81.4824 9.99998C81.4824 9.31998 81.3424 8.80664 81.0624 8.45998C80.7957 8.11331 80.3624 7.93998 79.7624 7.93998C79.3624 7.93998 79.009 8.02664 78.7024 8.19998C78.3957 8.37331 78.1557 8.61331 77.9824 8.91998C77.809 9.22664 77.7224 9.58664 77.7224 9.99998H77.2024C77.2024 9.26664 77.3357 8.61331 77.6024 8.03998C77.869 7.46664 78.2424 7.00664 78.7224 6.65998C79.2157 6.31331 79.809 6.13998 80.5024 6.13998C81.1824 6.13998 81.7557 6.27331 82.2224 6.53998C82.7024 6.80664 83.0624 7.20664 83.3024 7.73998C83.5424 8.25998 83.6624 8.91331 83.6624 9.69998V15.6H81.4824V9.99998ZM90.4022 15.8C89.4689 15.8 88.6422 15.6 87.9222 15.2C87.2156 14.8 86.6689 14.24 86.2822 13.52C85.8956 12.8 85.7022 11.96 85.7022 11C85.7022 10.0266 85.8956 9.17998 86.2822 8.45998C86.6822 7.73998 87.2422 7.18664 87.9622 6.79998C88.6822 6.39998 89.5289 6.19998 90.5022 6.19998C91.4756 6.19998 92.3022 6.38664 92.9822 6.75997C93.6622 7.13331 94.1822 7.67331 94.5422 8.37997C94.9156 9.07331 95.1022 9.91331 95.1022 10.9C95.1022 11.0066 95.0956 11.12 95.0822 11.24C95.0822 11.36 95.0756 11.4466 95.0622 11.5H86.9822V10.02H93.2222L92.5622 10.94C92.6022 10.86 92.6422 10.7533 92.6822 10.62C92.7356 10.4733 92.7622 10.3533 92.7622 10.26C92.7622 9.76664 92.6622 9.33998 92.4622 8.97997C92.2756 8.61998 92.0089 8.33998 91.6622 8.13998C91.3289 7.93998 90.9356 7.83998 90.4822 7.83998C89.9356 7.83998 89.4689 7.95998 89.0822 8.19998C88.6956 8.43998 88.4022 8.78664 88.2022 9.23998C88.0022 9.69331 87.8956 10.2533 87.8822 10.92C87.8822 11.5866 87.9822 12.1533 88.1822 12.62C88.3822 13.0733 88.6756 13.42 89.0622 13.66C89.4622 13.9 89.9422 14.02 90.5022 14.02C91.0889 14.02 91.6022 13.9 92.0422 13.66C92.4822 13.42 92.8489 13.0533 93.1422 12.56L95.0022 13.32C94.5222 14.1466 93.9022 14.7666 93.1422 15.18C92.3822 15.5933 91.4689 15.8 90.4022 15.8ZM103.34 1.59997H105.76V15.6H103.34V1.59997ZM110.96 1.59997H113.8L107.9 8.15998L114.1 15.6H111.2L105.04 8.21998L110.96 1.59997ZM121.463 9.99998C121.463 9.31998 121.323 8.80664 121.043 8.45998C120.763 8.11331 120.33 7.93998 119.743 7.93998C119.343 7.93998 118.99 8.02664 118.683 8.19998C118.376 8.35998 118.136 8.59998 117.963 8.91998C117.79 9.22664 117.703 9.58664 117.703 9.99998V15.6H115.543V6.39998H117.703V7.81998C117.996 7.27331 118.37 6.86664 118.823 6.59998C119.29 6.33331 119.843 6.19998 120.483 6.19998C121.523 6.19998 122.316 6.51998 122.863 7.15998C123.41 7.78664 123.683 8.65331 123.683 9.75998V15.6H121.463V9.99998ZM125.741 11C125.741 10.0533 125.955 9.21998 126.381 8.49998C126.821 7.77998 127.415 7.21998 128.161 6.81998C128.908 6.40664 129.755 6.19998 130.701 6.19998C131.648 6.19998 132.488 6.40664 133.221 6.81998C133.968 7.21998 134.561 7.77998 135.001 8.49998C135.441 9.21998 135.661 10.0533 135.661 11C135.661 11.9333 135.441 12.7666 135.001 13.5C134.561 14.22 133.968 14.7866 133.221 15.2C132.488 15.6 131.648 15.8 130.701 15.8C129.755 15.8 128.908 15.6 128.161 15.2C127.415 14.7866 126.821 14.22 126.381 13.5C125.955 12.7666 125.741 11.9333 125.741 11ZM127.961 11C127.961 11.5733 128.081 12.08 128.321 12.52C128.561 12.9466 128.888 13.2866 129.301 13.54C129.715 13.78 130.181 13.9 130.701 13.9C131.208 13.9 131.668 13.78 132.081 13.54C132.508 13.2866 132.841 12.9466 133.081 12.52C133.321 12.08 133.441 11.5733 133.441 11C133.441 10.4266 133.321 9.91998 133.081 9.47998C132.841 9.03998 132.508 8.69998 132.081 8.45998C131.668 8.21998 131.208 8.09997 130.701 8.09997C130.181 8.09997 129.715 8.21998 129.301 8.45998C128.888 8.69998 128.561 9.03998 128.321 9.47998C128.081 9.91998 127.961 10.4266 127.961 11ZM136.038 6.39998H138.378L140.538 11.88L143.078 5.69997L145.778 11.9L147.938 6.39998H150.278L145.978 16.26L143.098 10.04L140.338 16.26L136.038 6.39998ZM170.492 10.98L173.772 1.59997H176.512L170.792 16.34L166.472 6.43997L162.152 16.34L156.432 1.59997H159.172L162.492 10.98L166.472 0.899975L170.492 10.98ZM177.963 2.73998C177.963 2.36664 178.096 2.05331 178.363 1.79997C178.643 1.54664 178.963 1.41997 179.323 1.41997C179.71 1.41997 180.03 1.54664 180.283 1.79997C180.55 2.05331 180.683 2.36664 180.683 2.73998C180.683 3.09997 180.55 3.41331 180.283 3.67998C180.03 3.93331 179.71 4.05998 179.323 4.05998C178.963 4.05998 178.643 3.93331 178.363 3.67998C178.096 3.41331 177.963 3.09997 177.963 2.73998ZM178.263 6.39998H180.383V15.6H178.263V6.39998ZM182.075 6.39998H187.295V8.29998H182.075V6.39998ZM183.615 3.19998H185.755V15.6H183.615V3.19998ZM190.945 -2.5034e-05V15.6H188.785V-2.5034e-05H190.945ZM194.705 9.99998C194.705 9.31998 194.565 8.80664 194.285 8.45998C194.018 8.11331 193.585 7.93998 192.985 7.93998C192.585 7.93998 192.232 8.02664 191.925 8.19998C191.618 8.37331 191.378 8.61331 191.205 8.91998C191.032 9.22664 190.945 9.58664 190.945 9.99998H190.425C190.425 9.26664 190.558 8.61331 190.825 8.03998C191.092 7.46664 191.465 7.00664 191.945 6.65998C192.438 6.31331 193.032 6.13998 193.725 6.13998C194.405 6.13998 194.978 6.27331 195.445 6.53998C195.925 6.80664 196.285 7.20664 196.525 7.73998C196.765 8.25998 196.885 8.91331 196.885 9.69998V15.6H194.705V9.99998Z" fill="#363636"/>
<path d="M58.279 44.96C58.631 45.584 59.015 46.128 59.431 46.592C59.863 47.056 60.335 47.416 60.847 47.672C61.359 47.928 61.911 48.056 62.503 48.056C63.191 48.056 63.751 47.88 64.183 47.528C64.615 47.176 64.831 46.696 64.831 46.088C64.831 45.56 64.695 45.136 64.423 44.816C64.167 44.496 63.775 44.216 63.247 43.976C62.735 43.72 62.103 43.448 61.351 43.16C60.951 43.016 60.487 42.824 59.959 42.584C59.447 42.328 58.959 42.008 58.495 41.624C58.031 41.224 57.647 40.744 57.343 40.184C57.039 39.608 56.887 38.92 56.887 38.12C56.887 37.16 57.127 36.336 57.607 35.648C58.103 34.944 58.767 34.408 59.599 34.04C60.447 33.656 61.391 33.464 62.431 33.464C63.503 33.464 64.423 33.648 65.191 34.016C65.975 34.368 66.623 34.824 67.135 35.384C67.663 35.928 68.071 36.496 68.359 37.088L65.671 38.576C65.447 38.176 65.175 37.816 64.855 37.496C64.551 37.16 64.199 36.896 63.799 36.704C63.399 36.496 62.943 36.392 62.431 36.392C61.759 36.392 61.255 36.552 60.919 36.872C60.583 37.176 60.415 37.536 60.415 37.952C60.415 38.368 60.551 38.736 60.823 39.056C61.095 39.36 61.511 39.656 62.071 39.944C62.631 40.216 63.335 40.496 64.183 40.784C64.727 40.976 65.247 41.216 65.743 41.504C66.255 41.792 66.711 42.144 67.111 42.56C67.527 42.96 67.847 43.44 68.071 44C68.311 44.544 68.431 45.176 68.431 45.896C68.431 46.712 68.271 47.44 67.951 48.08C67.631 48.72 67.191 49.264 66.631 49.712C66.071 50.144 65.439 50.472 64.735 50.696C64.047 50.936 63.319 51.056 62.551 51.056C61.527 51.056 60.567 50.864 59.671 50.48C58.791 50.08 58.023 49.544 57.367 48.872C56.711 48.2 56.199 47.472 55.831 46.688L58.279 44.96ZM74.061 31.88V50.6H70.941V31.88H74.061ZM78.069 43.88C78.069 43.144 77.925 42.584 77.637 42.2C77.365 41.816 76.901 41.624 76.245 41.624C75.813 41.624 75.429 41.72 75.093 41.912C74.757 42.088 74.501 42.344 74.325 42.68C74.149 43.016 74.061 43.416 74.061 43.88H73.437C73.437 43 73.581 42.208 73.869 41.504C74.173 40.8 74.621 40.24 75.213 39.824C75.805 39.408 76.533 39.2 77.397 39.2C78.261 39.2 78.973 39.36 79.533 39.68C80.093 40 80.509 40.48 80.781 41.12C81.053 41.744 81.189 42.512 81.189 43.424V50.6H78.069V43.88ZM83.5095 45.08C83.5095 43.928 83.7735 42.92 84.3015 42.056C84.8455 41.192 85.5735 40.52 86.4855 40.04C87.4135 39.56 88.4615 39.32 89.6295 39.32C90.7975 39.32 91.8375 39.56 92.7495 40.04C93.6775 40.52 94.4055 41.192 94.9335 42.056C95.4775 42.92 95.7495 43.928 95.7495 45.08C95.7495 46.216 95.4775 47.224 94.9335 48.104C94.4055 48.968 93.6775 49.64 92.7495 50.12C91.8375 50.6 90.7975 50.84 89.6295 50.84C88.4615 50.84 87.4135 50.6 86.4855 50.12C85.5735 49.64 84.8455 48.968 84.3015 48.104C83.7735 47.224 83.5095 46.216 83.5095 45.08ZM86.6775 45.08C86.6775 45.704 86.8055 46.256 87.0615 46.736C87.3335 47.2 87.6935 47.568 88.1415 47.84C88.5895 48.096 89.0855 48.224 89.6295 48.224C90.1735 48.224 90.6695 48.096 91.1175 47.84C91.5655 47.568 91.9175 47.2 92.1735 46.736C92.4455 46.256 92.5815 45.704 92.5815 45.08C92.5815 44.456 92.4455 43.904 92.1735 43.424C91.9175 42.944 91.5655 42.576 91.1175 42.32C90.6695 42.064 90.1735 41.936 89.6295 41.936C89.0855 41.936 88.5895 42.064 88.1415 42.32C87.6935 42.576 87.3335 42.944 87.0615 43.424C86.8055 43.904 86.6775 44.456 86.6775 45.08ZM101.13 55.88H98.0097V39.56H101.13V55.88ZM110.202 45.08C110.202 46.328 109.954 47.392 109.458 48.272C108.962 49.152 108.306 49.816 107.49 50.264C106.69 50.712 105.826 50.936 104.898 50.936C103.954 50.936 103.13 50.696 102.426 50.216C101.738 49.736 101.202 49.056 100.818 48.176C100.45 47.296 100.266 46.264 100.266 45.08C100.266 43.88 100.45 42.848 100.818 41.984C101.202 41.104 101.738 40.424 102.426 39.944C103.13 39.464 103.954 39.224 104.898 39.224C105.826 39.224 106.69 39.448 107.49 39.896C108.306 40.344 108.962 41.008 109.458 41.888C109.954 42.752 110.202 43.816 110.202 45.08ZM106.986 45.08C106.986 44.424 106.85 43.864 106.578 43.4C106.306 42.936 105.938 42.584 105.474 42.344C105.026 42.104 104.53 41.984 103.986 41.984C103.522 41.984 103.066 42.104 102.618 42.344C102.186 42.568 101.826 42.912 101.538 43.376C101.266 43.84 101.13 44.408 101.13 45.08C101.13 45.752 101.266 46.32 101.538 46.784C101.826 47.248 102.186 47.6 102.618 47.84C103.066 48.064 103.522 48.176 103.986 48.176C104.53 48.176 105.026 48.056 105.474 47.816C105.938 47.576 106.306 47.224 106.578 46.76C106.85 46.296 106.986 45.736 106.986 45.08ZM112.375 35.288C112.375 34.776 112.559 34.36 112.927 34.04C113.295 33.704 113.735 33.536 114.247 33.536C114.759 33.536 115.191 33.704 115.543 34.04C115.911 34.36 116.095 34.776 116.095 35.288C116.095 35.784 115.911 36.2 115.543 36.536C115.191 36.872 114.759 37.04 114.247 37.04C113.735 37.04 113.295 36.872 112.927 36.536C112.559 36.2 112.375 35.784 112.375 35.288ZM112.711 39.56H115.735V50.6H112.711V39.56ZM117.451 39.56H120.787L123.499 46.208L126.211 39.56H129.547L123.499 51.752L117.451 39.56ZM130.891 35.288C130.891 34.776 131.075 34.36 131.443 34.04C131.811 33.704 132.251 33.536 132.763 33.536C133.275 33.536 133.707 33.704 134.059 34.04C134.427 34.36 134.611 34.776 134.611 35.288C134.611 35.784 134.427 36.2 134.059 36.536C133.707 36.872 133.275 37.04 132.763 37.04C132.251 37.04 131.811 36.872 131.443 36.536C131.075 36.2 130.891 35.784 130.891 35.288ZM131.227 39.56H134.251V50.6H131.227V39.56ZM139.758 47.168C139.758 47.488 139.838 47.768 139.998 48.008C140.158 48.232 140.374 48.408 140.646 48.536C140.934 48.648 141.246 48.704 141.582 48.704C142.062 48.704 142.494 48.608 142.878 48.416C143.262 48.208 143.574 47.92 143.814 47.552C144.054 47.168 144.174 46.712 144.174 46.184L144.558 47.624C144.558 48.328 144.358 48.92 143.958 49.4C143.574 49.88 143.07 50.24 142.446 50.48C141.838 50.72 141.198 50.84 140.526 50.84C139.838 50.84 139.198 50.704 138.606 50.432C138.014 50.16 137.534 49.768 137.166 49.256C136.814 48.728 136.638 48.088 136.638 47.336C136.638 46.264 137.014 45.416 137.766 44.792C138.518 44.168 139.582 43.856 140.958 43.856C141.662 43.856 142.278 43.928 142.806 44.072C143.35 44.216 143.806 44.392 144.174 44.6C144.542 44.808 144.806 45.008 144.966 45.2V46.64C144.534 46.32 144.046 46.08 143.502 45.92C142.974 45.76 142.414 45.68 141.822 45.68C141.342 45.68 140.95 45.744 140.646 45.872C140.342 45.984 140.118 46.152 139.974 46.376C139.83 46.584 139.758 46.848 139.758 47.168ZM138.558 42.68L137.406 40.568C137.982 40.264 138.686 39.976 139.518 39.704C140.35 39.416 141.278 39.272 142.302 39.272C143.246 39.272 144.086 39.408 144.822 39.68C145.558 39.952 146.134 40.352 146.55 40.88C146.966 41.392 147.174 42.024 147.174 42.776V50.6H144.174V43.424C144.174 43.12 144.126 42.864 144.03 42.656C143.934 42.432 143.782 42.248 143.574 42.104C143.382 41.96 143.15 41.856 142.878 41.792C142.606 41.728 142.302 41.696 141.966 41.696C141.454 41.696 140.966 41.752 140.502 41.864C140.038 41.976 139.638 42.112 139.302 42.272C138.966 42.432 138.718 42.568 138.558 42.68Z" fill="#FF8D41"/>
</svg>
