<svg width="258" height="256" viewBox="0 0 258 256" fill="none" xmlns="http://www.w3.org/2000/svg">
<g clip-path="url(#clip0_12_413)">
<path d="M225.339 219.087C220.107 224.572 215.155 228.11 211.242 230.905C165.257 263.759 110.846 254.182 99.2811 251.844C82.2048 248.39 49.1961 241.714 25.3307 213.769C-10.775 171.49 -5.15292 104.88 22.8535 60.9105C27.976 52.8675 55.0358 8.22845 110.034 1.06959C143.318 -3.26321 182.118 5.47553 210.214 28.9151C269.193 78.1174 264.995 177.516 225.339 219.087Z" fill="white"/>
<path d="M183.547 164.487C178.976 164.992 171.28 165.843 163.632 161.73C149.73 154.252 145.013 135.223 146.387 121.248C147.567 109.242 154.815 98.673 169.313 77.5323C182.967 57.6223 188.797 53.5107 187.25 45.5788C185.045 34.271 170.964 31.1873 170.383 17.6168C170.313 15.9881 170.073 10.3956 173.702 6.69955C179.912 0.373873 193.096 4.04809 200.189 7.88437C207.029 11.5845 216.23 19.7791 216.263 29.5719C216.287 36.6664 211.48 38.5733 212.871 44.5136C214.273 50.4898 219.563 50.3619 225.621 58.59C228.041 61.8767 232.9 68.4759 232.398 76.1573C231.749 86.0909 222.724 88.843 224.103 96.2829C225.099 101.658 230.136 101.978 232.51 107.679C235.637 115.184 230.716 123.773 226.524 130.866C221.591 139.22 208.276 161.754 183.547 164.487Z" fill="url(#paint0_linear_12_413)"/>
<path opacity="0.16" d="M177.973 8.626C175.242 13.3039 192.831 20.3496 197.282 38.3406C202.07 57.6984 188.729 77.9172 182.563 87.2618C172.043 103.205 164.835 104.197 160.133 118.848C158.272 124.647 154.395 136.726 160.794 148.033C161.388 149.083 168.191 160.697 180.297 162.075C194.028 163.638 204.143 150.845 212.858 139.823C218.124 133.162 228.644 119.856 224.063 112.713C221.263 108.345 213.464 107.288 208.015 108.461C200.236 110.137 196.177 116.59 194.97 115.669C193.882 114.84 196.129 108.807 200.428 103.116C209.026 91.7351 217.045 93.3615 222.892 83.7686C223.601 82.6063 229.083 73.3124 225.257 64.7859C223.051 59.8681 217.691 55.0775 213.258 55.9191C208.246 56.8715 206.583 64.6176 205.091 64.1438C203.665 63.6907 204.319 56.3335 206.035 49.1566C208.556 38.6126 211.269 37.2465 211.25 31.3185C211.22 22.2747 204.872 15.7551 203.946 14.8299C195.271 6.16977 180.308 4.62711 177.973 8.626Z" fill="white"/>
<path d="M254.532 82.8304C252.19 78.8798 247.673 75.5644 243.508 73.7278C213.979 60.7059 186.784 122.353 186.337 138.152C185.892 153.951 181.211 157.511 154.684 156.338C128.158 155.164 134.479 173.51 134.39 182.88C134.301 192.249 137.527 201.349 117.151 203.376C96.7756 205.401 100.975 212.697 100.975 212.697C100.975 212.697 121.257 256.978 123.263 245.853C125.27 234.727 134.184 220.04 163.382 229.164C175.958 233.093 197.056 234.004 206.027 222.268C208.116 219.535 210.493 215.068 210.898 211.608C211.461 206.81 209.807 202.275 209.691 197.527C209.422 186.461 221.432 182.741 229.207 178.201C233.266 175.831 237.355 173.374 240.921 170.29C248.323 163.888 249.733 154.676 247.481 145.517C246.402 141.124 244.482 136.186 244.978 131.587C245.511 126.646 248.709 120.784 250.655 116.204C252.181 112.612 253.845 109.086 254.963 105.336C257.042 98.3615 258.447 89.4347 254.532 82.8304Z" fill="url(#paint1_linear_12_413)"/>
<g opacity="0.8">
<g opacity="0.8">
<path opacity="0.8" d="M91.8198 230.179C91.5901 230.179 91.3908 230.017 91.3585 229.794C91.3235 229.55 91.5021 229.324 91.757 229.291C91.914 229.27 107.64 227.163 126.513 221.272C143.902 215.844 167.598 206.003 181.727 189.943C193.527 176.529 208.596 152.827 223.07 124.912C236.049 99.8818 243.805 80.7344 243.805 76.6843C243.805 76.4377 244.014 76.2383 244.27 76.2383C244.527 76.2383 244.736 76.4385 244.736 76.6843C244.736 81.4219 235.585 102.78 223.905 125.309C209.399 153.284 194.286 177.052 182.44 190.517C168.167 206.742 144.296 216.662 126.787 222.126C107.837 228.039 92.0415 230.155 91.8844 230.175C91.862 230.179 91.8404 230.179 91.8198 230.179Z" fill="white"/>
</g>
<g opacity="0.8">
<path opacity="0.8" d="M223.945 123.53C223.72 123.53 223.535 123.375 223.535 123.156C223.532 122.866 223.216 94.0258 212.777 83.902C212.616 83.7464 212.616 83.4994 212.777 83.3438C212.937 83.1881 213.197 83.1911 213.358 83.3468C224.035 93.7014 224.348 121.951 224.356 123.149C224.358 123.369 224.175 123.53 223.948 123.53C223.947 123.53 223.946 123.53 223.945 123.53Z" fill="white"/>
</g>
<g opacity="0.8">
<path opacity="0.8" d="M205.575 156.667C205.43 156.667 205.295 156.546 205.243 156.352C205.178 156.105 205.273 155.833 205.456 155.745C205.535 155.706 213.494 151.88 222.6 149.849C234.901 147.103 243.328 148.763 247.645 154.779C247.78 154.968 247.776 155.269 247.637 155.452C247.498 155.635 247.275 155.629 247.139 155.442C237.208 141.599 206.007 156.488 205.694 156.64C205.654 156.659 205.614 156.667 205.575 156.667Z" fill="white"/>
</g>
<g opacity="0.8">
<path opacity="0.8" d="M143.587 215.59C143.536 215.59 143.485 215.582 143.433 215.564C143.185 215.479 143.052 215.209 143.137 214.96C143.182 214.83 147.64 201.729 149.851 187.032C151.879 173.558 152.386 155.95 143.288 148.584C143.083 148.419 143.052 148.119 143.218 147.915C143.384 147.711 143.684 147.68 143.888 147.846C151.474 153.987 153.796 167.223 150.792 187.186C148.567 201.966 144.084 215.137 144.039 215.268C143.971 215.466 143.785 215.59 143.587 215.59Z" fill="white"/>
</g>
<g opacity="0.8">
<path opacity="0.8" d="M169.676 201.205C169.471 201.205 169.282 201.073 169.22 200.867C169.144 200.615 169.287 200.351 169.539 200.275C171.365 199.728 214.398 186.966 226.811 194.116C227.039 194.247 227.117 194.538 226.985 194.766C226.854 194.994 226.563 195.072 226.335 194.94C214.272 187.992 170.255 201.053 169.812 201.185C169.768 201.199 169.722 201.205 169.676 201.205Z" fill="white"/>
</g>
</g>
<path d="M46.7436 41.7288C45.8484 77.7013 42.9433 201.785 44.3297 245.757C44.4766 250.415 48.2265 254.155 52.9046 254.307C76.0428 255.061 142.604 256.972 180.448 255.391C188.331 255.062 194.599 248.704 194.763 240.849C195.55 203.091 197.284 96.8913 193.161 48.2412C192.667 42.4126 188.072 37.7699 182.226 37.1884C157.029 34.6787 90.1039 28.5429 57.4074 30.6558C51.5108 31.0371 46.8896 35.8462 46.7436 41.7288Z" fill="url(#paint2_linear_12_413)"/>
<path d="M56.1449 52.9058C54.8814 82.3678 50.8947 180.379 52.1599 216.621C52.3445 221.919 56.5378 226.202 61.8523 226.512C83.7316 227.787 139.851 230.598 171.943 228.039C177.722 227.578 182.256 222.925 182.568 217.161C184.195 187.104 188.864 95.8416 187.651 60.0053C187.458 54.2882 183.011 49.6199 177.289 49.1079C153.619 46.9913 92.8253 41.9563 65.5544 43.4384C60.4355 43.7163 56.3643 47.8059 56.1449 52.9058Z" fill="url(#paint3_linear_12_413)"/>
<path opacity="0.5" d="M103.926 36.9417C103.926 38.0452 104.79 38.9558 105.897 39.0134C111.362 39.2987 126.757 40.1051 133.637 40.5019C134.993 40.5805 136.058 39.3663 135.801 38.037L135.757 37.8102C135.581 36.9033 134.826 36.2212 133.903 36.1371C129.252 35.7129 115.219 34.5362 105.921 34.8662C104.805 34.9074 103.926 35.829 103.926 36.9417Z" fill="white"/>
<path opacity="0.8" d="M165.141 159.14L72.1158 157.361C69.083 157.304 66.7995 160.821 67.0502 165.178C67.2981 169.49 70.4612 170.79 73.4334 170.746L164.437 171.471C166.301 171.442 167.964 168.715 168.169 165.356C168.375 161.969 167.028 159.176 165.141 159.14Z" fill="white"/>
<path opacity="0.8" d="M165.392 187.552L72.3674 185.774C69.3346 185.716 67.0511 189.233 67.3018 193.59C67.5497 197.903 70.7128 199.203 73.685 199.158L164.689 199.883C166.553 199.855 168.216 197.127 168.42 193.768C168.627 190.382 167.28 187.588 165.392 187.552Z" fill="white"/>
<path d="M125.452 163.025L74.9676 162.503C73.3222 162.486 72.0845 163.429 72.2223 164.601C72.3591 165.759 74.0761 166.11 75.6893 166.099L125.076 166.338C126.088 166.331 126.989 165.599 127.098 164.697C127.209 163.787 126.477 163.036 125.452 163.025Z" fill="url(#paint4_linear_12_413)"/>
<path d="M42.1436 132.211C42.1436 132.211 39.4093 133.535 38.9071 135.056C38.504 136.277 35.4804 136.434 35.182 138.834C35.0277 140.074 34.1068 141.066 32.8673 141.255C29.7794 141.726 25.0214 143.323 24.2602 148.661C23.679 152.735 25.7651 154.28 27.9541 154.815C29.5618 155.208 30.6306 156.765 30.3055 158.382C29.9933 159.932 30.4589 161.724 33.1565 163.141C39.2009 166.318 45.237 155.618 45.237 155.618L46.4738 136.935L42.1436 132.211Z" fill="url(#paint5_linear_12_413)"/>
<path d="M75.0338 127.782C75.0338 127.782 62.9652 146.79 48.614 150.462C48.614 150.462 51.4108 158.393 53.5685 159.3C53.5685 159.3 71.2242 144.632 75.7619 130.483L75.0338 127.782Z" fill="url(#paint6_linear_12_413)"/>
<path d="M17.2985 249.359L16.9074 252.56C16.833 253.167 16.3528 253.648 15.7422 253.718C14.7111 253.835 13.0575 253.956 11.4387 253.785C10.728 253.71 10.2671 252.994 10.4838 252.315C10.8786 251.079 11.6003 249.224 12.6406 248.132H16.2077C16.867 248.133 17.3775 248.707 17.2985 249.359Z" fill="url(#paint7_linear_12_413)"/>
<path d="M45.2361 211.851L45.8384 215.377C45.8384 215.377 43.8221 235.713 43.464 243.847C43.408 245.123 43.7394 246.382 44.4115 247.47L47.9171 253.138L39.0071 247.903L38.8299 246.82L40.2889 244.824L38.3782 222.043C38.2661 220.705 38.5434 219.363 39.177 218.178L41.0198 214.73L45.2361 211.851Z" fill="url(#paint8_linear_12_413)"/>
<path d="M48.5029 253.959H45.6593C45.1268 253.959 44.6254 253.716 44.3004 253.296C43.4143 252.15 41.578 249.912 40.6993 249.853C39.5176 249.775 39.6682 253.959 39.6682 253.959H39.0052L38.166 248.759C37.9548 247.451 38.6086 246.154 39.7884 245.542C39.7884 245.542 40.0584 247.532 41.5238 248.411C42.9892 249.292 47.4865 252.443 47.4865 252.443C47.4865 252.443 48.0374 252.365 48.6425 252.474C49.5405 252.636 49.4147 253.959 48.5029 253.959Z" fill="url(#paint9_linear_12_413)"/>
<path d="M33.0324 213.526C33.0324 213.526 21.2209 235.835 19.3433 240.93C17.4656 246.023 16.8082 250.273 16.7825 250.675C16.743 251.304 15.9579 251.907 13.7928 251.907C12.6754 251.907 12.1282 251.46 11.8601 251.029C11.6314 250.66 11.6195 250.2 11.8123 249.812C12.4955 248.435 14.6642 244.035 15.4667 242.04C16.4253 239.657 18.4875 228.859 19.6187 225.104C20.7499 221.35 22.028 217.277 26.9541 213.526C26.955 213.526 30.3357 210.228 33.0324 213.526Z" fill="url(#paint10_linear_12_413)"/>
<path d="M40.4946 176.97C43.5411 164.114 35.8229 156.843 35.8229 156.843C40.6929 152.188 49.5662 150.07 49.5662 150.07C49.5662 150.07 58.0337 156.234 57.0292 161.059C56.4407 163.887 51.0776 177.997 51.0776 177.997C51.0776 177.997 46.1185 180.334 40.4946 176.97Z" fill="#FF8992"/>
<path d="M33.7385 183.334C34.9781 179.615 40.4936 176.97 40.4936 176.97C46.1175 180.334 51.0766 177.997 51.0766 177.997C51.0766 177.997 52.1885 182.23 51.4209 186.163C50.6533 190.096 45.8374 215.377 45.8374 215.377C38.2496 216.909 26.5795 213.837 26.5795 213.837C31.4137 205.293 32.499 187.054 33.7385 183.334Z" fill="#373B71"/>
<path d="M44.0304 141.574L41.5532 152.654C41.3163 153.629 42.2097 153.47 43.2004 153.284C44.8228 152.979 46.9144 152.352 47.6132 151.094C47.6848 150.966 47.7197 150.821 47.7399 150.676L48.8041 142.993C48.8885 142.383 48.558 141.792 47.9924 141.543L45.9384 140.636C45.1497 140.288 44.2343 140.738 44.0304 141.574Z" fill="url(#paint11_linear_12_413)"/>
<path d="M48.7757 131.474C48.7757 131.474 51.4127 133.251 52.5458 137.778C53.6788 142.305 51.8369 143.928 49.9501 143.829C48.0623 143.729 45.3252 143.148 42.9535 139.9C40.5818 136.654 45.3197 129.303 48.7757 131.474Z" fill="url(#paint12_linear_12_413)"/>
<path d="M45.3454 138.076C45.3454 138.076 44.3794 131.589 49.7875 132.582L50.8811 133.716C50.8811 133.716 53.5282 130.747 50.5992 128.504C47.6693 126.26 43.6045 126.834 41.3549 130.919C39.1054 135.004 38.2891 137.875 40.1751 140.414C42.0601 142.953 43.4787 140.775 43.4787 140.775C43.4787 140.775 42.6138 138.578 43.3318 137.636C44.0489 136.693 44.9744 138.184 44.9744 138.184L45.3454 138.076Z" fill="url(#paint13_linear_12_413)"/>
<path d="M44.6062 138.631C44.6062 138.631 44.1287 135.294 42.4172 136.248C40.7057 137.202 43.0342 139.365 43.968 140.101L44.6062 138.631Z" fill="url(#paint14_linear_12_413)"/>
<path d="M74.9502 131.695C74.987 132.088 73.5225 132.358 73.056 130.687C73.1846 129.961 73.4114 126.783 73.9705 126.289C76.9464 123.66 82.2544 120.701 82.2544 120.701C82.8475 121.604 82.0698 122.198 82.0698 122.198L79.4209 123.978C79.6972 124.89 80.1003 125.695 80.1462 126.735C80.1811 127.524 79.8882 128.295 79.363 128.892C78.836 129.492 78.1262 130.266 77.4863 130.854C76.2752 131.969 74.9502 131.695 74.9502 131.695Z" fill="url(#paint15_linear_12_413)"/>
<path d="M76.3881 130.399L75.9859 130.235C76.0401 130.105 77.3109 127.029 77.9251 126.389C78.1593 126.146 78.2722 125.937 78.2621 125.769C78.2566 125.678 78.2116 125.587 78.1244 125.495L75.9786 126.637L75.0319 128.113L74.6665 127.881L75.6747 126.309L78.1841 124.974L78.2961 125.065C78.5495 125.271 78.6808 125.493 78.6964 125.743C78.7148 126.04 78.566 126.35 78.241 126.688C77.7764 127.17 76.7462 129.53 76.3881 130.399Z" fill="url(#paint16_linear_12_413)"/>
<path d="M35.8228 156.843C35.8228 156.843 22.1098 184.88 17.1433 187.331C17.1433 187.331 12.1007 187.856 9.01558 188.784C8.23972 189.019 8.26543 190.116 9.04772 190.329C11.1963 190.912 14.757 191.4 18.0202 189.637C18.0202 189.637 16.2674 192.253 17.2902 193.272C17.2902 193.272 19.627 190.509 20.5039 189.637C21.2752 188.869 35.3188 173.623 41.2227 164.429C41.7001 163.686 41.3687 161.478 41.0372 160.661C40.2733 158.779 38.5811 155.774 35.8228 156.843Z" fill="url(#paint17_linear_12_413)"/>
<path opacity="0.8" d="M119.883 140.486C142.601 140.486 161.017 122.148 161.017 99.5272C161.017 76.9061 142.601 58.5681 119.883 58.5681C97.1658 58.5681 78.7496 76.9061 78.7496 99.5272C78.7496 122.148 97.1658 140.486 119.883 140.486Z" fill="white"/>
<path d="M133.224 84.7815C133.224 91.7694 127.535 99.3141 120.518 99.3141C113.5 99.3141 107.811 91.7703 107.811 84.7815C107.811 77.7936 113.5 72.8354 120.518 72.8354C127.535 72.8364 133.224 77.7936 133.224 84.7815Z" fill="url(#paint18_linear_12_413)"/>
<path d="M104.748 126.219H135.768C139.033 126.219 141.924 124.117 142.92 121.02L144.589 115.825C145.811 112.022 143.824 107.903 140.057 106.531C127.433 101.935 114.379 102.525 101.007 106.956C97.2611 108.197 95.1824 112.187 96.2162 115.982L97.5017 120.699C98.3887 123.958 101.358 126.219 104.748 126.219Z" fill="url(#paint19_linear_12_413)"/>
<path d="M81.2829 192.365C81.2242 194.184 79.7 195.643 77.8765 195.624C76.0511 195.605 74.6169 194.111 74.6757 192.288C74.7345 190.465 76.2632 189.006 78.0886 189.029C79.9121 189.052 81.3408 190.545 81.2829 192.365Z" fill="url(#paint20_linear_12_413)"/>
<path d="M93.6416 192.508C93.5829 194.32 92.0715 195.773 90.2627 195.755C88.4521 195.736 87.0298 194.248 87.0885 192.432C87.1473 190.617 88.6642 189.163 90.4748 189.186C92.2827 189.209 93.6995 190.696 93.6416 192.508Z" fill="url(#paint21_linear_12_413)"/>
<path d="M106.891 192.726C106.832 194.545 105.308 196.005 103.485 195.985C101.659 195.966 100.225 194.472 100.284 192.649C100.343 190.826 101.871 189.367 103.697 189.39C105.521 189.413 106.95 190.906 106.891 192.726Z" fill="url(#paint22_linear_12_413)"/>
<path d="M133.098 193.036C133.039 194.848 131.528 196.301 129.719 196.283C127.908 196.263 126.486 194.776 126.545 192.96C126.603 191.144 128.12 189.691 129.931 189.713C131.739 189.737 133.156 191.224 133.098 193.036Z" fill="url(#paint23_linear_12_413)"/>
<path d="M146.347 193.253C146.288 195.073 144.764 196.532 142.941 196.513C141.115 196.494 139.681 195 139.74 193.177C139.799 191.354 141.327 189.894 143.153 189.917C144.977 189.941 146.406 191.434 146.347 193.253Z" fill="url(#paint24_linear_12_413)"/>
<path d="M119.25 192.87C119.191 194.682 117.68 196.134 115.871 196.116C114.06 196.097 112.638 194.609 112.697 192.794C112.755 190.978 114.272 189.524 116.083 189.548C117.892 189.57 119.309 191.057 119.25 192.87Z" fill="url(#paint25_linear_12_413)"/>
<path d="M3.72499 101.38C3.60195 101.385 3.48075 101.321 3.42199 101.207C3.22733 100.829 3.03727 100.442 2.85731 100.054C2.78293 99.8948 2.85639 99.7073 3.01982 99.6351C3.41556 99.4577 3.47616 99.9002 4.00412 100.922C4.08492 101.078 4.01972 101.268 3.85904 101.347C3.81497 101.368 3.76998 101.379 3.72499 101.38Z" fill="#EAC4F9"/>
<path d="M1.41302 96.329C1.16879 95.551 0.953013 94.7537 0.771213 93.9583C0.732649 93.7873 0.842831 93.6182 1.0182 93.5807C1.49658 93.4792 1.31386 93.8495 2.03463 96.1425C2.08697 96.3098 1.99056 96.4863 1.81886 96.5384C1.6444 96.5905 1.46444 96.4945 1.41302 96.329ZM0.137667 90.0259C0.0596215 89.2104 0.0127942 88.3775 -6.03739e-05 87.5775C-0.00740583 87.1478 0.643585 87.1542 0.650013 87.5665C0.662867 88.3638 0.707858 89.1674 0.784985 89.9656C0.801513 90.1393 0.670213 90.2938 0.491167 90.3103C0.310285 90.3276 0.154194 90.1978 0.137667 90.0259ZM0.194594 83.5994C0.287331 82.7903 0.41404 81.9747 0.571967 81.1747C0.653685 80.7624 1.29182 80.8822 1.21102 81.2927C1.05677 82.0762 0.931895 82.8762 0.840995 83.668C0.793249 84.0858 0.146849 84.0154 0.194594 83.5994ZM1.80784 77.7151C1.63706 77.6611 1.54432 77.4819 1.60033 77.3164C1.86109 76.543 2.15767 75.7686 2.48087 75.0161C2.64706 74.6294 3.24663 74.8726 3.08136 75.2593C2.76459 75.9962 2.47444 76.7551 2.21827 77.513C2.16226 77.6794 1.9777 77.7699 1.80784 77.7151ZM4.41548 71.8746C4.2603 71.7878 4.20613 71.5939 4.29611 71.4422C4.71389 70.7354 5.16563 70.0369 5.6385 69.364C5.88181 69.0193 6.41803 69.375 6.17472 69.7206C5.71195 70.3788 5.26939 71.0646 4.85988 71.7567C4.7699 71.9094 4.57157 71.9624 4.41548 71.8746ZM8.41416 66.75C8.33336 66.7528 8.25072 66.7272 8.18553 66.6705C8.05148 66.5544 8.03954 66.3542 8.15891 66.2234C8.71533 65.6136 9.30204 65.0175 9.90437 64.4524C10.0338 64.3308 10.2395 64.3345 10.3644 64.4598C10.4893 64.5859 10.4847 64.7862 10.3552 64.9078C9.76573 65.4609 9.19003 66.0451 8.64463 66.6431C8.58311 66.7107 8.49955 66.7464 8.41416 66.75ZM13.23 62.4428C13.1263 62.4465 13.0225 62.4026 12.9564 62.3158C12.849 62.1759 12.8793 61.9775 13.0234 61.8723C13.6937 61.385 14.3924 60.9178 15.1004 60.4835C15.2519 60.3903 15.4529 60.4342 15.5484 60.5823C15.6439 60.7295 15.598 60.9251 15.4465 61.0184C14.7533 61.4444 14.0683 61.9025 13.4118 62.3788C13.3567 62.42 13.2934 62.441 13.23 62.4428ZM18.5371 58.9969C18.4618 58.8387 18.5325 58.6504 18.695 58.5763C19.4525 58.2335 20.2358 57.9144 21.0199 57.63C21.4248 57.4847 21.6479 58.0771 21.2458 58.2234C20.4763 58.5023 19.7106 58.815 18.9677 59.1505C18.8061 59.2236 18.6133 59.156 18.5371 58.9969ZM40.3669 57.2826C37.9998 56.6764 37.6068 56.8675 37.6959 56.3958C37.728 56.2239 37.897 56.1096 38.0742 56.1407C38.8969 56.2851 39.7242 56.4634 40.534 56.671C40.949 56.777 40.7838 57.3887 40.3669 57.2826ZM24.6963 56.8593C24.6559 56.6892 24.7642 56.5192 24.9396 56.479C25.7531 56.2943 26.5859 56.137 27.4132 56.0136C27.8383 55.9505 27.9356 56.5759 27.5105 56.639C26.6998 56.7596 25.8835 56.9132 25.0865 57.0952C24.9102 57.1354 24.7367 57.0275 24.6963 56.8593ZM33.9745 56.3171C31.5358 56.1964 31.1851 56.4625 31.1722 55.9807C31.164 55.6753 31.5239 55.6387 31.489 55.6561C32.3273 55.6342 33.1748 55.6442 34.0085 55.6854C34.1875 55.6945 34.3253 55.8426 34.3161 56.0172C34.3078 56.1836 34.1646 56.3244 33.9745 56.3171Z" fill="#EAC4F9"/>
<path d="M45.3691 59.0151C44.3729 58.5744 43.8422 58.5068 44.0093 58.1082C44.0773 57.9463 44.2664 57.8677 44.4335 57.9344C45.4821 58.3486 45.9761 58.4812 45.7998 58.8579C45.7465 58.9712 45.5317 59.0874 45.3691 59.0151Z" fill="#EAC4F9"/>
<path d="M62.4115 76.9517C62.2729 76.9572 62.1407 76.8749 62.0929 76.7414C61.9506 76.3482 61.7982 75.9542 61.6403 75.5702C61.5732 75.4084 61.6549 75.2237 61.8221 75.1588C61.9882 75.0938 62.1783 75.1725 62.2444 75.3343C62.406 75.7265 62.5612 76.1288 62.7063 76.5302C62.7659 76.6948 62.6769 76.8758 62.5079 76.9343C62.4758 76.9444 62.4437 76.9508 62.4115 76.9517Z" fill="#EAC4F9"/>
<path d="M32.5752 118.472C31.6736 118.483 30.7618 118.457 29.8638 118.394C29.6848 118.381 29.5498 118.23 29.5636 118.055C29.6012 117.564 29.9309 117.871 32.5679 117.84C32.7479 117.838 32.8948 117.978 32.8966 118.152C32.9003 118.458 32.5394 118.489 32.5752 118.472ZM36.5978 117.864C36.5243 117.378 36.9283 117.603 39.4827 117.019C39.6581 116.978 39.8326 117.085 39.873 117.255C39.9134 117.425 39.805 117.595 39.6305 117.636C38.7564 117.835 37.8603 118.002 36.9669 118.13C36.7879 118.156 36.6235 118.035 36.5978 117.864ZM25.5025 117.794C24.6229 117.612 23.7387 117.391 22.8765 117.136C22.7048 117.086 22.6075 116.909 22.6598 116.741C22.8076 116.27 23.0592 116.641 25.6384 117.175C25.8137 117.211 25.9258 117.38 25.8881 117.551C25.8505 117.721 25.6779 117.829 25.5025 117.794ZM43.7376 116.394C43.6026 116.4 43.4731 116.322 43.4217 116.191C43.3575 116.028 43.441 115.845 43.609 115.782C44.4345 115.473 45.2544 115.126 46.0468 114.752C46.2093 114.675 46.4031 114.741 46.4811 114.898C46.5592 115.056 46.4921 115.245 46.3305 115.322C45.5216 115.704 44.6842 116.058 43.8413 116.374C43.8074 116.386 43.7725 116.392 43.7376 116.394ZM49.984 113.242C49.8747 113.246 49.7654 113.196 49.7003 113.102C49.6011 112.956 49.6415 112.76 49.7902 112.663C50.5239 112.186 51.2456 111.673 51.9369 111.136C52.0774 111.027 52.2822 111.049 52.3942 111.186C52.5062 111.322 52.4823 111.522 52.3419 111.631C51.6367 112.178 50.8994 112.702 50.1511 113.189C50.0997 113.221 50.0418 113.239 49.984 113.242ZM55.3709 108.832C55.2865 108.836 55.2002 108.806 55.1341 108.745C55.0046 108.624 55 108.424 55.124 108.298C55.7336 107.676 56.324 107.022 56.8777 106.352C56.9906 106.216 57.1954 106.195 57.3349 106.304C57.4745 106.414 57.4965 106.613 57.3836 106.749C56.818 107.432 56.2157 108.101 55.5931 108.735C55.5325 108.796 55.4527 108.829 55.3709 108.832ZM59.6451 103.386C59.5836 103.389 59.5211 103.375 59.4651 103.342C59.3118 103.251 59.2622 103.057 59.3549 102.907C59.8113 102.171 60.241 101.408 60.633 100.637C60.7129 100.48 60.9076 100.416 61.0683 100.494C61.2289 100.57 61.2951 100.761 61.2152 100.917C60.8158 101.703 60.3769 102.483 59.9114 103.234C59.8526 103.329 59.7507 103.383 59.6451 103.386ZM62.4841 97.1501C62.0048 96.9947 62.3914 96.7606 63.0139 94.2628C63.1149 93.856 63.7475 94.0041 63.6456 94.4109C63.4335 95.263 63.181 96.117 62.8955 96.9499C62.8385 97.1145 62.6549 97.205 62.4841 97.1501ZM64.0322 90.464C63.529 90.4155 63.8531 90.1074 63.8954 87.5364C63.9027 87.1195 64.5528 87.1259 64.5454 87.5456C64.5307 88.4233 64.4784 89.3092 64.3875 90.1805C64.3691 90.357 64.2066 90.4822 64.0322 90.464ZM64.0065 83.6187C63.8393 83.6251 63.6915 83.5053 63.6713 83.3408C63.5657 82.4841 63.4225 81.6256 63.2462 80.7881C63.2104 80.6171 63.3233 80.4498 63.4996 80.4141C63.6759 80.3794 63.8476 80.4891 63.8834 80.6601C64.0634 81.5149 64.2094 82.3908 64.3168 83.2649C64.3379 83.4386 64.2112 83.5958 64.0322 83.6169C64.0239 83.6178 64.0147 83.6187 64.0065 83.6187Z" fill="#EAC4F9"/>
<path d="M18.7401 115.606C17.7108 115.144 17.225 114.99 17.4188 114.622C17.6199 114.24 17.9596 114.558 19.0128 115.031C19.1762 115.104 19.2469 115.292 19.1716 115.451C19.0963 115.61 18.9035 115.679 18.7401 115.606Z" fill="#EAC4F9"/>
<path d="M18.8649 106.842L22.8866 104.529C24.823 105.498 26.9339 106.174 29.1513 106.5C31.0492 110.504 30.8968 110.919 31.3963 110.88L36.977 110.441C37.1404 110.428 37.2772 110.316 37.3176 110.162L38.4856 105.765C40.6222 105.098 42.5963 104.101 44.3518 102.841L48.6958 104.495C48.8482 104.552 49.0217 104.51 49.1273 104.389L52.7615 100.238C52.868 100.116 52.8836 99.9433 52.8 99.8061L50.432 95.8957C51.4319 94.0086 52.1298 91.9542 52.4676 89.7947L56.7436 87.9744C56.8933 87.9104 56.986 87.7613 56.9732 87.6022L56.5315 82.1714C56.5187 82.0123 56.4039 81.8797 56.245 81.8404L51.7294 80.7113C51.0472 78.6331 50.0262 76.7131 48.7352 75.0061C50.3145 70.8397 50.713 70.6688 50.3347 70.3552C46.0973 66.9659 46.0734 66.5353 45.6327 66.7885L41.6111 69.1008C39.6746 68.1316 37.5637 67.456 35.3463 67.1305C33.4493 63.1277 33.6008 62.7108 33.1014 62.7501C27.5638 63.2813 27.3049 62.9961 27.18 63.4688L26.0121 67.8656C23.8755 68.533 21.9014 69.5305 20.1449 70.7904C15.9194 69.28 15.6972 68.8676 15.3694 69.2425C11.8464 73.4125 11.4405 73.4025 11.6967 73.8249L14.0647 77.7353C13.0648 79.6224 12.367 81.6768 12.0291 83.8363C7.98356 85.6576 7.48407 85.5332 7.52447 86.0288C8.05793 91.3938 7.7632 91.669 8.25167 91.7915L12.7673 92.9206C13.4495 94.9988 14.4705 96.9188 15.7615 98.6258C14.1877 102.778 13.7828 102.961 14.162 103.277C18.4003 106.664 18.4242 107.095 18.8649 106.842Z" fill="url(#paint26_linear_12_413)"/>
<path d="M27.0781 88.5257C26.114 85.7527 27.6483 82.7282 30.5001 81.7847C33.3511 80.842 36.4555 82.3296 37.4195 85.1026C38.3836 87.8756 36.8484 90.9001 33.9975 91.8436C31.1456 92.7881 28.0422 91.2987 27.0781 88.5257ZM33.8414 91.3947H33.8441H33.8414ZM30.8123 82.6843C28.4985 83.4505 27.1983 85.909 28.0018 88.2203C28.7941 90.4978 31.343 91.7211 33.6853 90.9458C36.0267 90.1705 37.2873 87.6873 36.4959 85.4098C35.7025 83.1278 33.1491 81.9099 30.8123 82.6843Z" fill="white"/>
<path d="M32.8498 100.332C32.0436 100.364 31.2366 100.328 30.4432 100.226C30.2045 100.195 30.0301 100.002 30.0209 99.7752C30.02 99.7477 30.0209 99.7203 30.0246 99.6929C30.0604 99.4332 30.3064 99.2504 30.5727 99.2842C31.4854 99.4021 32.4183 99.4241 33.3447 99.3519C40.3238 98.8024 45.596 92.9656 45.3297 86.2172C45.3233 86.0453 45.3123 85.8716 45.2985 85.6988C44.7292 78.6917 38.4388 73.5288 31.2926 74.0892C24.1574 74.6506 18.7741 80.7525 19.3387 87.7423C19.6766 91.9023 21.7784 93.9036 21.7949 94.3397C21.8132 94.8106 21.1898 95.0172 20.9107 94.635C19.3819 92.5486 18.4408 89.9996 18.3324 87.2604C17.866 75.4415 32.1639 68.6831 41.4045 76.3429C44.2481 78.7 45.9761 81.9951 46.2709 85.622C46.2865 85.8095 46.2975 85.9969 46.3048 86.1843C46.4407 89.612 45.2655 92.9162 42.9645 95.5448C40.5377 98.3169 37.1487 100.005 33.4218 100.298C33.2308 100.314 33.0399 100.325 32.8498 100.332Z" fill="white"/>
<path d="M59.6295 64.0941C60.7469 64.5595 61.9479 64.8512 63.1911 64.9389L64.4141 67.2155C64.55 67.4678 64.718 67.2585 67.7085 66.8342C67.9831 66.7903 67.8444 66.5846 68.3311 64.1179C69.4843 63.647 70.5329 62.9961 71.4483 62.2052L73.9311 62.954C74.2065 63.0372 74.1762 62.7702 75.9896 60.3647C76.0429 60.2916 76.0438 60.1919 75.9915 60.1179L74.5003 58.0041C74.9677 56.8914 75.2606 55.6955 75.3487 54.4575C77.5092 53.2489 77.7893 53.2973 77.7452 53.0194C77.2035 49.9986 77.354 49.8322 77.0786 49.7846L74.5242 49.3403C74.0513 48.1919 73.3976 47.1478 72.6034 46.2363L73.3554 43.7641C73.4389 43.4898 73.1708 43.5199 70.7551 41.7142C70.531 41.5524 70.4906 41.7892 68.3852 43.1972C67.2678 42.7318 66.0668 42.4402 64.8236 42.3524L63.6006 40.0758C63.4647 39.8226 63.2967 40.0329 60.3062 40.4571C60.0335 40.501 60.1721 40.6948 59.6836 43.1734C58.5304 43.6443 57.4818 44.2953 56.5664 45.0861L54.0836 44.3373C53.9964 44.3108 53.9027 44.3428 53.8495 44.4159L52.0251 46.9266C51.9718 46.9997 51.9709 47.0985 52.0232 47.1734L53.5144 49.2873C53.047 50.4 52.7541 51.5958 52.666 52.8338C50.5055 54.0425 50.2245 53.994 50.2695 54.2719C50.8112 57.2918 50.6606 57.4591 50.9361 57.5067L53.4905 57.951C53.9634 59.0994 54.6171 60.1435 55.4113 61.055C54.742 63.4313 54.5078 63.5949 54.7383 63.7613L57.2596 65.578C57.4846 65.7398 57.5342 65.4957 59.6295 64.0941Z" fill="url(#paint27_linear_12_413)"/>
<path d="M61.0242 54.9247C60.3154 53.2836 61.0747 51.3828 62.7238 50.6769C64.3719 49.9711 66.2808 50.7272 66.9897 52.3684C67.6976 54.0059 66.9355 55.9121 65.291 56.617C63.6457 57.321 61.7322 56.5622 61.0242 54.9247ZM65.0991 56.1736H65.1019H65.0991ZM61.913 54.5434C62.4107 55.6927 63.754 56.2257 64.9081 55.7311C66.762 54.9366 66.7326 52.2842 64.8503 51.5373C62.9772 50.7949 61.1105 52.6856 61.913 54.5434Z" fill="white"/>
<path d="M51.6891 65.322C51.3879 65.0075 51.0959 64.6775 50.8196 64.3392C50.7076 64.2011 50.7278 63.9991 50.8664 63.8875C51.2144 63.6059 51.3806 64.0685 52.1564 64.8786C52.2795 65.0075 52.274 65.2105 52.1454 65.333C52.0169 65.4555 51.8121 65.4509 51.6891 65.322Z" fill="#EAC4F9"/>
<path d="M48.5452 60.6913C48.1889 59.916 47.8758 59.0785 47.6298 58.2072C47.5141 57.7976 48.1357 57.6257 48.2514 58.0335C48.8886 60.2917 49.4643 60.6264 48.9731 60.8504C48.8096 60.9235 48.6187 60.8513 48.5452 60.6913ZM47.3295 54.273C47.1514 54.2767 47.0045 54.1349 47.0008 53.9576C46.9852 53.078 47.0385 52.1884 47.1615 51.3153C47.2212 50.8947 47.8593 50.9834 47.8006 51.404C47.683 52.2442 47.6307 53.0991 47.6463 53.9457C47.6518 54.2575 47.2946 54.2904 47.3295 54.273ZM48.603 47.6179C48.5581 47.6197 48.5121 47.6124 48.4672 47.5941C48.3028 47.5265 48.2238 47.3381 48.2918 47.1745C48.6297 46.3599 49.0346 45.5663 49.4946 44.8147C49.5873 44.6639 49.7866 44.6154 49.9381 44.7077C50.0905 44.8001 50.1382 44.9976 50.0455 45.1493C49.6029 45.8725 49.2136 46.636 48.8886 47.4195C48.839 47.5393 48.7252 47.6124 48.603 47.6179ZM52.4254 42.0152C52.3364 42.0188 52.2473 41.9859 52.1803 41.9173C52.0563 41.7903 52.06 41.5864 52.1876 41.4629C52.823 40.8513 53.5135 40.2844 54.2379 39.7788C54.3839 39.6773 54.585 39.7121 54.6869 39.8575C54.7888 40.0028 54.7539 40.2031 54.607 40.3045C53.9101 40.79 53.2463 41.3349 52.6348 41.9237C52.5779 41.9823 52.5016 42.0124 52.4254 42.0152ZM57.8657 38.1953C57.8032 38.0289 57.8877 37.8442 58.0548 37.782C58.8858 37.4721 59.7452 37.2252 60.6092 37.0497C61.0251 36.9628 61.1583 37.5937 60.7387 37.6787C59.9077 37.8479 59.0813 38.0856 58.2816 38.3836C58.1099 38.4467 57.9272 38.358 57.8657 38.1953Z" fill="#EAC4F9"/>
<path d="M66.1495 37.4903C64.976 37.3348 64.5619 37.4674 64.5858 37.034C64.5959 36.8567 64.7437 36.7204 64.9255 36.7305C65.3598 36.7543 65.7996 36.7954 66.2349 36.853C66.4112 36.8768 66.5351 37.0377 66.5122 37.2142C66.4892 37.3879 66.3294 37.514 66.1495 37.4903Z" fill="#EAC4F9"/>
<path d="M77.5221 44.4572C76.8528 43.4798 76.48 43.264 76.8197 42.9925C76.9593 42.881 77.1622 42.9038 77.2733 43.0419C77.5451 43.3802 77.8086 43.734 78.0556 44.0951C78.1557 44.2414 78.118 44.4416 77.9711 44.5413C77.8242 44.6419 77.6231 44.6044 77.5221 44.4572Z" fill="#EAC4F9"/>
<path d="M66.1918 70.1193C66.111 69.5918 66.6885 69.8844 68.9114 69.1858C69.3173 69.0578 69.5138 69.6704 69.1052 69.7984C68.2742 70.0599 67.4176 70.2583 66.5591 70.3881C66.3864 70.4156 66.2193 70.2967 66.1918 70.1193ZM72.5171 67.9369C72.4235 67.7861 72.4703 67.5877 72.6227 67.4944C74.6225 66.2647 74.7584 65.6476 75.1083 66.0535C75.224 66.1879 75.2083 66.3909 75.0734 66.5061C74.4132 67.0684 73.7025 67.5849 72.9615 68.0402C72.8091 68.1344 72.6108 68.0878 72.5171 67.9369ZM77.4726 63.4606C77.0328 63.1534 77.6415 62.9458 78.6754 60.8594C78.8645 60.4791 79.443 60.7625 79.2538 61.1438C78.8682 61.9209 78.4201 62.6743 77.9216 63.382C77.8197 63.5264 77.6186 63.5621 77.4726 63.4606ZM80.262 57.4016C79.735 57.2901 80.2161 56.8613 80.3465 54.539C80.3704 54.1148 81.0149 54.1495 80.9911 54.5746C80.9424 55.4386 80.8258 56.3063 80.6449 57.1548C80.6073 57.3285 80.4356 57.4382 80.262 57.4016ZM80.0609 50.4869C79.6037 48.1929 79.0693 47.8473 79.5752 47.6636C79.7423 47.6023 79.9278 47.6882 79.9893 47.8556C80.2886 48.672 80.5255 49.515 80.6945 50.3625C80.7294 50.5362 80.6155 50.7054 80.4411 50.7401C80.2657 50.774 80.0958 50.6606 80.0609 50.4869Z" fill="#EAC4F9"/>
<path d="M62.3032 70.4943C61.8689 70.4504 61.431 70.3891 61.0013 70.3114C60.8259 70.2794 60.7093 70.113 60.7414 69.9384C60.8213 69.4986 61.2483 69.7418 62.3684 69.8552C62.5456 69.8735 62.6751 70.0307 62.6567 70.2072C62.6393 70.3855 62.4777 70.5117 62.3032 70.4943Z" fill="#EAC4F9"/>
<path d="M63.6273 61.5397C63.3215 61.5251 63.137 61.2828 63.1508 61.0323C63.1655 60.7662 63.395 60.5623 63.6594 60.5769C64.1553 60.6035 64.6575 60.5769 65.1533 60.4974C65.2525 60.4617 67.8886 60.2204 69.7323 57.6905C73.3839 52.6647 69.085 45.6988 62.9276 46.6835C59.3853 47.2494 56.8823 50.3763 57.0201 53.8615C57.1587 57.3715 59.4018 58.0965 58.5993 58.7676C58.3946 58.9385 58.0897 58.9129 57.9171 58.7091C56.9888 57.6101 56.3773 56.2771 56.1478 54.8526C55.45 50.5271 58.4148 46.4293 62.7734 45.7326C67.4625 44.9829 71.8377 48.4745 72.0278 53.2947C72.182 57.1822 69.4146 60.7936 65.3057 61.4501C64.7512 61.5369 64.1865 61.568 63.6273 61.5397Z" fill="white"/>
</g>
<defs>
<linearGradient id="paint0_linear_12_413" x1="233.102" y1="60.8075" x2="132.385" y2="109.252" gradientUnits="userSpaceOnUse">
<stop offset="0.00359712" stop-color="#E38DDD"/>
<stop offset="1" stop-color="#9571F6"/>
</linearGradient>
<linearGradient id="paint1_linear_12_413" x1="100.617" y1="159.79" x2="257.01" y2="159.79" gradientUnits="userSpaceOnUse">
<stop stop-color="#FF9BA6"/>
<stop offset="0.9964" stop-color="#FE8598"/>
</linearGradient>
<linearGradient id="paint2_linear_12_413" x1="43.9611" y1="143.11" x2="195.805" y2="143.11" gradientUnits="userSpaceOnUse">
<stop stop-color="#4953A3"/>
<stop offset="1" stop-color="#150E42"/>
</linearGradient>
<linearGradient id="paint3_linear_12_413" x1="158.181" y1="85.7687" x2="-146.3" y2="476.935" gradientUnits="userSpaceOnUse">
<stop stop-color="#FFB800"/>
<stop offset="0.6645" stop-color="#ED3900"/>
<stop offset="1" stop-color="#D93C65"/>
</linearGradient>
<linearGradient id="paint4_linear_12_413" x1="101.118" y1="23.7374" x2="100.275" y2="105.908" gradientUnits="userSpaceOnUse">
<stop stop-color="#FF7A00"/>
<stop offset="1" stop-color="#FF8A00"/>
</linearGradient>
<linearGradient id="paint5_linear_12_413" x1="194.273" y1="-216.901" x2="161.32" y2="-140.1" gradientUnits="userSpaceOnUse">
<stop stop-color="#485CF8"/>
<stop offset="1" stop-color="#150E42"/>
</linearGradient>
<linearGradient id="paint6_linear_12_413" x1="51.7051" y1="155.884" x2="82.541" y2="115.665" gradientUnits="userSpaceOnUse">
<stop stop-color="#F9B776"/>
<stop offset="1" stop-color="#F47960"/>
</linearGradient>
<linearGradient id="paint7_linear_12_413" x1="17.3065" y1="251.001" x2="10.4298" y2="251.001" gradientUnits="userSpaceOnUse">
<stop stop-color="#A737D5"/>
<stop offset="1" stop-color="#EF497A"/>
</linearGradient>
<linearGradient id="paint8_linear_12_413" x1="46.3643" y1="278.004" x2="36.5514" y2="162.826" gradientUnits="userSpaceOnUse">
<stop stop-color="#F9B776"/>
<stop offset="1" stop-color="#F47960"/>
</linearGradient>
<linearGradient id="paint9_linear_12_413" x1="49.2552" y1="249.751" x2="38.1281" y2="249.751" gradientUnits="userSpaceOnUse">
<stop stop-color="#A737D5"/>
<stop offset="1" stop-color="#EF497A"/>
</linearGradient>
<linearGradient id="paint10_linear_12_413" x1="26.4575" y1="279.717" x2="16.642" y2="164.51" gradientUnits="userSpaceOnUse">
<stop stop-color="#F9B776"/>
<stop offset="1" stop-color="#F47960"/>
</linearGradient>
<linearGradient id="paint11_linear_12_413" x1="47.2677" y1="127.454" x2="44.081" y2="158.703" gradientUnits="userSpaceOnUse">
<stop stop-color="#F9B776"/>
<stop offset="1" stop-color="#F47960"/>
</linearGradient>
<linearGradient id="paint12_linear_12_413" x1="50.7597" y1="148.172" x2="40.5369" y2="116.813" gradientUnits="userSpaceOnUse">
<stop stop-color="#F9B776"/>
<stop offset="1" stop-color="#F47960"/>
</linearGradient>
<linearGradient id="paint13_linear_12_413" x1="265.813" y1="-185.828" x2="218.565" y2="-116.828" gradientUnits="userSpaceOnUse">
<stop stop-color="#2B3582"/>
<stop offset="1" stop-color="#150E42"/>
</linearGradient>
<linearGradient id="paint14_linear_12_413" x1="46.9959" y1="149.399" x2="36.7732" y2="118.04" gradientUnits="userSpaceOnUse">
<stop stop-color="#F9B776"/>
<stop offset="1" stop-color="#F47960"/>
</linearGradient>
<linearGradient id="paint15_linear_12_413" x1="53.6412" y1="157.369" x2="84.4771" y2="117.149" gradientUnits="userSpaceOnUse">
<stop stop-color="#F9B776"/>
<stop offset="1" stop-color="#F47960"/>
</linearGradient>
<linearGradient id="paint16_linear_12_413" x1="77.1447" y1="123.765" x2="79.9567" y2="104.75" gradientUnits="userSpaceOnUse">
<stop stop-color="#F9B776"/>
<stop offset="1" stop-color="#F47960"/>
</linearGradient>
<linearGradient id="paint17_linear_12_413" x1="8.44617" y1="174.945" x2="41.46" y2="174.945" gradientUnits="userSpaceOnUse">
<stop stop-color="#F9B776"/>
<stop offset="1" stop-color="#F47960"/>
</linearGradient>
<linearGradient id="paint18_linear_12_413" x1="187.635" y1="-24.9169" x2="15.2145" y2="260.28" gradientUnits="userSpaceOnUse">
<stop stop-color="#CB7E23"/>
<stop offset="1" stop-color="#FF5C00"/>
</linearGradient>
<linearGradient id="paint19_linear_12_413" x1="200.88" y1="-16.9098" x2="28.4592" y2="268.287" gradientUnits="userSpaceOnUse">
<stop stop-color="#FF9900"/>
<stop offset="1" stop-color="#BC3800"/>
</linearGradient>
<linearGradient id="paint20_linear_12_413" x1="93.0789" y1="82.2061" x2="81.4916" y2="167.436" gradientUnits="userSpaceOnUse">
<stop stop-color="#FF6B00"/>
<stop offset="1" stop-color="#F37500"/>
</linearGradient>
<linearGradient id="paint21_linear_12_413" x1="105.341" y1="82.7927" x2="93.7535" y2="167.667" gradientUnits="userSpaceOnUse">
<stop stop-color="#FF6B00"/>
<stop offset="1" stop-color="#F37500"/>
</linearGradient>
<linearGradient id="paint22_linear_12_413" x1="118.687" y1="82.5669" x2="107.1" y2="167.797" gradientUnits="userSpaceOnUse">
<stop stop-color="#FF6B00"/>
<stop offset="1" stop-color="#F37500"/>
</linearGradient>
<linearGradient id="paint23_linear_12_413" x1="144.797" y1="83.3203" x2="133.21" y2="168.194" gradientUnits="userSpaceOnUse">
<stop stop-color="#FF6B00"/>
<stop offset="1" stop-color="#F37500"/>
</linearGradient>
<linearGradient id="paint24_linear_12_413" x1="158.143" y1="83.0945" x2="146.556" y2="168.324" gradientUnits="userSpaceOnUse">
<stop stop-color="#FF6B00"/>
<stop offset="1" stop-color="#F37500"/>
</linearGradient>
<linearGradient id="paint25_linear_12_413" x1="130.949" y1="83.1692" x2="119.365" y2="168.032" gradientUnits="userSpaceOnUse">
<stop stop-color="#FF6B00"/>
<stop offset="1" stop-color="#F37500"/>
</linearGradient>
<linearGradient id="paint26_linear_12_413" x1="12.5178" y1="30.4833" x2="50.5113" y2="139.862" gradientUnits="userSpaceOnUse">
<stop stop-color="#D57937"/>
<stop offset="1" stop-color="#EF497A"/>
</linearGradient>
<linearGradient id="paint27_linear_12_413" x1="37.383" y1="-26.0832" x2="72.0174" y2="73.5913" gradientUnits="userSpaceOnUse">
<stop stop-color="#FF0000"/>
<stop offset="1" stop-color="#E87D00"/>
</linearGradient>
<clipPath id="clip0_12_413">
<rect width="258" height="256" fill="white"/>
</clipPath>
</defs>
</svg>
