<svg width="105" height="35" viewBox="0 0 105 35" fill="none" xmlns="http://www.w3.org/2000/svg">
<path d="M17.1 18.658H17.86V25.878H1.10939e-05V25.118H1.90001V5.35799H1.10939e-05V4.59799H9.88001V5.35799H7.60001V25.118H11.4C12.2613 25.118 12.9707 25.0547 13.528 24.928C14.1107 24.8013 14.706 24.5353 15.314 24.13C16.5047 23.3447 17.1 21.5207 17.1 18.658ZM26.0122 23.598C26.5695 24.8647 27.5322 25.498 28.9002 25.498C30.2682 25.498 31.2435 24.852 31.8262 23.56C32.4089 22.268 32.7002 20.14 32.7002 17.176C32.7002 14.1867 32.4089 12.046 31.8262 10.754C31.2435 9.43666 30.2682 8.77799 28.9002 8.77799C27.5322 8.77799 26.5695 9.43666 26.0122 10.754C25.4549 12.046 25.1762 14.1867 25.1762 17.176C25.1762 20.1653 25.4549 22.306 26.0122 23.598ZM28.8242 26.258C26.4175 26.258 24.2389 25.4727 22.2882 23.902C20.3375 22.3313 19.3622 20.102 19.3622 17.214C19.3622 15.6687 19.6409 14.288 20.1982 13.072C20.7809 11.856 21.5409 10.8933 22.4782 10.184C23.4409 9.47466 24.4669 8.94266 25.5562 8.58799C26.6455 8.20799 27.7602 8.01799 28.9002 8.01799C30.0402 8.01799 31.1549 8.20799 32.2442 8.58799C33.3589 8.94266 34.3849 9.47466 35.3222 10.184C36.2849 10.8933 37.0575 11.856 37.6402 13.072C38.2229 14.288 38.5142 15.656 38.5142 17.176C38.5142 18.696 38.2229 20.0513 37.6402 21.242C37.0575 22.4327 36.2849 23.3827 35.3222 24.092C33.3969 25.536 31.2309 26.258 28.8242 26.258ZM45.8274 22.344C45.8274 23.0533 46.2834 23.4587 47.1954 23.56H53.7314C55.9861 23.56 57.5568 24.0413 58.4434 25.004C59.3301 25.9667 59.6341 27.1573 59.3554 28.576C59.1021 29.9947 58.2408 31.2993 56.7714 32.49C55.3021 33.6807 53.2754 34.276 50.6914 34.276C45.9541 34.276 42.9141 33.5793 41.5714 32.186C41.0648 31.6287 40.8494 30.97 40.9254 30.21C41.0014 29.4753 41.2801 28.8673 41.7614 28.386C42.2428 27.93 42.7874 27.6133 43.3954 27.436C42.5848 26.752 42.1794 25.9033 42.1794 24.89C42.1794 23.8767 42.4834 22.9773 43.0914 22.192C43.7248 21.3813 44.4468 20.7353 45.2574 20.254C42.3441 19.19 40.8874 17.2773 40.8874 14.516C40.8874 12.464 41.8248 10.8807 43.6994 9.76599C45.5994 8.62599 47.7401 8.05599 50.1214 8.05599C51.2614 8.05599 52.4014 8.23332 53.5414 8.58799C52.9588 7.80266 52.6674 6.86532 52.6674 5.77599C52.6674 4.68666 53.0348 3.78732 53.7694 3.07799C54.5294 2.34332 55.4668 1.97599 56.5814 1.97599C57.7214 1.97599 58.5701 2.27999 59.1274 2.88799C59.7101 3.47066 60.0014 4.12932 60.0014 4.86399C60.0014 5.59866 59.7734 6.21932 59.3174 6.72599C58.8868 7.23266 58.3041 7.48599 57.5694 7.48599C56.8601 7.48599 56.2901 7.24532 55.8594 6.76399C55.4288 6.28266 55.2134 5.80132 55.2134 5.31999C55.2134 4.81332 55.3021 4.38266 55.4794 4.02799C55.6821 3.64799 55.7834 3.43266 55.7834 3.38199C55.7074 2.97666 55.4541 2.86266 55.0234 3.03999C54.5928 3.21732 54.2128 3.58466 53.8834 4.14199C53.5794 4.67399 53.4274 5.29466 53.4274 6.00399C53.4274 7.39732 54.0481 8.51199 55.2894 9.34799C57.4681 10.564 58.5574 12.2487 58.5574 14.402C58.5574 16.5553 57.6581 18.1893 55.8594 19.304C54.0608 20.3933 51.9328 20.938 49.4754 20.938C48.2848 20.938 47.2334 20.8113 46.3214 20.558C45.9921 21.1153 45.8274 21.7107 45.8274 22.344ZM52.8574 14.44C52.8574 12.2613 52.6041 10.7793 52.0974 9.99399C51.5908 9.20866 50.8308 8.81599 49.8174 8.81599C48.8294 8.81599 48.1074 9.22132 47.6514 10.032C47.1954 10.8173 46.9674 12.274 46.9674 14.402C46.9674 16.53 47.2081 18.0247 47.6894 18.886C48.1708 19.7473 48.8928 20.178 49.8554 20.178C50.8434 20.178 51.5908 19.76 52.0974 18.924C52.6041 18.088 52.8574 16.5933 52.8574 14.44ZM53.5034 28.5H47.1194C45.9034 28.5 44.8774 28.2847 44.0414 27.854C43.6868 29.678 44.1428 31.0713 45.4094 32.034C46.7014 33.022 48.4621 33.516 50.6914 33.516C52.9208 33.516 54.7701 32.9587 56.2394 31.844C56.9234 31.3373 57.3034 30.8307 57.3794 30.324C57.4554 29.8173 57.1641 29.3867 56.5054 29.032C55.8468 28.6773 54.8461 28.5 53.5034 28.5ZM77.9594 25.118H79.8594V25.878H70.3594V25.118H72.2594V9.15799H70.7394V8.39799H77.9594V25.118ZM78.3014 3.38199C78.3014 4.29399 77.9721 5.07932 77.3134 5.73799C76.6801 6.37132 75.8947 6.68799 74.9574 6.68799C74.0454 6.68799 73.2601 6.37132 72.6014 5.73799C71.9427 5.07932 71.6134 4.29399 71.6134 3.38199C71.6134 2.44466 71.9427 1.64666 72.6014 0.98799C73.2601 0.329322 74.0454 -1.13249e-05 74.9574 -1.13249e-05C75.8947 -1.13249e-05 76.6801 0.329322 77.3134 0.98799C77.9721 1.64666 78.3014 2.44466 78.3014 3.38199ZM102.481 25.118H104.381V25.878H94.8813V25.118H96.7813V14.478C96.7813 12.6793 96.5153 11.4 95.9833 10.64C95.4513 9.87999 94.6533 9.49999 93.5893 9.49999C92.1453 9.49999 90.9926 10.26 90.1313 11.78V25.118H92.0313V25.878H82.5313V25.118H84.4313V9.15799H82.5313V8.39799H90.1313V10.374C90.6126 9.71532 91.3599 9.15799 92.3733 8.70199C93.4119 8.22066 94.5266 7.97999 95.7173 7.97999C100.227 7.97999 102.481 10.4247 102.481 15.314V25.118Z" fill="#424242"/>
</svg>
