<svg width="129" height="35" viewBox="0 0 129 35" fill="none" xmlns="http://www.w3.org/2000/svg">
<path d="M0.760001 25.878H1.3113e-06V17.024H0.760001C0.760001 19.4053 1.60867 21.432 3.306 23.104C5.02867 24.776 7.11867 25.612 9.576 25.612C10.5893 25.612 11.4 25.3207 12.008 24.738C12.6413 24.13 12.958 23.332 12.958 22.344C12.958 21.2293 12.236 20.2793 10.792 19.494C10.0067 19.0887 8.65134 18.4553 6.726 17.594C4.80067 16.7073 3.44534 15.96 2.66 15.352C1.08933 14.136 0.392668 12.5273 0.570001 10.526C0.772668 8.52466 1.53267 6.97932 2.85 5.88999C4.16733 4.77532 5.64933 4.21799 7.296 4.21799C8.968 4.21799 10.4627 4.44599 11.78 4.90199C13.1227 5.33266 13.8827 5.54799 14.06 5.54799C14.5667 5.54799 14.82 5.10466 14.82 4.21799H15.58V11.172H14.82C14.82 9.34799 14.1487 7.86599 12.806 6.72599C11.4633 5.56066 9.74067 4.97799 7.638 4.97799C6.70067 4.97799 5.966 5.25666 5.434 5.81399C4.902 6.34599 4.636 6.94132 4.636 7.59999C4.636 8.25866 4.72467 8.76532 4.902 9.11999C5.07933 9.47466 5.38333 9.80399 5.814 10.108C6.27 10.3867 6.66267 10.6147 6.992 10.792C7.32133 10.9693 7.84067 11.21 8.55 11.514C9.28467 11.818 9.79134 12.0333 10.07 12.16C11.4633 12.7933 12.2867 13.1733 12.54 13.3C12.7933 13.4013 13.1607 13.5787 13.642 13.832C14.1233 14.0853 14.478 14.3133 14.706 14.516C14.9593 14.7187 15.276 14.972 15.656 15.276C16.036 15.58 16.3147 15.8967 16.492 16.226C16.6693 16.53 16.8467 16.8847 17.024 17.29C17.3787 18.1007 17.5053 19.0507 17.404 20.14C17.2013 22.192 16.4287 23.7627 15.086 24.852C13.7687 25.916 11.9827 26.448 9.728 26.448C7.70134 26.448 5.68734 25.9287 3.686 24.89C3.002 24.5353 2.49533 24.358 2.166 24.358C1.22867 24.358 0.760001 24.8647 0.760001 25.878ZM28.0295 25.118H29.9295V25.878H20.4295V25.118H22.3295V9.15799H20.8095V8.39799H28.0295V25.118ZM28.3715 3.38199C28.3715 4.29399 28.0421 5.07932 27.3835 5.73799C26.7501 6.37132 25.9648 6.68799 25.0275 6.68799C24.1155 6.68799 23.3301 6.37132 22.6715 5.73799C22.0128 5.07932 21.6835 4.29399 21.6835 3.38199C21.6835 2.44466 22.0128 1.64666 22.6715 0.98799C23.3301 0.329322 24.1155 -1.13249e-05 25.0275 -1.13249e-05C25.9648 -1.13249e-05 26.7501 0.329322 27.3835 0.98799C28.0421 1.64666 28.3715 2.44466 28.3715 3.38199ZM37.2373 22.344C37.2373 23.0533 37.6933 23.4587 38.6053 23.56H45.1413C47.396 23.56 48.9667 24.0413 49.8533 25.004C50.74 25.9667 51.044 27.1573 50.7653 28.576C50.512 29.9947 49.6507 31.2993 48.1813 32.49C46.712 33.6807 44.6853 34.276 42.1013 34.276C37.364 34.276 34.324 33.5793 32.9813 32.186C32.4747 31.6287 32.2593 30.97 32.3353 30.21C32.4113 29.4753 32.69 28.8673 33.1713 28.386C33.6527 27.93 34.1973 27.6133 34.8053 27.436C33.9947 26.752 33.5893 25.9033 33.5893 24.89C33.5893 23.8767 33.8933 22.9773 34.5013 22.192C35.1347 21.3813 35.8567 20.7353 36.6673 20.254C33.754 19.19 32.2973 17.2773 32.2973 14.516C32.2973 12.464 33.2347 10.8807 35.1093 9.76599C37.0093 8.62599 39.15 8.05599 41.5313 8.05599C42.6713 8.05599 43.8113 8.23332 44.9513 8.58799C44.3687 7.80266 44.0773 6.86532 44.0773 5.77599C44.0773 4.68666 44.4447 3.78732 45.1793 3.07799C45.9393 2.34332 46.8767 1.97599 47.9913 1.97599C49.1313 1.97599 49.98 2.27999 50.5373 2.88799C51.12 3.47066 51.4113 4.12932 51.4113 4.86399C51.4113 5.59866 51.1833 6.21932 50.7273 6.72599C50.2967 7.23266 49.714 7.48599 48.9793 7.48599C48.27 7.48599 47.7 7.24532 47.2693 6.76399C46.8387 6.28266 46.6233 5.80132 46.6233 5.31999C46.6233 4.81332 46.712 4.38266 46.8893 4.02799C47.092 3.64799 47.1933 3.43266 47.1933 3.38199C47.1173 2.97666 46.864 2.86266 46.4333 3.03999C46.0027 3.21732 45.6227 3.58466 45.2933 4.14199C44.9893 4.67399 44.8373 5.29466 44.8373 6.00399C44.8373 7.39732 45.458 8.51199 46.6993 9.34799C48.878 10.564 49.9673 12.2487 49.9673 14.402C49.9673 16.5553 49.068 18.1893 47.2693 19.304C45.4707 20.3933 43.3427 20.938 40.8853 20.938C39.6947 20.938 38.6433 20.8113 37.7313 20.558C37.402 21.1153 37.2373 21.7107 37.2373 22.344ZM44.2673 14.44C44.2673 12.2613 44.014 10.7793 43.5073 9.99399C43.0007 9.20866 42.2407 8.81599 41.2273 8.81599C40.2393 8.81599 39.5173 9.22132 39.0613 10.032C38.6053 10.8173 38.3773 12.274 38.3773 14.402C38.3773 16.53 38.618 18.0247 39.0993 18.886C39.5807 19.7473 40.3027 20.178 41.2653 20.178C42.2533 20.178 43.0007 19.76 43.5073 18.924C44.014 18.088 44.2673 16.5933 44.2673 14.44ZM44.9133 28.5H38.5293C37.3133 28.5 36.2873 28.2847 35.4513 27.854C35.0967 29.678 35.5527 31.0713 36.8193 32.034C38.1113 33.022 39.872 33.516 42.1013 33.516C44.3307 33.516 46.18 32.9587 47.6493 31.844C48.3333 31.3373 48.7133 30.8307 48.7893 30.324C48.8653 29.8173 48.574 29.3867 47.9153 29.032C47.2567 28.6773 46.256 28.5 44.9133 28.5ZM73.5552 25.118H75.4552V25.878H65.9552V25.118H67.8552V14.478C67.8552 12.6793 67.5892 11.4 67.0572 10.64C66.5252 9.87999 65.7272 9.49999 64.6632 9.49999C63.2192 9.49999 62.0666 10.26 61.2052 11.78V25.118H63.1052V25.878H53.6052V25.118H55.5052V9.15799H53.6052V8.39799H61.2052V10.374C61.6866 9.71532 62.4339 9.15799 63.4472 8.70199C64.4859 8.22066 65.6006 7.97999 66.7912 7.97999C71.3006 7.97999 73.5552 10.4247 73.5552 15.314V25.118ZM105.451 16.606C105.451 23.1673 102.69 26.448 97.1675 26.448C94.1022 26.448 91.7082 25.6627 89.9855 24.092C88.2628 22.5213 87.4015 20.1527 87.4015 16.986V5.35799H85.5015V4.59799H95.3815V5.35799H93.4815V17.404C93.4815 22.6987 95.2548 25.346 98.8015 25.346C100.245 25.346 101.55 24.6367 102.715 23.218C103.906 21.774 104.501 19.8233 104.501 17.366V5.35799H101.499V4.59799H107.351V5.35799H105.451V16.606ZM116.109 16.72V22.99C116.793 24.358 117.68 25.042 118.769 25.042C119.884 25.042 120.834 24.4087 121.619 23.142C122.405 21.8753 122.797 19.8487 122.797 17.062C122.797 14.25 122.493 12.2867 121.885 11.172C121.277 10.032 120.353 9.46199 119.111 9.46199C117.87 9.46199 117.059 9.96866 116.679 10.982C116.299 11.9953 116.109 13.908 116.109 16.72ZM116.109 10.146C116.971 8.67666 118.516 7.94199 120.745 7.94199C122.975 7.94199 124.837 8.75266 126.331 10.374C127.826 11.9953 128.573 14.288 128.573 17.252C128.573 20.216 127.839 22.534 126.369 24.206C124.9 25.878 123.114 26.714 121.011 26.714C119.973 26.714 118.997 26.4987 118.085 26.068C117.173 25.6373 116.515 24.9913 116.109 24.13V33.098H118.009V33.858H110.409V9.15799H108.509V8.39799H116.109V10.146Z" fill="#424242"/>
</svg>
