<svg width="167" height="28" viewBox="0 0 167 28" fill="none" xmlns="http://www.w3.org/2000/svg">
<path d="M4.94719e-06 1.48H9.76001L10.44 18.8L17.12 1.48H25.04L26.08 18.8L32.8 1.48H37L27.12 26.88H18.12L17.28 12.52L11.28 26.88H1.68001L4.94719e-06 1.48ZM42.2406 18.84C42.134 19.4267 42.054 19.9867 42.0006 20.52C41.974 21.0533 41.9606 21.5333 41.9606 21.96C41.9606 22.2 41.974 22.4667 42.0006 22.76C42.0273 23.0533 42.0806 23.3333 42.1606 23.6C42.2673 23.84 42.4006 24.0533 42.5606 24.24C42.7473 24.4 43.0006 24.48 43.3206 24.48C43.5606 24.48 43.8273 24.4 44.1206 24.24C44.4406 24.08 44.7473 23.8533 45.0406 23.56C45.3606 23.2667 45.654 22.9067 45.9206 22.48C46.214 22.0533 46.4406 21.5733 46.6006 21.04H53.1606L52.1206 25.32C51.5873 25.6667 50.974 25.96 50.2806 26.2C49.5873 26.44 48.854 26.64 48.0806 26.8C47.3073 26.9333 46.5206 27.0267 45.7206 27.08C44.9206 27.16 44.1606 27.2 43.4406 27.2C42.1073 27.2 40.8673 27.08 39.7206 26.84C38.574 26.6 37.574 26.1867 36.7206 25.6C35.8673 25.0133 35.1873 24.24 34.6806 23.28C34.2006 22.2933 33.9606 21.08 33.9606 19.64C33.9606 18.3333 34.1606 17.0533 34.5606 15.8C34.9873 14.5467 35.6806 13.44 36.6406 12.48C37.6273 11.4933 38.934 10.7067 40.5606 10.12C42.214 9.53334 44.2673 9.24 46.7206 9.24C49.3873 9.24 51.3873 9.65334 52.7206 10.48C54.0806 11.3067 54.7606 12.6 54.7606 14.36C54.7606 15.08 54.654 15.8667 54.4406 16.72C54.2273 17.5467 53.9073 18.2533 53.4806 18.84H42.2406ZM47.5606 14.08C47.5606 13.2533 47.4273 12.6933 47.1606 12.4C46.894 12.1067 46.574 11.96 46.2006 11.96C45.774 11.96 45.374 12.1067 45.0006 12.4C44.654 12.6667 44.334 13.04 44.0406 13.52C43.7473 13.9733 43.4806 14.5067 43.2406 15.12C43.0006 15.7067 42.8006 16.3333 42.6406 17H47.2006C47.254 16.68 47.3073 16.3467 47.3606 16C47.414 15.7067 47.454 15.3867 47.4806 15.04C47.534 14.6933 47.5606 14.3733 47.5606 14.08ZM63.1556 26.88H54.9956L60.6756 2.86102e-06H68.8756L63.1556 26.88ZM84.8744 25.92C83.7544 26.3733 82.5677 26.6933 81.3144 26.88C80.0877 27.0933 78.6877 27.2 77.1144 27.2C75.7277 27.2 74.4477 27.0667 73.2744 26.8C72.1277 26.5067 71.1277 26.0533 70.2744 25.44C69.421 24.8267 68.7544 24.04 68.2744 23.08C67.7944 22.0933 67.5544 20.9067 67.5544 19.52C67.5544 18.08 67.7944 16.7467 68.2744 15.52C68.781 14.2667 69.5277 13.1733 70.5144 12.24C71.5277 11.3067 72.8077 10.5733 74.3544 10.04C75.901 9.50667 77.741 9.24 79.8744 9.24C81.6077 9.24 83.1144 9.38667 84.3944 9.68C85.6744 9.94667 86.7277 10.5733 87.5544 11.56L86.4344 16.68H80.9944C81.021 16.2267 81.0477 15.8267 81.0744 15.48C81.101 15.1333 81.1144 14.7467 81.1144 14.32C81.1144 13.4667 81.021 12.8667 80.8344 12.52C80.6477 12.1467 80.341 11.96 79.9144 11.96C79.1677 11.96 78.5144 12.3333 77.9544 13.08C77.3944 13.8 76.9277 14.68 76.5544 15.72C76.2077 16.7333 75.941 17.8133 75.7544 18.96C75.5944 20.08 75.5144 21.04 75.5144 21.84C75.5144 22.1333 75.5277 22.44 75.5544 22.76C75.581 23.0533 75.6344 23.3333 75.7144 23.6C75.821 23.8667 75.9544 24.08 76.1144 24.24C76.2744 24.4 76.501 24.48 76.7944 24.48C77.061 24.48 77.3677 24.4 77.7144 24.24C78.061 24.08 78.3944 23.84 78.7144 23.52C79.0344 23.1733 79.341 22.7333 79.6344 22.2C79.9277 21.6667 80.1544 21.0267 80.3144 20.28H86.0344L84.8744 25.92ZM100.574 9.24C103.747 9.24 106.054 9.8 107.494 10.92C109.014 12.0933 109.774 14.04 109.774 16.76C109.774 18.44 109.494 19.96 108.934 21.32C108.374 22.6533 107.587 23.76 106.574 24.64C104.547 26.3467 101.614 27.2 97.7738 27.2C94.4938 27.2 92.1471 26.5733 90.7338 25.32C89.2138 24.0133 88.4538 22.0533 88.4538 19.44C88.4538 17.7067 88.8004 16.1333 89.4938 14.72C90.2138 13.3067 91.2404 12.1333 92.5738 11.2C94.5204 9.89334 97.1871 9.24 100.574 9.24ZM97.8538 24.48C98.5204 24.48 99.0938 24.1067 99.5738 23.36C100.08 22.6133 100.48 21.7067 100.774 20.64C101.067 19.5467 101.28 18.4267 101.414 17.28C101.574 16.1067 101.654 15.0933 101.654 14.24C101.654 13.4933 101.574 12.9333 101.414 12.56C101.28 12.16 100.974 11.96 100.494 11.96C99.7738 11.96 99.1471 12.3467 98.6138 13.12C98.1071 13.8933 97.6938 14.8133 97.3738 15.88C97.0538 16.9467 96.8138 18.04 96.6538 19.16C96.5204 20.28 96.4538 21.1867 96.4538 21.88C96.4538 23.6133 96.9204 24.48 97.8538 24.48ZM121.702 12.24C122.262 11.7067 122.888 11.2133 123.582 10.76C124.195 10.3867 124.928 10.04 125.782 9.72C126.635 9.4 127.595 9.24 128.662 9.24C129.942 9.24 130.888 9.53334 131.502 10.12C132.142 10.7067 132.502 11.4267 132.582 12.28H132.822C133.435 11.72 134.102 11.2133 134.822 10.76C135.435 10.3867 136.155 10.04 136.982 9.72C137.808 9.4 138.688 9.24 139.622 9.24C141.008 9.24 142.128 9.62667 142.982 10.4C143.862 11.1467 144.302 12.12 144.302 13.32C144.302 13.9333 144.195 14.7467 143.982 15.76C143.768 16.7733 143.528 17.88 143.262 19.08L141.582 26.88H133.702L135.862 16.44C135.942 16.04 136.022 15.6533 136.102 15.28C136.182 14.9067 136.222 14.6 136.222 14.36C136.222 13.9867 136.115 13.68 135.902 13.44C135.688 13.1733 135.382 13.04 134.982 13.04C134.475 13.04 133.995 13.2267 133.542 13.6C133.115 13.9467 132.782 14.24 132.542 14.48L129.942 26.88H122.462L124.662 16.44C124.715 16.0933 124.782 15.7467 124.862 15.4C124.942 15.0267 124.982 14.6933 124.982 14.4C124.982 14 124.875 13.68 124.662 13.44C124.475 13.1733 124.182 13.04 123.782 13.04C123.302 13.04 122.835 13.2133 122.382 13.56C121.955 13.9067 121.622 14.2 121.382 14.44L118.742 26.88H110.582L114.222 9.68H120.742L121.462 12.24H121.702ZM154.155 18.84C154.048 19.4267 153.968 19.9867 153.915 20.52C153.888 21.0533 153.875 21.5333 153.875 21.96C153.875 22.2 153.888 22.4667 153.915 22.76C153.941 23.0533 153.995 23.3333 154.075 23.6C154.181 23.84 154.315 24.0533 154.475 24.24C154.661 24.4 154.915 24.48 155.235 24.48C155.475 24.48 155.741 24.4 156.035 24.24C156.355 24.08 156.661 23.8533 156.955 23.56C157.275 23.2667 157.568 22.9067 157.835 22.48C158.128 22.0533 158.355 21.5733 158.515 21.04H165.075L164.035 25.32C163.501 25.6667 162.888 25.96 162.195 26.2C161.501 26.44 160.768 26.64 159.995 26.8C159.221 26.9333 158.435 27.0267 157.635 27.08C156.835 27.16 156.075 27.2 155.355 27.2C154.021 27.2 152.781 27.08 151.635 26.84C150.488 26.6 149.488 26.1867 148.635 25.6C147.781 25.0133 147.101 24.24 146.595 23.28C146.115 22.2933 145.875 21.08 145.875 19.64C145.875 18.3333 146.075 17.0533 146.475 15.8C146.901 14.5467 147.595 13.44 148.555 12.48C149.541 11.4933 150.848 10.7067 152.475 10.12C154.128 9.53334 156.181 9.24 158.635 9.24C161.301 9.24 163.301 9.65334 164.635 10.48C165.995 11.3067 166.675 12.6 166.675 14.36C166.675 15.08 166.568 15.8667 166.355 16.72C166.141 17.5467 165.821 18.2533 165.395 18.84H154.155ZM159.475 14.08C159.475 13.2533 159.341 12.6933 159.075 12.4C158.808 12.1067 158.488 11.96 158.115 11.96C157.688 11.96 157.288 12.1067 156.915 12.4C156.568 12.6667 156.248 13.04 155.955 13.52C155.661 13.9733 155.395 14.5067 155.155 15.12C154.915 15.7067 154.715 16.3333 154.555 17H159.115C159.168 16.68 159.221 16.3467 159.275 16C159.328 15.7067 159.368 15.3867 159.395 15.04C159.448 14.6933 159.475 14.3733 159.475 14.08Z" fill="black"/>
</svg>
