<svg width="20" height="20" viewBox="0 0 20 20" fill="none" xmlns="http://www.w3.org/2000/svg">
<path d="M6.66668 5.83334H13.3333C14.9047 5.83334 15.6903 5.83334 16.1785 6.32149C16.6667 6.80964 16.6667 7.59532 16.6667 9.16667V12.5C16.6667 15.2498 16.6667 16.6248 15.8124 17.4791C14.9581 18.3333 13.5832 18.3333 10.8333 18.3333H9.16668C6.41682 18.3333 5.04188 18.3333 4.18762 17.4791C3.33334 16.6248 3.33334 15.2498 3.33334 12.5V9.16667C3.33334 7.59532 3.33334 6.80964 3.8215 6.32149C4.30965 5.83334 5.09533 5.83334 6.66668 5.83334Z" stroke="#616161" stroke-width="1.25" stroke-linecap="round" stroke-linejoin="round"/>
<path d="M13.3333 7.91666C13.3333 4.69501 11.8409 1.66666 9.99999 1.66666C8.15904 1.66666 6.66666 4.69501 6.66666 7.91666" stroke="#616161" stroke-width="1.25" stroke-linecap="round" stroke-linejoin="round"/>
</svg>
