<svg width="80" height="15" viewBox="0 0 80 15" fill="none" xmlns="http://www.w3.org/2000/svg">
<path d="M2.30968e-07 6.076C2.30968e-07 5.11466 0.214667 4.256 0.644 3.5C1.08267 2.73466 1.67533 2.142 2.422 1.722C3.178 1.29266 4.02267 1.078 4.956 1.078C6.048 1.078 7.00467 1.358 7.826 1.918C8.64733 2.478 9.22133 3.25266 9.548 4.242H7.294C7.07 3.77533 6.75267 3.42533 6.342 3.192C5.94067 2.95866 5.474 2.842 4.942 2.842C4.37267 2.842 3.864 2.97733 3.416 3.248C2.97733 3.50933 2.632 3.88266 2.38 4.368C2.13733 4.85333 2.016 5.42266 2.016 6.076C2.016 6.72 2.13733 7.28933 2.38 7.784C2.632 8.26933 2.97733 8.64733 3.416 8.918C3.864 9.17933 4.37267 9.31 4.942 9.31C5.474 9.31 5.94067 9.19333 6.342 8.96C6.75267 8.71733 7.07 8.36266 7.294 7.896H9.548C9.22133 8.89466 8.64733 9.674 7.826 10.234C7.014 10.7847 6.05733 11.06 4.956 11.06C4.02267 11.06 3.178 10.85 2.422 10.43C1.67533 10.0007 1.08267 9.408 0.644 8.652C0.214667 7.896 2.30968e-07 7.03733 2.30968e-07 6.076ZM10.9181 7.07C10.9181 6.286 11.0721 5.59066 11.3801 4.984C11.6974 4.37733 12.1221 3.91066 12.6541 3.584C13.1954 3.25733 13.7974 3.094 14.4601 3.094C15.0388 3.094 15.5428 3.21066 15.9721 3.444C16.4108 3.67733 16.7608 3.97133 17.0221 4.326V3.22H18.9961V10.976H17.0221V9.842C16.7701 10.206 16.4201 10.5093 15.9721 10.752C15.5334 10.9853 15.0248 11.102 14.4461 11.102C13.7928 11.102 13.1954 10.934 12.6541 10.598C12.1221 10.262 11.6974 9.79066 11.3801 9.184C11.0721 8.568 10.9181 7.86333 10.9181 7.07ZM17.0221 7.098C17.0221 6.622 16.9288 6.216 16.7421 5.88C16.5554 5.53466 16.3034 5.27333 15.9861 5.096C15.6688 4.90933 15.3281 4.816 14.9641 4.816C14.6001 4.816 14.2641 4.90466 13.9561 5.082C13.6481 5.25933 13.3961 5.52066 13.2001 5.866C13.0134 6.202 12.9201 6.60333 12.9201 7.07C12.9201 7.53666 13.0134 7.94733 13.2001 8.302C13.3961 8.64733 13.6481 8.91333 13.9561 9.1C14.2734 9.28666 14.6094 9.38 14.9641 9.38C15.3281 9.38 15.6688 9.29133 15.9861 9.114C16.3034 8.92733 16.5554 8.666 16.7421 8.33C16.9288 7.98466 17.0221 7.574 17.0221 7.098ZM23.3924 4.83V8.582C23.3924 8.84333 23.453 9.03466 23.5744 9.156C23.705 9.268 23.9197 9.324 24.2184 9.324H25.1284V10.976H23.8964C22.2444 10.976 21.4184 10.1733 21.4184 8.568V4.83H20.4944V3.22H21.4184V1.302H23.3924V3.22H25.1284V4.83H23.3924ZM33.9481 6.93C33.9481 7.21 33.9294 7.462 33.8921 7.686H28.2221C28.2688 8.246 28.4648 8.68466 28.8101 9.002C29.1554 9.31933 29.5801 9.478 30.0841 9.478C30.8121 9.478 31.3301 9.16533 31.6381 8.54H33.7521C33.5281 9.28666 33.0988 9.90266 32.4641 10.388C31.8294 10.864 31.0501 11.102 30.1261 11.102C29.3794 11.102 28.7074 10.9387 28.1101 10.612C27.5221 10.276 27.0601 9.80466 26.7241 9.198C26.3974 8.59133 26.2341 7.89133 26.2341 7.098C26.2341 6.29533 26.3974 5.59066 26.7241 4.984C27.0508 4.37733 27.5081 3.91066 28.0961 3.584C28.6841 3.25733 29.3608 3.094 30.1261 3.094C30.8634 3.094 31.5214 3.25266 32.1001 3.57C32.6881 3.88733 33.1408 4.34 33.4581 4.928C33.7848 5.50666 33.9481 6.174 33.9481 6.93ZM31.9181 6.37C31.9088 5.866 31.7268 5.46466 31.3721 5.166C31.0174 4.858 30.5834 4.704 30.0701 4.704C29.5848 4.704 29.1741 4.85333 28.8381 5.152C28.5114 5.44133 28.3108 5.84733 28.2361 6.37H31.9181ZM38.6167 3.094C39.1954 3.094 39.7041 3.21066 40.1427 3.444C40.5814 3.668 40.9267 3.962 41.1787 4.326V3.22H43.1527V11.032C43.1527 11.7507 43.0081 12.39 42.7187 12.95C42.4294 13.5193 41.9954 13.9673 41.4167 14.294C40.8381 14.63 40.1381 14.798 39.3167 14.798C38.2154 14.798 37.3101 14.5413 36.6007 14.028C35.9007 13.5147 35.5041 12.8147 35.4107 11.928H37.3567C37.4594 12.2827 37.6787 12.5627 38.0147 12.768C38.3601 12.9827 38.7754 13.09 39.2607 13.09C39.8301 13.09 40.2921 12.9173 40.6467 12.572C41.0014 12.236 41.1787 11.7227 41.1787 11.032V9.828C40.9267 10.192 40.5767 10.4953 40.1287 10.738C39.6901 10.9807 39.1861 11.102 38.6167 11.102C37.9634 11.102 37.3661 10.934 36.8247 10.598C36.2834 10.262 35.8541 9.79066 35.5367 9.184C35.2287 8.568 35.0747 7.86333 35.0747 7.07C35.0747 6.286 35.2287 5.59066 35.5367 4.984C35.8541 4.37733 36.2787 3.91066 36.8107 3.584C37.3521 3.25733 37.9541 3.094 38.6167 3.094ZM41.1787 7.098C41.1787 6.622 41.0854 6.216 40.8987 5.88C40.7121 5.53466 40.4601 5.27333 40.1427 5.096C39.8254 4.90933 39.4847 4.816 39.1207 4.816C38.7567 4.816 38.4207 4.90466 38.1127 5.082C37.8047 5.25933 37.5527 5.52066 37.3567 5.866C37.1701 6.202 37.0767 6.60333 37.0767 7.07C37.0767 7.53666 37.1701 7.94733 37.3567 8.302C37.5527 8.64733 37.8047 8.91333 38.1127 9.1C38.4301 9.28666 38.7661 9.38 39.1207 9.38C39.4847 9.38 39.8254 9.29133 40.1427 9.114C40.4601 8.92733 40.7121 8.666 40.8987 8.33C41.0854 7.98466 41.1787 7.574 41.1787 7.098ZM48.711 11.102C47.9643 11.102 47.2923 10.9387 46.695 10.612C46.0977 10.276 45.6263 9.80466 45.281 9.198C44.945 8.59133 44.777 7.89133 44.777 7.098C44.777 6.30466 44.9497 5.60466 45.295 4.998C45.6497 4.39133 46.1303 3.92466 46.737 3.598C47.3437 3.262 48.0203 3.094 48.767 3.094C49.5137 3.094 50.1903 3.262 50.797 3.598C51.4037 3.92466 51.8797 4.39133 52.225 4.998C52.5797 5.60466 52.757 6.30466 52.757 7.098C52.757 7.89133 52.575 8.59133 52.211 9.198C51.8563 9.80466 51.371 10.276 50.755 10.612C50.1483 10.9387 49.467 11.102 48.711 11.102ZM48.711 9.394C49.0657 9.394 49.397 9.31 49.705 9.142C50.0223 8.96466 50.2743 8.70333 50.461 8.358C50.6477 8.01266 50.741 7.59266 50.741 7.098C50.741 6.36066 50.545 5.796 50.153 5.404C49.7703 5.00266 49.299 4.802 48.739 4.802C48.179 4.802 47.7077 5.00266 47.325 5.404C46.9517 5.796 46.765 6.36066 46.765 7.098C46.765 7.83533 46.947 8.40466 47.311 8.806C47.6843 9.198 48.151 9.394 48.711 9.394ZM56.3548 4.424C56.6068 4.01333 56.9334 3.69133 57.3348 3.458C57.7454 3.22466 58.2121 3.108 58.7348 3.108V5.166H58.2168C57.6008 5.166 57.1341 5.31066 56.8168 5.6C56.5088 5.88933 56.3548 6.39333 56.3548 7.112V10.976H54.3948V3.22H56.3548V4.424ZM61.2489 2.296C60.9036 2.296 60.6142 2.18866 60.3809 1.974C60.1569 1.75 60.0449 1.47466 60.0449 1.148C60.0449 0.821331 60.1569 0.550664 60.3809 0.335997C60.6142 0.111997 60.9036 -2.6226e-06 61.2489 -2.6226e-06C61.5942 -2.6226e-06 61.8789 0.111997 62.1029 0.335997C62.3362 0.550664 62.4529 0.821331 62.4529 1.148C62.4529 1.47466 62.3362 1.75 62.1029 1.974C61.8789 2.18866 61.5942 2.296 61.2489 2.296ZM62.2149 3.22V10.976H60.2549V3.22H62.2149ZM71.5614 6.93C71.5614 7.21 71.5427 7.462 71.5054 7.686H65.8354C65.8821 8.246 66.0781 8.68466 66.4234 9.002C66.7687 9.31933 67.1934 9.478 67.6974 9.478C68.4254 9.478 68.9434 9.16533 69.2514 8.54H71.3654C71.1414 9.28666 70.7121 9.90266 70.0774 10.388C69.4427 10.864 68.6634 11.102 67.7394 11.102C66.9927 11.102 66.3207 10.9387 65.7234 10.612C65.1354 10.276 64.6734 9.80466 64.3374 9.198C64.0107 8.59133 63.8474 7.89133 63.8474 7.098C63.8474 6.29533 64.0107 5.59066 64.3374 4.984C64.6641 4.37733 65.1214 3.91066 65.7094 3.584C66.2974 3.25733 66.9741 3.094 67.7394 3.094C68.4767 3.094 69.1347 3.25266 69.7134 3.57C70.3014 3.88733 70.7541 4.34 71.0714 4.928C71.3981 5.50666 71.5614 6.174 71.5614 6.93ZM69.5314 6.37C69.5221 5.866 69.3401 5.46466 68.9854 5.166C68.6307 4.858 68.1967 4.704 67.6834 4.704C67.1981 4.704 66.7874 4.85333 66.4514 5.152C66.1247 5.44133 65.9241 5.84733 65.8494 6.37H69.5314ZM76.16 11.102C75.5254 11.102 74.956 10.99 74.452 10.766C73.948 10.5327 73.5467 10.22 73.248 9.828C72.9587 9.436 72.8 9.002 72.772 8.526H74.746C74.7834 8.82466 74.928 9.072 75.18 9.268C75.4414 9.464 75.7634 9.562 76.146 9.562C76.5194 9.562 76.8087 9.48733 77.014 9.338C77.2287 9.18866 77.336 8.99733 77.336 8.764C77.336 8.512 77.2054 8.32533 76.944 8.204C76.692 8.07333 76.286 7.93333 75.726 7.784C75.1474 7.644 74.6714 7.49933 74.298 7.35C73.934 7.20066 73.6167 6.972 73.346 6.664C73.0847 6.356 72.954 5.94066 72.954 5.418C72.954 4.98866 73.0754 4.59666 73.318 4.242C73.57 3.88733 73.9247 3.60733 74.382 3.402C74.8487 3.19666 75.3947 3.094 76.02 3.094C76.944 3.094 77.6814 3.32733 78.232 3.794C78.7827 4.25133 79.086 4.872 79.142 5.656H77.266C77.238 5.348 77.1074 5.10533 76.874 4.928C76.65 4.74133 76.3467 4.648 75.964 4.648C75.6094 4.648 75.334 4.71333 75.138 4.844C74.9514 4.97466 74.858 5.15666 74.858 5.39C74.858 5.65133 74.9887 5.852 75.25 5.992C75.5114 6.12266 75.9174 6.258 76.468 6.398C77.028 6.538 77.49 6.68266 77.854 6.832C78.218 6.98133 78.5307 7.21466 78.792 7.532C79.0627 7.84 79.2027 8.25066 79.212 8.764C79.212 9.212 79.086 9.61333 78.834 9.968C78.5914 10.3227 78.2367 10.6027 77.77 10.808C77.3127 11.004 76.776 11.102 76.16 11.102Z" fill="#424242"/>
</svg>
