<svg width="22" height="22" viewBox="0 0 22 22" fill="none" xmlns="http://www.w3.org/2000/svg">
<path d="M6.41666 19.25V16.5" stroke="white" stroke-width="1.375" stroke-linecap="round" stroke-linejoin="round"/>
<path d="M15.5833 19.25V13.75" stroke="white" stroke-width="1.375" stroke-linecap="round" stroke-linejoin="round"/>
<path d="M15.5833 5.5V2.75" stroke="white" stroke-width="1.375" stroke-linecap="round" stroke-linejoin="round"/>
<path d="M6.41666 8.25V2.75" stroke="white" stroke-width="1.375" stroke-linecap="round" stroke-linejoin="round"/>
<path d="M6.41666 16.5C5.56243 16.5 5.13532 16.5 4.7984 16.3605C4.34919 16.1744 3.99228 15.8175 3.80621 15.3683C3.66666 15.0313 3.66666 14.6042 3.66666 13.75C3.66666 12.8958 3.66666 12.4687 3.80621 12.1317C3.99228 11.6826 4.34919 11.3256 4.7984 11.1395C5.13532 11 5.56243 11 6.41666 11C7.27088 11 7.69799 11 8.03491 11.1395C8.48413 11.3256 8.84103 11.6826 9.0271 12.1317C9.16666 12.4687 9.16666 12.8958 9.16666 13.75C9.16666 14.6042 9.16666 15.0313 9.0271 15.3683C8.84103 15.8175 8.48413 16.1744 8.03491 16.3605C7.69799 16.5 7.27088 16.5 6.41666 16.5Z" stroke="white" stroke-width="1.375"/>
<path d="M15.5833 11C14.7291 11 14.302 11 13.9651 10.8605C13.5159 10.6744 13.1589 10.3175 12.9729 9.86828C12.8333 9.53132 12.8333 9.10422 12.8333 8.25C12.8333 7.39578 12.8333 6.96867 12.9729 6.63174C13.1589 6.18253 13.5159 5.82563 13.9651 5.63955C14.302 5.5 14.7291 5.5 15.5833 5.5C16.4376 5.5 16.8647 5.5 17.2016 5.63955C17.6508 5.82563 18.0077 6.18253 18.1938 6.63174C18.3333 6.96867 18.3333 7.39578 18.3333 8.25C18.3333 9.10422 18.3333 9.53132 18.1938 9.86828C18.0077 10.3175 17.6508 10.6744 17.2016 10.8605C16.8647 11 16.4376 11 15.5833 11Z" stroke="white" stroke-width="1.375"/>
</svg>
