<svg width="103" height="16" viewBox="0 0 103 16" fill="none" xmlns="http://www.w3.org/2000/svg">
<path d="M6.93 4.494C6.75267 4.16734 6.496 3.92 6.16 3.752C5.83334 3.57467 5.446 3.486 4.998 3.486C4.22334 3.486 3.60267 3.74267 3.136 4.256C2.66934 4.76 2.436 5.43667 2.436 6.286C2.436 7.19134 2.67867 7.90067 3.164 8.414C3.65867 8.918 4.33534 9.17 5.194 9.17C5.782 9.17 6.27667 9.02067 6.678 8.722C7.08867 8.42334 7.38734 7.994 7.574 7.434H4.536V5.67H9.744V7.896C9.56667 8.49334 9.26334 9.04867 8.834 9.562C8.414 10.0753 7.87734 10.4907 7.224 10.808C6.57067 11.1253 5.83334 11.284 5.012 11.284C4.04134 11.284 3.17334 11.074 2.408 10.654C1.652 10.2247 1.05934 9.632 0.630002 8.876C0.210002 8.12 2.01166e-06 7.25667 2.01166e-06 6.286C2.01166e-06 5.31534 0.210002 4.452 0.630002 3.696C1.05934 2.93067 1.652 2.338 2.408 1.918C3.164 1.48867 4.02734 1.274 4.998 1.274C6.174 1.274 7.16334 1.55867 7.966 2.128C8.778 2.69734 9.31467 3.486 9.576 4.494H6.93ZM14.8261 11.326C14.0607 11.326 13.3701 11.1627 12.7541 10.836C12.1474 10.5093 11.6667 10.0427 11.3121 9.436C10.9667 8.82934 10.7941 8.12 10.7941 7.308C10.7941 6.50534 10.9714 5.80067 11.3261 5.194C11.6807 4.578 12.1661 4.10667 12.7821 3.78C13.3981 3.45334 14.0887 3.29 14.8541 3.29C15.6194 3.29 16.3101 3.45334 16.9261 3.78C17.5421 4.10667 18.0274 4.578 18.3821 5.194C18.7367 5.80067 18.9141 6.50534 18.9141 7.308C18.9141 8.11067 18.7321 8.82 18.3681 9.436C18.0134 10.0427 17.5234 10.5093 16.8981 10.836C16.2821 11.1627 15.5914 11.326 14.8261 11.326ZM14.8261 9.254C15.2834 9.254 15.6707 9.086 15.9881 8.75C16.3147 8.414 16.4781 7.93334 16.4781 7.308C16.4781 6.68267 16.3194 6.202 16.0021 5.866C15.6941 5.53 15.3114 5.362 14.8541 5.362C14.3874 5.362 14.0001 5.53 13.6921 5.866C13.3841 6.19267 13.2301 6.67334 13.2301 7.308C13.2301 7.93334 13.3794 8.414 13.6781 8.75C13.9861 9.086 14.3687 9.254 14.8261 9.254ZM23.9401 11.326C23.1748 11.326 22.4841 11.1627 21.8681 10.836C21.2615 10.5093 20.7808 10.0427 20.4261 9.436C20.0808 8.82934 19.9081 8.12 19.9081 7.308C19.9081 6.50534 20.0855 5.80067 20.4401 5.194C20.7948 4.578 21.2801 4.10667 21.8961 3.78C22.5121 3.45334 23.2028 3.29 23.9681 3.29C24.7335 3.29 25.4241 3.45334 26.0401 3.78C26.6561 4.10667 27.1415 4.578 27.4961 5.194C27.8508 5.80067 28.0281 6.50534 28.0281 7.308C28.0281 8.11067 27.8461 8.82 27.4821 9.436C27.1275 10.0427 26.6375 10.5093 26.0121 10.836C25.3961 11.1627 24.7055 11.326 23.9401 11.326ZM23.9401 9.254C24.3975 9.254 24.7848 9.086 25.1021 8.75C25.4288 8.414 25.5921 7.93334 25.5921 7.308C25.5921 6.68267 25.4335 6.202 25.1161 5.866C24.8081 5.53 24.4255 5.362 23.9681 5.362C23.5015 5.362 23.1141 5.53 22.8061 5.866C22.4981 6.19267 22.3441 6.67334 22.3441 7.308C22.3441 7.93334 22.4935 8.414 22.7921 8.75C23.1001 9.086 23.4828 9.254 23.9401 9.254ZM29.0222 7.294C29.0222 6.49134 29.1715 5.78667 29.4702 5.18C29.7782 4.57334 30.1935 4.10667 30.7162 3.78C31.2389 3.45334 31.8222 3.29 32.4662 3.29C32.9795 3.29 33.4462 3.39734 33.8662 3.612C34.2955 3.82667 34.6315 4.116 34.8742 4.48V0.854004H37.2682V11.214H34.8742V10.094C34.6502 10.4673 34.3282 10.766 33.9082 10.99C33.4975 11.214 33.0169 11.326 32.4662 11.326C31.8222 11.326 31.2389 11.1627 30.7162 10.836C30.1935 10.5 29.7782 10.0287 29.4702 9.422C29.1715 8.806 29.0222 8.09667 29.0222 7.294ZM34.8742 7.308C34.8742 6.71067 34.7062 6.23934 34.3702 5.894C34.0435 5.54867 33.6422 5.376 33.1662 5.376C32.6902 5.376 32.2842 5.54867 31.9482 5.894C31.6215 6.23 31.4582 6.69667 31.4582 7.294C31.4582 7.89134 31.6215 8.36734 31.9482 8.722C32.2842 9.06734 32.6902 9.24 33.1662 9.24C33.6422 9.24 34.0435 9.06734 34.3702 8.722C34.7062 8.37667 34.8742 7.90534 34.8742 7.308ZM53.4969 1.386V11.214H51.1029V5.32L48.9049 11.214H46.9729L44.7609 5.306V11.214H42.3669V1.386H45.1949L47.9529 8.19L50.6829 1.386H53.4969ZM58.9745 11.326C58.2092 11.326 57.5185 11.1627 56.9025 10.836C56.2958 10.5093 55.8152 10.0427 55.4605 9.436C55.1152 8.82934 54.9425 8.12 54.9425 7.308C54.9425 6.50534 55.1198 5.80067 55.4745 5.194C55.8292 4.578 56.3145 4.10667 56.9305 3.78C57.5465 3.45334 58.2372 3.29 59.0025 3.29C59.7678 3.29 60.4585 3.45334 61.0745 3.78C61.6905 4.10667 62.1758 4.578 62.5305 5.194C62.8852 5.80067 63.0625 6.50534 63.0625 7.308C63.0625 8.11067 62.8805 8.82 62.5165 9.436C62.1618 10.0427 61.6718 10.5093 61.0465 10.836C60.4305 11.1627 59.7398 11.326 58.9745 11.326ZM58.9745 9.254C59.4318 9.254 59.8192 9.086 60.1365 8.75C60.4632 8.414 60.6265 7.93334 60.6265 7.308C60.6265 6.68267 60.4678 6.202 60.1505 5.866C59.8425 5.53 59.4598 5.362 59.0025 5.362C58.5358 5.362 58.1485 5.53 57.8405 5.866C57.5325 6.19267 57.3785 6.67334 57.3785 7.308C57.3785 7.93334 57.5278 8.414 57.8265 8.75C58.1345 9.086 58.5172 9.254 58.9745 9.254ZM66.9266 4.704C67.2066 4.27467 67.5566 3.93867 67.9766 3.696C68.3966 3.444 68.8632 3.318 69.3766 3.318V5.852H68.7186C68.1212 5.852 67.6732 5.98267 67.3746 6.244C67.0759 6.496 66.9266 6.944 66.9266 7.588V11.214H64.5326V3.402H66.9266V4.704ZM75.4808 3.318C76.3955 3.318 77.1235 3.61667 77.6648 4.214C78.2155 4.802 78.4908 5.614 78.4908 6.65V11.214H76.1108V6.972C76.1108 6.44934 75.9755 6.04334 75.7048 5.754C75.4342 5.46467 75.0702 5.32 74.6128 5.32C74.1555 5.32 73.7915 5.46467 73.5208 5.754C73.2502 6.04334 73.1148 6.44934 73.1148 6.972V11.214H70.7208V3.402H73.1148V4.438C73.3575 4.09267 73.6842 3.822 74.0948 3.626C74.5055 3.42067 74.9675 3.318 75.4808 3.318ZM81.5584 2.59C81.1384 2.59 80.7931 2.46867 80.5224 2.226C80.2611 1.974 80.1304 1.666 80.1304 1.302C80.1304 0.928671 80.2611 0.620671 80.5224 0.378004C80.7931 0.126004 81.1384 3.69549e-06 81.5584 3.69549e-06C81.9691 3.69549e-06 82.3051 0.126004 82.5664 0.378004C82.8371 0.620671 82.9724 0.928671 82.9724 1.302C82.9724 1.666 82.8371 1.974 82.5664 2.226C82.3051 2.46867 81.9691 2.59 81.5584 2.59ZM82.7484 3.402V11.214H80.3544V3.402H82.7484ZM89.4433 3.318C90.358 3.318 91.086 3.61667 91.6273 4.214C92.178 4.802 92.4533 5.614 92.4533 6.65V11.214H90.0733V6.972C90.0733 6.44934 89.938 6.04334 89.6673 5.754C89.3967 5.46467 89.0327 5.32 88.5753 5.32C88.118 5.32 87.754 5.46467 87.4833 5.754C87.2127 6.04334 87.0773 6.44934 87.0773 6.972V11.214H84.6833V3.402H87.0773V4.438C87.32 4.09267 87.6467 3.822 88.0573 3.626C88.468 3.42067 88.93 3.318 89.4433 3.318ZM97.2849 3.29C97.8356 3.29 98.3163 3.402 98.7269 3.626C99.1469 3.85 99.4689 4.144 99.6929 4.508V3.402H102.087V11.2C102.087 11.9187 101.942 12.5673 101.653 13.146C101.373 13.734 100.939 14.2007 100.351 14.546C99.7723 14.8913 99.0489 15.064 98.1809 15.064C97.0236 15.064 96.0856 14.7887 95.3669 14.238C94.6483 13.6967 94.2376 12.9593 94.1349 12.026H96.5009C96.5756 12.3247 96.7529 12.558 97.0329 12.726C97.3129 12.9033 97.6583 12.992 98.0689 12.992C98.5636 12.992 98.9556 12.8473 99.2449 12.558C99.5436 12.278 99.6929 11.8253 99.6929 11.2V10.094C99.4596 10.458 99.1376 10.7567 98.7269 10.99C98.3163 11.214 97.8356 11.326 97.2849 11.326C96.6409 11.326 96.0576 11.1627 95.5349 10.836C95.0123 10.5 94.5969 10.0287 94.2889 9.422C93.9903 8.806 93.8409 8.09667 93.8409 7.294C93.8409 6.49134 93.9903 5.78667 94.2889 5.18C94.5969 4.57334 95.0123 4.10667 95.5349 3.78C96.0576 3.45334 96.6409 3.29 97.2849 3.29ZM99.6929 7.308C99.6929 6.71067 99.5249 6.23934 99.1889 5.894C98.8623 5.54867 98.4609 5.376 97.9849 5.376C97.5089 5.376 97.1029 5.54867 96.7669 5.894C96.4403 6.23 96.2769 6.69667 96.2769 7.294C96.2769 7.89134 96.4403 8.36734 96.7669 8.722C97.1029 9.06734 97.5089 9.24 97.9849 9.24C98.4609 9.24 98.8623 9.06734 99.1889 8.722C99.5249 8.37667 99.6929 7.90534 99.6929 7.308Z" fill="#424242"/>
</svg>
