<svg width="34" height="29" viewBox="0 0 34 29" fill="none" xmlns="http://www.w3.org/2000/svg">
<path d="M31.6667 0H1.66667C1.22464 0 0.800716 0.175595 0.488155 0.488156C0.175595 0.800716 0 1.22464 0 1.66667V25C0 25.8841 0.351189 26.7319 0.976311 27.357C1.60143 27.9821 2.44928 28.3333 3.33333 28.3333H30C30.8841 28.3333 31.7319 27.9821 32.357 27.357C32.9821 26.7319 33.3333 25.8841 33.3333 25V1.66667C33.3333 1.22464 33.1577 0.800716 32.8452 0.488156C32.5326 0.175595 32.1087 0 31.6667 0ZM16.6667 15C11.1517 15 6.66667 10.515 6.66667 5H10C10 8.67667 12.99 11.6667 16.6667 11.6667C20.3433 11.6667 23.3333 8.67667 23.3333 5H26.6667C26.6667 10.515 22.1817 15 16.6667 15Z" fill="white"/>
</svg>
