<svg width="250" height="250" viewBox="0 0 250 250" fill="none" xmlns="http://www.w3.org/2000/svg">
<path d="M250 191.2H0V191.325H250V191.2Z" fill="#EBEBEB"/>
<path d="M224.95 199.245H208.39V199.37H224.95V199.245Z" fill="#EBEBEB"/>
<path d="M165.61 200.605H161.265V200.73H165.61V200.605Z" fill="#EBEBEB"/>
<path d="M207.89 194.605H198.295V194.73H207.89V194.605Z" fill="#EBEBEB"/>
<path d="M47.8255 195.445H26.2305V195.57H47.8255V195.445Z" fill="#EBEBEB"/>
<path d="M55.4453 195.445H52.2803V195.57H55.4453V195.445Z" fill="#EBEBEB"/>
<path d="M112.575 197.555H65.7354V197.68H112.575V197.555Z" fill="#EBEBEB"/>
<path d="M118.5 168.9H21.9555C21.1991 168.899 20.4742 168.597 19.9399 168.062C19.4056 167.527 19.1055 166.801 19.1055 166.045V30.33C19.1121 29.578 19.4151 28.859 19.9487 28.3291C20.4823 27.7992 21.2035 27.5013 21.9555 27.5H118.5C119.258 27.5 119.984 27.8008 120.519 28.3362C121.055 28.8716 121.355 29.5978 121.355 30.355V166.045C121.355 166.802 121.055 167.528 120.519 168.064C119.984 168.599 119.258 168.9 118.5 168.9ZM21.9555 27.6C21.2323 27.6013 20.5392 27.8895 20.0283 28.4014C19.5174 28.9132 19.2305 29.6068 19.2305 30.33V166.045C19.2305 166.768 19.5174 167.462 20.0283 167.974C20.5392 168.485 21.2323 168.774 21.9555 168.775H118.5C119.224 168.774 119.918 168.486 120.429 167.974C120.941 167.462 121.229 166.769 121.23 166.045V30.33C121.229 29.6064 120.941 28.9127 120.429 28.4011C119.918 27.8894 119.224 27.6013 118.5 27.6H21.9555Z" fill="#EBEBEB"/>
<path d="M226.655 168.9H130.105C129.348 168.899 128.623 168.597 128.088 168.062C127.553 167.527 127.251 166.802 127.25 166.045V30.33C127.258 29.5776 127.562 28.8585 128.096 28.3288C128.631 27.7991 129.353 27.5013 130.105 27.5H226.655C227.406 27.5026 228.126 27.8011 228.659 28.3309C229.191 28.8606 229.493 29.5789 229.5 30.33V166.045C229.5 166.8 229.201 167.525 228.667 168.06C228.134 168.595 227.41 168.897 226.655 168.9ZM130.105 27.6C129.381 27.6013 128.688 27.8894 128.176 28.4011C127.664 28.9127 127.376 29.6064 127.375 30.33V166.045C127.376 166.769 127.664 167.462 128.176 167.974C128.688 168.486 129.381 168.774 130.105 168.775H226.655C227.379 168.774 228.072 168.486 228.584 167.974C229.096 167.462 229.384 166.769 229.385 166.045V30.33C229.384 29.6064 229.096 28.9127 228.584 28.4011C228.072 27.8894 227.379 27.6013 226.655 27.6H130.105Z" fill="#EBEBEB"/>
<path d="M109.225 142.935H46.0146V147.395H109.225V142.935Z" fill="#EBEBEB"/>
<path d="M109.225 142.935H81.7402V147.395H109.225V142.935Z" fill="#E0E0E0"/>
<path d="M55.3546 147.395H46.0146V191.2H55.3546V147.395Z" fill="#EBEBEB"/>
<path d="M55.3546 151.915L46.0146 148.735V147.395H55.3546V151.915Z" fill="#E0E0E0"/>
<path d="M109.225 147.395H99.8848V191.2H109.225V147.395Z" fill="#E0E0E0"/>
<path d="M91.0802 147.395H81.7402V191.2H91.0802V147.395Z" fill="#EBEBEB"/>
<path d="M91.0752 151.915L81.7402 148.735V147.395H91.0752V151.915Z" fill="#E0E0E0"/>
<path d="M73.5002 147.395H64.1602V191.2H73.5002V147.395Z" fill="#E0E0E0"/>
<path d="M115.165 43.585H35.5V111.42H115.165V43.585Z" fill="#EBEBEB"/>
<path d="M115.165 111.415H116.055L116.055 43.58H115.165L115.165 111.415Z" fill="#E0E0E0"/>
<path d="M112.17 108.415V46.5801L38.5049 46.5801V108.415H112.17Z" fill="#F5F5F5"/>
<path d="M74.4453 99.0302C78.9453 84.0302 80.1953 61.9052 89.7653 64.9552C99.3353 68.0052 86.8003 100.72 86.8003 100.72L74.4453 99.0302Z" fill="white"/>
<path d="M82.1748 99.7749C77.5948 78.0349 78.7498 49.1748 64.5198 49.8348C50.2898 50.4948 64.5198 100.72 64.5198 100.72L82.1748 99.7749Z" fill="white"/>
<path d="M92.2302 97.3352H61.0752C60.4394 97.3148 59.8211 97.545 59.3535 97.9761C58.8858 98.4073 58.6063 99.0049 58.5752 99.6402C57.9402 113.99 60.2902 128.64 64.6652 142.935H88.5202C92.8951 128.615 95.2452 113.99 94.6102 99.6402C94.5858 99.0238 94.3249 98.4404 93.8817 98.0112C93.4385 97.582 92.8471 97.3399 92.2302 97.3352Z" fill="#EBEBEB"/>
<path d="M163.1 51.1499H161.345V191.2H163.1V51.1499Z" fill="#E0E0E0"/>
<path d="M204.345 51.1499H202.59V191.2H204.345V51.1499Z" fill="#E0E0E0"/>
<path d="M150.655 51.1499H148.9V191.2H150.655V51.1499Z" fill="#EBEBEB"/>
<path d="M191.9 51.1499H190.145V191.2H191.9V51.1499Z" fill="#EBEBEB"/>
<path d="M204.345 50.1899H148.9V52.1049H204.345V50.1899Z" fill="#EBEBEB"/>
<path d="M204.345 84.4849H148.9V86.3999H204.345V84.4849Z" fill="#EBEBEB"/>
<path d="M204.345 118.78H148.9V120.695H204.345V118.78Z" fill="#EBEBEB"/>
<path d="M204.345 153.075H148.9V154.99H204.345V153.075Z" fill="#EBEBEB"/>
<path d="M204.345 187.37H148.9V189.285H204.345V187.37Z" fill="#EBEBEB"/>
<path d="M204.345 50.1899H191.9V52.1049H204.345V50.1899Z" fill="#E0E0E0"/>
<path d="M204.345 84.4849H191.9V86.3999H204.345V84.4849Z" fill="#E0E0E0"/>
<path d="M204.345 118.78H191.9V120.695H204.345V118.78Z" fill="#E0E0E0"/>
<path d="M204.345 153.075H191.9V154.99H204.345V153.075Z" fill="#E0E0E0"/>
<path d="M204.345 187.37H191.9V189.285H204.345V187.37Z" fill="#E0E0E0"/>
<path d="M171.265 61.8548V59.1548H164.6V61.8548C164.6 62.7013 164.264 63.5132 163.666 64.1122C163.068 64.7113 162.256 65.0485 161.41 65.0498C160.563 65.0498 159.751 65.3857 159.152 65.9838C158.553 66.5819 158.216 67.3933 158.215 68.2398V84.4998H177.655V68.2398C177.654 67.3933 177.316 66.5819 176.717 65.9838C176.118 65.3857 175.306 65.0498 174.46 65.0498C173.612 65.0498 172.8 64.7132 172.201 64.114C171.601 63.5148 171.265 62.7022 171.265 61.8548Z" fill="#F0F0F0"/>
<path d="M185.06 107.63H155.85V118.785H185.06V107.63Z" fill="#F0F0F0"/>
<path d="M185.06 118.78H190.145V107.625H185.06V118.78Z" fill="#E6E6E6"/>
<path d="M185.06 113.82H190.145V112.59H185.06V113.82Z" fill="#EBEBEB"/>
<path d="M185.06 112.59H155.85V113.82H185.06V112.59Z" fill="#F5F5F5"/>
<path d="M177.235 167.65H154.42V187.37H177.235V167.65Z" fill="#F0F0F0"/>
<path d="M177.235 187.375H181.205V167.655H177.235V187.375Z" fill="#E6E6E6"/>
<path d="M177.235 178.6H181.205V176.425H177.235V178.6Z" fill="#EBEBEB"/>
<path d="M177.235 176.425H154.42V178.6H177.235V176.425Z" fill="#F5F5F5"/>
<path d="M177.235 174.9H181.205V174.125H177.235V174.9Z" fill="#EBEBEB"/>
<path d="M177.235 174.125H154.42V174.9H177.235V174.125Z" fill="#F5F5F5"/>
<path d="M159.98 133.025H155.85V153.075H159.98V133.025Z" fill="#F0F0F0"/>
<path d="M159.98 140.17H155.85V145.93H159.98V140.17Z" fill="#FAFAFA"/>
<path d="M159.98 153.08H174.03V133.03H159.98V153.08Z" fill="#E6E6E6"/>
<path d="M166.36 130.435H161.695V153.075H166.36V130.435Z" fill="#EBEBEB"/>
<path d="M166.36 137.63H161.695V141.115H166.36V137.63Z" fill="#FAFAFA"/>
<path d="M166.36 143.45H161.695V146.935H166.36V143.45Z" fill="#FAFAFA"/>
<path d="M166.365 153.075H182.23V130.435H166.365V153.075Z" fill="#E0E0E0"/>
<path d="M171.555 133.025H169.04V153.075H171.555V133.025Z" fill="#F0F0F0"/>
<path d="M171.12 135.565H169.47V150.535H171.12V135.565Z" fill="#FAFAFA"/>
<path d="M171.55 153.08H180.095V133.03H171.55V153.08Z" fill="#E6E6E6"/>
<path d="M178.27 131.97H175.43V153.075H178.27V131.97Z" fill="#EBEBEB"/>
<path d="M178.27 138.675H175.43V141.925H178.27V138.675Z" fill="#FAFAFA"/>
<path d="M178.27 144.105H175.43V147.355H178.27V144.105Z" fill="#FAFAFA"/>
<path d="M178.27 153.075H187.92V131.97H178.27V153.075Z" fill="#E0E0E0"/>
<path d="M176.979 105.808C179.408 103.379 179.408 99.441 176.979 97.012C174.55 94.5829 170.611 94.5829 168.182 97.012C165.753 99.441 165.753 103.379 168.182 105.808C170.611 108.237 174.55 108.237 176.979 105.808Z" fill="#F5F5F5"/>
<path d="M180.156 107.56C182.506 107.179 184.101 104.965 183.72 102.615C183.338 100.266 181.124 98.6702 178.775 99.0516C176.425 99.433 174.83 101.647 175.211 103.997C175.592 106.346 177.806 107.942 180.156 107.56Z" fill="#EBEBEB"/>
<path d="M125 213.78C178.541 213.78 221.945 211.246 221.945 208.12C221.945 204.994 178.541 202.46 125 202.46C71.4584 202.46 28.0547 204.994 28.0547 208.12C28.0547 211.246 71.4584 213.78 125 213.78Z" fill="#F5F5F5"/>
<path d="M63.0557 169.345H127.276V202.5C127.276 202.925 127.192 203.346 127.029 203.738C126.867 204.131 126.629 204.487 126.328 204.788C126.028 205.088 125.671 205.326 125.279 205.489C124.886 205.652 124.465 205.735 124.041 205.735H66.2907C65.8658 205.735 65.4452 205.652 65.0527 205.489C64.6602 205.326 64.3036 205.088 64.0032 204.788C63.7028 204.487 63.4645 204.131 63.3019 203.738C63.1393 203.346 63.0557 202.925 63.0557 202.5V169.345Z" fill="#FF6B57"/>
<path d="M63.0554 169.345H108.5L102.91 162.19C102.295 161.405 100.775 160.77 99.5104 160.77H58.6404C57.3804 160.77 56.8504 161.405 57.4654 162.19L63.0554 169.345Z" fill="#FF6B57"/>
<path opacity="0.2" d="M63.0554 169.345H108.5L102.91 162.19C102.295 161.405 100.775 160.77 99.5104 160.77H58.6404C57.3804 160.77 56.8504 161.405 57.4654 162.19L63.0554 169.345Z" fill="black"/>
<path d="M127.275 169.345H81.835L87.425 164.68C88.04 164.18 89.56 163.755 90.825 163.755H131.69C132.955 163.755 133.48 164.17 132.865 164.68L127.275 169.345Z" fill="#FF6B57"/>
<path opacity="0.2" d="M81.835 169.345H127.275V202.5C127.275 202.925 127.191 203.346 127.029 203.738C126.866 204.131 126.628 204.487 126.327 204.788C126.027 205.088 125.67 205.326 125.278 205.489C124.885 205.652 124.465 205.735 124.04 205.735H85.07C84.6451 205.735 84.2245 205.652 83.832 205.489C83.4395 205.326 83.0829 205.088 82.7825 204.788C82.4821 204.487 82.2438 204.131 82.0812 203.738C81.9186 203.346 81.835 202.925 81.835 202.5V169.345Z" fill="white"/>
<path opacity="0.5" d="M68.6953 169.345V192.085L70.2653 190.845L71.3703 192.085L72.3303 190.705L73.3153 192.085L74.6853 191.05L76.1953 192.085V169.345H68.6953Z" fill="white"/>
<path d="M78.8602 119.74L70.7852 112.96" stroke="#FF6B57" stroke-miterlimit="10"/>
<path d="M83.045 123.255L80.585 121.185" stroke="#FF6B57" stroke-miterlimit="10"/>
<path d="M107.235 137.445L133.875 104.15L98.4048 74.3696L74.9048 101.335L71.4048 108.08C71.231 108.271 71.0986 108.496 71.0159 108.741C70.9331 108.986 70.9018 109.246 70.9238 109.503C70.9459 109.761 71.0209 110.011 71.144 110.239C71.2672 110.466 71.436 110.665 71.6398 110.825L103.64 137.695C104.16 138.114 104.82 138.321 105.486 138.275C106.153 138.228 106.777 137.932 107.235 137.445Z" fill="#FF6B57"/>
<path opacity="0.5" d="M88.9649 112.89L85.1299 119.065L86.6749 119.4L87.1999 120.83L88.2249 120.89L88.6999 122.115L89.9549 122.48L90.9199 124.015L94.7549 117.84L88.9649 112.89Z" fill="white"/>
<path opacity="0.1" d="M132.715 103.175L108.825 129.825L74.8896 101.335L98.4046 74.3696L132.715 103.175Z" fill="black"/>
<path d="M132.715 103.175L108.825 129.825L118.715 130.555L142.235 103.59L132.715 103.175Z" fill="#FF6B57"/>
<path opacity="0.3" d="M132.715 103.175L108.825 129.825L118.715 130.555L142.235 103.59L132.715 103.175Z" fill="black"/>
<path d="M88.8901 73.9497L64.9951 100.605L74.8901 101.335L98.4051 74.3697L88.8901 73.9497Z" fill="#FF6B57"/>
<path opacity="0.4" d="M88.8901 73.9497L64.9951 100.605L74.8901 101.335L98.4051 74.3697L88.8901 73.9497Z" fill="black"/>
<path opacity="0.1" d="M125.36 111.38L132.715 103.175L98.4046 74.3696L94.0146 84.9496L125.36 111.38Z" fill="black"/>
<path opacity="0.2" d="M74.8896 101.335L98.4046 74.3696L94.0146 84.9496L77.4547 103.49L74.8896 101.335Z" fill="black"/>
<path d="M141 52.9996C141.095 53.3196 141 53.6346 140.79 53.6946C140.58 53.7546 140.335 53.5446 140.24 53.2246C140.145 52.9046 140.24 52.5896 140.45 52.5246C140.66 52.4596 140.91 52.6796 141 52.9996Z" fill="#263238"/>
<path d="M141.035 53.6299C140.94 54.73 140.695 55.8119 140.305 56.8449C140.572 56.9376 140.856 56.9709 141.138 56.9424C141.419 56.9139 141.691 56.8243 141.935 56.6799L141.035 53.6299Z" fill="#ED847E"/>
<path d="M141.665 50.8648C141.707 50.8404 141.739 50.8012 141.755 50.7548C141.764 50.7305 141.768 50.7046 141.767 50.6787C141.766 50.6527 141.76 50.6272 141.749 50.6038C141.738 50.5803 141.722 50.5595 141.702 50.5424C141.682 50.5254 141.659 50.5126 141.635 50.5048C141.342 50.3925 141.026 50.3525 140.715 50.3882C140.403 50.4238 140.105 50.5342 139.845 50.7098C139.811 50.7441 139.791 50.7894 139.788 50.8375C139.784 50.8855 139.799 50.9331 139.828 50.9714C139.857 51.0097 139.899 51.0362 139.946 51.046C139.994 51.0558 140.043 51.0483 140.085 51.0248C140.292 50.8885 140.53 50.8039 140.777 50.7778C141.024 50.7517 141.273 50.7849 141.505 50.8748C141.531 50.8842 141.558 50.8882 141.586 50.8865C141.613 50.8848 141.64 50.8774 141.665 50.8648Z" fill="#263238"/>
<path d="M152.12 55.14C152.34 57.79 152.995 62.64 154.56 63.76C154.56 63.76 154.19 66.945 148.56 67.76C142.39 68.67 145.16 65.13 145.16 65.13C148.405 63.83 147.95 61.345 147.02 59.085L149.4 56.355C150.315 55.345 152 53.785 152.12 55.14Z" fill="#FFC3BD"/>
<path d="M156.575 65.055C157.075 64.6 156.075 62.78 155.46 62.525C153.85 61.85 147.265 62.525 144.79 64.65C144.585 65.0016 144.461 65.3947 144.427 65.8004C144.394 66.2062 144.451 66.6143 144.595 66.995L156.575 65.055Z" fill="white"/>
<path d="M177.545 198.705C177.383 198.779 177.207 198.819 177.028 198.825C176.85 198.83 176.672 198.799 176.505 198.735C176.439 198.682 176.391 198.611 176.367 198.531C176.343 198.45 176.344 198.364 176.37 198.285C176.384 198.219 176.411 198.158 176.451 198.104C176.49 198.05 176.542 198.006 176.6 197.975C177.14 197.66 178.475 198.075 178.53 198.095C178.549 198.099 178.565 198.11 178.577 198.124C178.59 198.138 178.598 198.156 178.6 198.175C178.603 198.194 178.599 198.214 178.591 198.232C178.582 198.25 178.568 198.265 178.55 198.275C178.231 198.452 177.894 198.596 177.545 198.705ZM176.815 198.095L176.7 198.145C176.666 198.163 176.636 198.189 176.613 198.22C176.59 198.251 176.573 198.287 176.565 198.325C176.53 198.505 176.6 198.56 176.62 198.575C176.86 198.745 177.675 198.5 178.24 198.215C177.78 198.07 177.293 198.029 176.815 198.095Z" fill="#FF6B57"/>
<path d="M178.53 198.28C178.513 198.285 178.496 198.285 178.48 198.28C177.98 198.18 176.935 197.555 176.88 197.085C176.872 197.011 176.89 196.936 176.931 196.874C176.972 196.812 177.034 196.766 177.105 196.745C177.174 196.714 177.249 196.698 177.325 196.698C177.401 196.698 177.475 196.714 177.545 196.745C178.125 196.985 178.575 198.105 178.59 198.15C178.6 198.164 178.605 198.182 178.605 198.2C178.605 198.217 178.6 198.235 178.59 198.25C178.583 198.259 178.574 198.266 178.563 198.272C178.553 198.277 178.541 198.28 178.53 198.28ZM177.23 196.915C177.215 196.91 177.199 196.91 177.185 196.915C177.07 196.965 177.075 197.025 177.08 197.05C177.11 197.33 177.82 197.835 178.325 198.02C178.175 197.695 177.825 197.065 177.47 196.915C177.392 196.885 177.307 196.885 177.23 196.915Z" fill="#FF6B57"/>
<path d="M148.24 204.075C147.705 204.075 147.19 204 147.015 203.76C146.97 203.697 146.946 203.622 146.946 203.545C146.946 203.468 146.97 203.392 147.015 203.33C147.049 203.272 147.093 203.221 147.146 203.181C147.2 203.14 147.26 203.111 147.325 203.095C148.02 202.91 149.48 203.74 149.54 203.775C149.559 203.784 149.574 203.798 149.583 203.817C149.593 203.835 149.596 203.856 149.593 203.876C149.589 203.896 149.58 203.915 149.565 203.929C149.55 203.943 149.531 203.952 149.51 203.955C149.091 204.033 148.666 204.073 148.24 204.075ZM147.58 203.265C147.516 203.262 147.452 203.271 147.39 203.29C147.31 203.308 147.24 203.356 147.195 203.425C147.125 203.55 147.15 203.61 147.195 203.645C147.39 203.915 148.445 203.92 149.195 203.81C148.697 203.525 148.149 203.34 147.58 203.265Z" fill="#FF6B57"/>
<path d="M149.5 203.96H149.46C148.96 203.735 147.96 202.83 148.035 202.36C148.035 202.25 148.135 202.11 148.405 202.085C148.503 202.074 148.602 202.084 148.696 202.113C148.789 202.142 148.876 202.19 148.95 202.255C149.485 202.69 149.595 203.815 149.6 203.86C149.603 203.877 149.601 203.895 149.594 203.911C149.587 203.927 149.575 203.94 149.56 203.95C149.542 203.96 149.521 203.963 149.5 203.96ZM148.5 202.27H148.44C148.26 202.27 148.25 202.36 148.245 202.38C148.2 202.665 148.88 203.38 149.39 203.685C149.347 203.208 149.154 202.757 148.84 202.395C148.747 202.312 148.625 202.268 148.5 202.27Z" fill="#FF6B57"/>
<path d="M154.09 203.86H149.915L149.5 194.2H153.675L154.09 203.86Z" fill="#FFC3BD"/>
<path d="M183.415 197.265L179.57 198.59L175.58 189.485L179.425 188.16L183.415 197.265Z" fill="#FFC3BD"/>
<path d="M178.655 197.635L183.155 196.26C183.235 196.235 183.32 196.239 183.397 196.27C183.475 196.301 183.539 196.357 183.58 196.43L185.455 199.73C185.5 199.81 185.526 199.9 185.532 199.992C185.537 200.085 185.522 200.177 185.487 200.263C185.452 200.348 185.398 200.425 185.329 200.486C185.261 200.548 185.179 200.594 185.09 200.62C183.515 201.075 182.73 201.215 180.76 201.82C179.545 202.19 176.485 203.35 174.76 203.695C173.035 204.04 172.48 202.39 173.15 202.095C176.15 200.77 177.38 199.265 178.095 198.095C178.22 197.879 178.419 197.715 178.655 197.635Z" fill="#263238"/>
<path d="M149.945 203.375H154.5C154.583 203.376 154.663 203.405 154.727 203.456C154.791 203.508 154.837 203.58 154.855 203.66L155.68 207.37C155.701 207.459 155.701 207.552 155.68 207.642C155.659 207.731 155.618 207.815 155.561 207.886C155.503 207.957 155.43 208.015 155.346 208.053C155.263 208.092 155.172 208.112 155.08 208.11C153.435 208.085 151.08 207.985 148.995 207.985C146.58 207.985 145.565 208.12 142.73 208.12C141.02 208.12 140.545 206.39 141.26 206.23C144.525 205.515 146.12 205.44 148.94 203.7C149.24 203.502 149.587 203.39 149.945 203.375Z" fill="#263238"/>
<path d="M162.07 66.4199C163.285 67.5349 164.335 68.6499 165.425 69.8149C166.515 70.9799 167.525 72.1849 168.505 73.4699C169.529 74.7754 170.458 76.1522 171.285 77.5899C171.737 78.3824 172.128 79.2081 172.455 80.0599C172.54 80.2949 172.625 80.5199 172.695 80.7749C172.777 81.0328 172.845 81.2949 172.9 81.5599L172.985 81.9749L173.045 82.4349C173.101 82.8564 173.101 83.2834 173.045 83.7049C172.93 84.5005 172.636 85.2596 172.185 85.9249C171.856 86.4108 171.47 86.8556 171.035 87.2499C170.336 87.884 169.572 88.4421 168.755 88.9149C167.316 89.738 165.811 90.4388 164.255 91.0099C161.303 92.1056 158.262 92.9421 155.165 93.5099L154.29 90.5099C157.005 89.3349 159.755 88.0649 162.29 86.7099C163.524 86.0626 164.712 85.3308 165.845 84.5199C166.317 84.1846 166.751 83.799 167.14 83.3699C167.258 83.2431 167.358 83.0999 167.435 82.9449C167.475 82.8599 167.435 82.8699 167.385 83.0499C167.35 83.3849 167.355 83.1249 167.275 82.9449C167.25 82.8599 167.205 82.7449 167.16 82.6349C167.115 82.5249 167.06 82.3999 167.005 82.2799C166.734 81.7346 166.432 81.2054 166.1 80.6949C165.328 79.5484 164.493 78.445 163.6 77.3899C162.68 76.2999 161.71 75.2149 160.715 74.1499C159.72 73.0849 158.675 72.0099 157.715 71.0199L162.07 66.4199Z" fill="#FFC3BD"/>
<path d="M155.435 90.0347L151.5 91.2247L154.03 95.3847C154.03 95.3847 156.355 94.4247 156.87 92.4497L155.435 90.0347Z" fill="#FFC3BD"/>
<path d="M149.91 92.6996L151.46 96.1296L154.005 95.3896L151.475 91.2246L149.91 92.6996Z" fill="#FFC3BD"/>
<path d="M152.85 67.55C152.475 71.55 160.935 77.7399 160.935 77.7399L169.08 72.1649C167.666 69.5564 165.598 67.3597 163.08 65.7899C158.41 62.7999 153.32 62.58 152.85 67.55Z" fill="#FF6B57"/>
<g opacity="0.3">
<path d="M152.85 67.55C152.475 71.55 160.935 77.7399 160.935 77.7399L169.08 72.1649C167.666 69.5564 165.598 67.3597 163.08 65.7899C158.41 62.7999 153.32 62.58 152.85 67.55Z" fill="white"/>
</g>
<path d="M139 67.2299C139 67.2299 135.345 72.8399 144.025 102.93L166.095 99.6699C165.785 96.6199 162.095 83.3149 161.97 68.7699C161.965 68.0675 161.818 67.3734 161.537 66.7296C161.256 66.0857 160.848 65.5054 160.337 65.0236C159.826 64.5419 159.222 64.1687 158.563 63.9266C157.903 63.6844 157.202 63.5784 156.5 63.6149C155.86 63.6499 155.2 63.6949 154.545 63.7599C151.395 64.0408 148.263 64.5033 145.165 65.1449C143.06 65.6806 140.999 66.3777 139 67.2299Z" fill="#FF6B57"/>
<g opacity="0.3">
<path d="M139 67.2299C139 67.2299 135.345 72.8399 144.025 102.93L166.095 99.6699C165.785 96.6199 162.095 83.3149 161.97 68.7699C161.965 68.0675 161.818 67.3734 161.537 66.7296C161.256 66.0857 160.848 65.5054 160.337 65.0236C159.826 64.5419 159.222 64.1687 158.563 63.9266C157.903 63.6844 157.202 63.5784 156.5 63.6149C155.86 63.6499 155.2 63.6949 154.545 63.7599C151.395 64.0408 148.263 64.5033 145.165 65.1449C143.06 65.6806 140.999 66.3777 139 67.2299Z" fill="white"/>
</g>
<path opacity="0.2" d="M138.46 76.8999L138.535 76.8149L143.725 77.2749C144.515 80.6249 141.625 85.1949 140.1 87.3149C139.366 83.8754 138.818 80.3986 138.46 76.8999Z" fill="black"/>
<path opacity="0.2" d="M149.5 194.205L149.715 199.185H153.89L153.675 194.205H149.5Z" fill="black"/>
<path opacity="0.2" d="M179.425 188.16L175.58 189.485L177.64 194.18L181.485 192.855L179.425 188.16Z" fill="black"/>
<path d="M151.575 49.1599C152.495 53.1949 153.235 55.5099 151.83 58.1599C149.72 62.1049 144.29 61.7249 142.185 58.0449C140.29 54.7299 139.1 48.6899 142.52 45.9699C143.269 45.3682 144.16 44.9676 145.108 44.806C146.055 44.6444 147.028 44.7272 147.935 45.0466C148.841 45.366 149.651 45.9113 150.288 46.6311C150.925 47.3509 151.368 48.2213 151.575 49.1599Z" fill="#FFC3BD"/>
<path d="M143.47 53.115L141.935 54.055L142.08 48.805C141.09 48.8475 140.114 48.5647 139.3 48C139.855 47.47 148.495 44.445 151.19 44.97C151.47 44.855 151.81 44.335 151.81 44.335C151.81 44.335 151.915 44.99 151.46 45.24C151.79 45.175 152.615 45.335 152.845 45.82C152.466 45.7166 152.064 45.7394 151.7 45.885C151.7 45.885 154.7 46.34 153.635 50.5C152.44 55.085 152.835 57.72 152.835 57.72C152.835 57.72 150.605 59.445 148.665 59.125C146.595 56.845 143.605 54.105 143.47 53.115Z" fill="#263238"/>
<path d="M140.53 47.585C138.095 47.585 137.22 46.395 136.595 45.395C138.345 45.21 141.99 44.085 144.695 43.895C147.4 43.705 150.365 44.21 149.47 45.395C148.575 46.58 140.53 47.585 140.53 47.585Z" fill="#263238"/>
<path d="M141.065 46.4998C139.065 46.2198 137.115 44.3348 138.615 42.5298C139.17 43.8548 142.915 43.6998 145.575 43.1448C149.075 42.4148 151.5 43.5948 150.26 45.9798C149.58 47.2848 141.065 46.4998 141.065 46.4998Z" fill="#263238"/>
<path d="M145.63 51.92C145.916 52.9072 145.87 53.9612 145.5 54.92C145 56.175 143.89 55.92 143.31 54.835C142.81 53.835 142.43 52.02 143.28 51.115C144.13 50.21 145.27 50.735 145.63 51.92Z" fill="#FFC3BD"/>
<path d="M151.855 101.775C151.855 101.775 155.435 132.25 158.035 144.19C160.88 157.27 174.915 192.93 174.915 192.93L181.915 190.51C181.915 190.51 172.915 163.66 170.525 145.375C168.69 131.335 166.075 99.6699 166.075 99.6699L151.855 101.775Z" fill="#263238"/>
<path d="M173.125 190.69C173.09 190.69 174.56 193.69 174.56 193.69L182.735 191.035L181.775 188.595L173.125 190.69Z" fill="#FF6B57"/>
<path opacity="0.3" d="M153.83 117.41C154.95 125.88 156.385 135.91 157.645 142.315C159.5 132.5 159.935 120.105 153.83 117.41Z" fill="black"/>
<path d="M144.025 102.93C144.025 102.93 141.055 131.56 141.525 144.28C141.995 157.51 148.175 198.22 148.175 198.22H155.24C155.24 198.22 153.94 158.28 154.24 145.29C154.585 131.125 159.895 100.585 159.895 100.585L144.025 102.93Z" fill="#263238"/>
<path d="M146.8 195.405C146.77 195.405 147.2 198.335 147.2 198.335H155.795L156.03 195.72L146.8 195.405Z" fill="#FF6B57"/>
<path d="M142.655 74.2596C141.875 75.4996 141.085 76.6146 140.265 77.7596C139.445 78.9046 138.585 80.0096 137.71 81.1096C135.926 83.3411 133.994 85.4492 131.925 87.4196C131.365 87.9196 130.85 88.4196 130.245 88.8746L129.805 89.2296L129.585 89.4046C129.505 89.4696 129.47 89.5046 129.305 89.6246C128.81 89.9779 128.266 90.2575 127.69 90.4546C126.799 90.759 125.867 90.9276 124.925 90.9546C124.129 90.9813 123.331 90.9462 122.54 90.8496C119.648 90.4704 116.827 89.6721 114.165 88.4796L115.03 85.4796C117.588 85.7831 120.165 85.9068 122.74 85.8496C123.31 85.8198 123.877 85.758 124.44 85.6646C124.864 85.6026 125.276 85.4744 125.66 85.2846C125.78 85.2196 125.845 85.1546 125.83 85.1396C125.815 85.1246 125.895 85.0746 125.94 85.0296L126.11 84.8746L126.445 84.5596C126.895 84.1596 127.32 83.6746 127.76 83.2346C128.625 82.3046 129.485 81.3496 130.3 80.3346C131.115 79.3196 131.94 78.2996 132.74 77.2496C133.54 76.1996 134.315 75.1346 135.095 74.0696C135.875 73.0046 136.635 71.8846 137.355 70.8496L142.655 74.2596Z" fill="#FFC3BD"/>
<path d="M145.561 72.9348C147.241 78.4348 137.486 84.5298 137.486 84.5298L131.146 76.4548C132.575 73.7922 134.339 71.3238 136.396 69.1098C140.711 64.4148 144.281 68.7498 145.561 72.9348Z" fill="#FF6B57"/>
<g opacity="0.3">
<path d="M145.561 72.9348C147.241 78.4348 137.486 84.5298 137.486 84.5298L131.146 76.4548C132.575 73.7922 134.339 71.3238 136.396 69.1098C140.711 64.4148 144.281 68.7498 145.561 72.9348Z" fill="white"/>
</g>
<path d="M116.5 85.6646L111.365 84.7246L111.905 89.1646C111.905 89.1646 114.575 90.6646 116.51 88.3196L116.5 85.6646Z" fill="#FFC3BD"/>
<path d="M109.385 85.7246L110.495 88.9296L111.895 89.1646L111.355 84.7246L109.385 85.7246Z" fill="#FFC3BD"/>
</svg>
