<svg width="20" height="20" viewBox="0 0 20 20" fill="none" xmlns="http://www.w3.org/2000/svg">
<path d="M12.9167 15.4167C12.9167 17.0275 11.6108 18.3333 10 18.3333C8.38918 18.3333 7.08334 17.0275 7.08334 15.4167" stroke="#616161" stroke-width="1.25" stroke-linecap="round" stroke-linejoin="round"/>
<path d="M15.8333 9.58333V10.6298C15.8333 11.2928 16.0967 11.9288 16.5656 12.3976L17.0682 12.9003C17.3447 13.1768 17.5 13.5517 17.5 13.9426C17.5 14.7567 16.84 15.4167 16.0259 15.4167H3.97406C3.15996 15.4167 2.5 14.7567 2.5 13.9426C2.5 13.5517 2.6553 13.1768 2.93174 12.9003L3.43443 12.3976C3.90327 11.9288 4.16667 11.2928 4.16667 10.6298V8.33333C4.16667 5.11168 6.77834 2.5 10 2.5" stroke="#616161" stroke-width="1.25" stroke-linecap="round" stroke-linejoin="round"/>
<path d="M12.9167 2.91666L16.25 6.25L12.9167 2.91666ZM17.5 4.58333C17.5 2.9725 16.1942 1.66666 14.5833 1.66666C12.9725 1.66666 11.6667 2.9725 11.6667 4.58333C11.6667 6.19416 12.9725 7.5 14.5833 7.5C16.1942 7.5 17.5 6.19416 17.5 4.58333Z" fill="#E64449"/>
</svg>
