<svg width="127" height="13" viewBox="0 0 127 13" fill="none" xmlns="http://www.w3.org/2000/svg">
<path d="M8.56 5.2C8.56 5.85067 8.41066 6.448 8.112 6.992C7.81333 7.52533 7.35466 7.95733 6.736 8.288C6.11733 8.61867 5.34933 8.784 4.432 8.784H2.736V12.816H-4.35114e-06V1.584H4.432C5.328 1.584 6.08533 1.73867 6.704 2.048C7.32266 2.35733 7.78666 2.784 8.096 3.328C8.40533 3.872 8.56 4.496 8.56 5.2ZM4.224 6.608C4.74666 6.608 5.136 6.48534 5.392 6.24C5.648 5.99467 5.776 5.648 5.776 5.2C5.776 4.752 5.648 4.40534 5.392 4.16C5.136 3.91467 4.74666 3.792 4.224 3.792H2.736V6.608H4.224ZM12.9204 5.376C13.2404 4.88533 13.6404 4.50133 14.1204 4.224C14.6004 3.936 15.1337 3.792 15.7204 3.792V6.688H14.9684C14.2857 6.688 13.7737 6.83733 13.4324 7.136C13.091 7.424 12.9204 7.936 12.9204 8.672V12.816H10.1844V3.888H12.9204V5.376ZM21.2921 12.944C20.4175 12.944 19.6281 12.7573 18.9241 12.384C18.2308 12.0107 17.6815 11.4773 17.2761 10.784C16.8815 10.0907 16.6841 9.28 16.6841 8.352C16.6841 7.43467 16.8868 6.62934 17.2921 5.936C17.6975 5.232 18.2521 4.69333 18.9561 4.32C19.6601 3.94667 20.4495 3.76 21.3241 3.76C22.1988 3.76 22.9881 3.94667 23.6921 4.32C24.3961 4.69333 24.9508 5.232 25.3561 5.936C25.7615 6.62934 25.9641 7.43467 25.9641 8.352C25.9641 9.26934 25.7561 10.08 25.3401 10.784C24.9348 11.4773 24.3748 12.0107 23.6601 12.384C22.9561 12.7573 22.1668 12.944 21.2921 12.944ZM21.2921 10.576C21.8148 10.576 22.2575 10.384 22.6201 10C22.9935 9.616 23.1801 9.06667 23.1801 8.352C23.1801 7.63733 22.9988 7.088 22.6361 6.704C22.2841 6.32 21.8468 6.128 21.3241 6.128C20.7908 6.128 20.3481 6.32 19.9961 6.704C19.6441 7.07734 19.4681 7.62667 19.4681 8.352C19.4681 9.06667 19.6388 9.616 19.9801 10C20.3321 10.384 20.7695 10.576 21.2921 10.576ZM27.0716 8.336C27.0716 7.41867 27.2423 6.61333 27.5836 5.92C27.9356 5.22667 28.4103 4.69333 29.0076 4.32C29.605 3.94667 30.2716 3.76 31.0076 3.76C31.5943 3.76 32.1276 3.88267 32.6076 4.128C33.0983 4.37333 33.4823 4.704 33.7596 5.12V0.976002H36.4956V12.816H33.7596V11.536C33.5036 11.9627 33.1356 12.304 32.6556 12.56C32.1863 12.816 31.637 12.944 31.0076 12.944C30.2716 12.944 29.605 12.7573 29.0076 12.384C28.4103 12 27.9356 11.4613 27.5836 10.768C27.2423 10.064 27.0716 9.25334 27.0716 8.336ZM33.7596 8.352C33.7596 7.66933 33.5676 7.13067 33.1836 6.736C32.8103 6.34133 32.3516 6.144 31.8076 6.144C31.2636 6.144 30.7996 6.34133 30.4156 6.736C30.0423 7.12 29.8556 7.65334 29.8556 8.336C29.8556 9.01867 30.0423 9.56267 30.4156 9.968C30.7996 10.3627 31.2636 10.56 31.8076 10.56C32.3516 10.56 32.8103 10.3627 33.1836 9.968C33.5676 9.57334 33.7596 9.03467 33.7596 8.352ZM47.491 3.888V12.816H44.755V11.6C44.4777 11.9947 44.099 12.3147 43.619 12.56C43.1497 12.7947 42.627 12.912 42.051 12.912C41.3683 12.912 40.7657 12.7627 40.243 12.464C39.7203 12.1547 39.315 11.712 39.027 11.136C38.739 10.56 38.595 9.88267 38.595 9.104V3.888H41.315V8.736C41.315 9.33333 41.4697 9.79733 41.779 10.128C42.0883 10.4587 42.5043 10.624 43.027 10.624C43.5603 10.624 43.9817 10.4587 44.291 10.128C44.6003 9.79733 44.755 9.33333 44.755 8.736V3.888H47.491ZM49.1122 8.352C49.1122 7.424 49.2989 6.61333 49.6722 5.92C50.0562 5.22667 50.5842 4.69333 51.2562 4.32C51.9389 3.94667 52.7176 3.76 53.5922 3.76C54.7122 3.76 55.6456 4.05333 56.3922 4.64C57.1496 5.22667 57.6456 6.05333 57.8802 7.12H54.9682C54.7229 6.43734 54.2482 6.096 53.5442 6.096C53.0429 6.096 52.6429 6.29333 52.3442 6.688C52.0456 7.072 51.8962 7.62667 51.8962 8.352C51.8962 9.07734 52.0456 9.63734 52.3442 10.032C52.6429 10.416 53.0429 10.608 53.5442 10.608C54.2482 10.608 54.7229 10.2667 54.9682 9.584H57.8802C57.6456 10.6293 57.1496 11.4507 56.3922 12.048C55.6349 12.6453 54.7016 12.944 53.5922 12.944C52.7176 12.944 51.9389 12.7573 51.2562 12.384C50.5842 12.0107 50.0562 11.4773 49.6722 10.784C49.2989 10.0907 49.1122 9.28 49.1122 8.352ZM64.5197 10.496V12.816H63.1277C62.1357 12.816 61.3624 12.576 60.8077 12.096C60.2531 11.6053 59.9757 10.8107 59.9757 9.712V6.16H58.8877V3.888H59.9757V1.712H62.7117V3.888H64.5037V6.16H62.7117V9.744C62.7117 10.0107 62.7757 10.2027 62.9037 10.32C63.0317 10.4373 63.2451 10.496 63.5437 10.496H64.5197ZM74.0424 1.584C75.2264 1.584 76.261 1.81867 77.1464 2.288C78.0317 2.75733 78.7144 3.41867 79.1944 4.272C79.685 5.11467 79.9304 6.09067 79.9304 7.2C79.9304 8.29867 79.685 9.27467 79.1944 10.128C78.7144 10.9813 78.0264 11.6427 77.1304 12.112C76.245 12.5813 75.2157 12.816 74.0424 12.816H69.8344V1.584H74.0424ZM73.8664 10.448C74.901 10.448 75.7064 10.1653 76.2824 9.6C76.8584 9.03467 77.1464 8.23467 77.1464 7.2C77.1464 6.16534 76.8584 5.36 76.2824 4.784C75.7064 4.208 74.901 3.92 73.8664 3.92H72.5704V10.448H73.8664ZM90.0754 8.208C90.0754 8.464 90.0594 8.73067 90.0274 9.008H83.8354C83.878 9.56267 84.054 9.98934 84.3634 10.288C84.6834 10.576 85.0727 10.72 85.5314 10.72C86.214 10.72 86.6887 10.432 86.9554 9.856H89.8674C89.718 10.4427 89.446 10.9707 89.0514 11.44C88.6674 11.9093 88.182 12.2773 87.5954 12.544C87.0087 12.8107 86.3527 12.944 85.6274 12.944C84.7527 12.944 83.974 12.7573 83.2914 12.384C82.6087 12.0107 82.0754 11.4773 81.6914 10.784C81.3074 10.0907 81.1154 9.28 81.1154 8.352C81.1154 7.424 81.302 6.61333 81.6754 5.92C82.0594 5.22667 82.5927 4.69333 83.2754 4.32C83.958 3.94667 84.742 3.76 85.6274 3.76C86.4914 3.76 87.2594 3.94133 87.9314 4.304C88.6034 4.66667 89.126 5.184 89.4994 5.856C89.8834 6.528 90.0754 7.312 90.0754 8.208ZM87.2754 7.488C87.2754 7.01867 87.1154 6.64534 86.7954 6.368C86.4754 6.09067 86.0754 5.952 85.5954 5.952C85.1367 5.952 84.7474 6.08533 84.4274 6.352C84.118 6.61867 83.926 6.99734 83.8514 7.488H87.2754ZM96.6947 10.496V12.816H95.3027C94.3107 12.816 93.5374 12.576 92.9827 12.096C92.4281 11.6053 92.1507 10.8107 92.1507 9.712V6.16H91.0627V3.888H92.1507V1.712H94.8867V3.888H96.6787V6.16H94.8867V9.744C94.8867 10.0107 94.9507 10.2027 95.0787 10.32C95.2067 10.4373 95.4201 10.496 95.7187 10.496H96.6947ZM97.8747 8.336C97.8747 7.41867 98.0454 6.61333 98.3867 5.92C98.7387 5.22667 99.2134 4.69333 99.8107 4.32C100.408 3.94667 101.075 3.76 101.811 3.76C102.44 3.76 102.989 3.888 103.459 4.144C103.939 4.4 104.307 4.736 104.563 5.152V3.888H107.299V12.816H104.563V11.552C104.296 11.968 103.923 12.304 103.443 12.56C102.973 12.816 102.424 12.944 101.795 12.944C101.069 12.944 100.408 12.7573 99.8107 12.384C99.2134 12 98.7387 11.4613 98.3867 10.768C98.0454 10.064 97.8747 9.25334 97.8747 8.336ZM104.563 8.352C104.563 7.66933 104.371 7.13067 103.987 6.736C103.613 6.34133 103.155 6.144 102.611 6.144C102.067 6.144 101.603 6.34133 101.219 6.736C100.845 7.12 100.659 7.65334 100.659 8.336C100.659 9.01867 100.845 9.56267 101.219 9.968C101.603 10.3627 102.067 10.56 102.611 10.56C103.155 10.56 103.613 10.3627 103.987 9.968C104.371 9.57334 104.563 9.03467 104.563 8.352ZM110.854 2.96C110.374 2.96 109.979 2.82133 109.67 2.544C109.371 2.256 109.222 1.904 109.222 1.488C109.222 1.06133 109.371 0.709335 109.67 0.432001C109.979 0.144001 110.374 9.53674e-07 110.854 9.53674e-07C111.323 9.53674e-07 111.707 0.144001 112.006 0.432001C112.315 0.709335 112.47 1.06133 112.47 1.488C112.47 1.904 112.315 2.256 112.006 2.544C111.707 2.82133 111.323 2.96 110.854 2.96ZM112.214 3.888V12.816H109.478V3.888H112.214ZM117.133 0.976002V12.816H114.397V0.976002H117.133ZM122.948 12.944C122.169 12.944 121.476 12.8107 120.868 12.544C120.26 12.2773 119.78 11.9147 119.428 11.456C119.076 10.9867 118.878 10.464 118.836 9.888H121.54C121.572 10.1973 121.716 10.448 121.972 10.64C122.228 10.832 122.542 10.928 122.916 10.928C123.257 10.928 123.518 10.864 123.7 10.736C123.892 10.5973 123.988 10.4213 123.988 10.208C123.988 9.952 123.854 9.76534 123.588 9.648C123.321 9.52 122.889 9.38134 122.292 9.232C121.652 9.08267 121.118 8.928 120.692 8.768C120.265 8.59733 119.897 8.336 119.588 7.984C119.278 7.62133 119.124 7.136 119.124 6.528C119.124 6.016 119.262 5.552 119.54 5.136C119.828 4.70933 120.244 4.37333 120.788 4.128C121.342 3.88267 121.998 3.76 122.756 3.76C123.876 3.76 124.756 4.03733 125.396 4.592C126.046 5.14667 126.42 5.88267 126.516 6.8H123.988C123.945 6.49067 123.806 6.24533 123.572 6.064C123.348 5.88267 123.049 5.792 122.676 5.792C122.356 5.792 122.11 5.856 121.94 5.984C121.769 6.10134 121.684 6.26667 121.684 6.48C121.684 6.736 121.817 6.928 122.084 7.056C122.361 7.184 122.788 7.312 123.364 7.44C124.025 7.61067 124.564 7.78133 124.98 7.952C125.396 8.112 125.758 8.37867 126.068 8.752C126.388 9.11467 126.553 9.60534 126.564 10.224C126.564 10.7467 126.414 11.216 126.116 11.632C125.828 12.0373 125.406 12.3573 124.852 12.592C124.308 12.8267 123.673 12.944 122.948 12.944Z" fill="#424242"/>
</svg>
